<?xml version="1.0" encoding="utf-8"?>
<!-- Generator: Adobe Illustrator 25.1.0, SVG Export Plug-In . SVG Version: 6.00 Build 0)  -->
<svg version="1.1" id="Layer_1" xmlns="http://www.w3.org/2000/svg" xmlns:xlink="http://www.w3.org/1999/xlink" x="0px" y="0px"
	 viewBox="0 0 217.65 299.68" style="enable-background:new 0 0 217.65 299.68;" xml:space="preserve">
<style type="text/css">
	.st0{fill:#F9F9F9;}
	.st1{fill:#E0E0E0;}
	.st2{fill:#CEA28B;}
	.st3{fill:#7C8C35;}
	.st4{fill:#724425;}
</style>
<g>
	<g>
		<path class="st0" d="M209.33,195.66c-2.49-8.23-5.92-15.67-9.82-22.74c-14.86-26.91-36.77-48.31-41.75-86.56
			C151.48,38.07,127,2.39,76.72,0.05C68.75-0.33,61.16,1.6,54.06,5.32C16.42,25.03-7.12,95.48,1.94,144.72
			c10.76,58.51,50.79,112.37,50.79,112.37c34.45,53.32,127.91,50.9,148.48,23.76C221.78,253.71,221.32,235.26,209.33,195.66z"/>
		<path class="st1" d="M54.06,5.32c-22.93,42.51-25.04,96.47-5.16,148.52c21.59,56.51,78.18,77.26,114.59,69.18
			c26.02-5.78,33.73-34.29,36.02-50.09c3.9,7.07,7.32,14.51,9.82,22.74c12,39.59,12.45,58.05-8.12,85.19
			c-20.57,27.14-114.02,29.56-148.48-23.76c0,0-40.03-53.86-50.79-112.37C-7.12,95.48,16.42,25.03,54.06,5.32z"/>
	</g>
	<g>
		<path class="st2" d="M83.57,63.57c7.46-1.07,6.73-6.98,5.96-9.74c1.24,3.33,4.88,11.22,11.03,9.3c7.74-2.41,2.08-13.2,2.08-13.2
			s8.28,9.16,16.04,4.2c5.1-3.27,1.09-13.36-2.25-19.88c7.28,5.01,12.92,11.75,15.82,17.04c6.55,11.96,1.69,26.36,6.36,40.24
			c4.67,13.89,0.17,39.48-34.35,43.07c-27.67,2.88-48.6-12.47-52.34-37.64c-2.5-16.84,2.61-36.71,12.8-51
			C71.47,57.35,79.09,64.21,83.57,63.57z"/>
		<path class="st3" d="M89.04,52.39c0,0,0.25,0.57,0.49,1.44C89.21,52.96,89.04,52.39,89.04,52.39z"/>
		<path class="st4" d="M116.44,34.24c3.34,6.52,7.35,16.61,2.25,19.88c-7.75,4.96-16.04-4.2-16.04-4.2s5.66,10.79-2.08,13.2
			c-6.15,1.92-9.79-5.97-11.03-9.3c-0.24-0.87-0.49-1.44-0.49-1.44s0.17,0.57,0.49,1.44c0.77,2.77,1.5,8.68-5.96,9.74
			c-4.49,0.64-12.1-6.22-18.84-17.62c5.04-7.07,11.31-12.8,18.55-16.08C95.49,24.36,107.27,27.93,116.44,34.24z"/>
	</g>
</g>
</svg>
