<?xml version="1.0" encoding="utf-8"?>
<!-- Generator: Adobe Illustrator 25.1.0, SVG Export Plug-In . SVG Version: 6.00 Build 0)  -->
<svg version="1.1" id="Layer_1" xmlns="http://www.w3.org/2000/svg" xmlns:xlink="http://www.w3.org/1999/xlink" x="0px" y="0px"
	 viewBox="0 0 1353.9 933.92" style="enable-background:new 0 0 1353.9 933.92;" xml:space="preserve">
<style type="text/css">
	.st0{fill-rule:evenodd;clip-rule:evenodd;fill:#FFCFA1;}
	.st1{fill:#FACB18;}
	.st2{fill-rule:evenodd;clip-rule:evenodd;fill:#FBCDA1;}
	.st3{fill-rule:evenodd;clip-rule:evenodd;fill:#4D4D4D;}
	.st4{fill-rule:evenodd;clip-rule:evenodd;fill:#FDBB92;}
	.st5{fill:#BD7B5A;}
	.st6{fill-rule:evenodd;clip-rule:evenodd;fill:#FD805D;}
	.st7{fill-rule:evenodd;clip-rule:evenodd;fill:#60A1C2;}
	.st8{fill-rule:evenodd;clip-rule:evenodd;fill:#0098D7;}
	.st9{fill-rule:evenodd;clip-rule:evenodd;fill:#FFFFFF;}
</style>
<g>
	<path class="st0" d="M1139.12,677.88c5.35,4.72,12.22,8.91,20.74,11.62c24.94,7.95,96.99,3.84,129.63-4.37l0,0
		c26.8-6.76,56.52-9.08,47.5-16.64c-8.89-7.68-52.27-2.04-52.27-2.04s42.72-6.7,31.57-14.78c-11.15-8.21-56.12,6.83-56.12,6.83
		s35.02-13.85,21.62-21.4c-13.4-7.68-48.82,15.18-48.82,15.18L1139.12,677.88z"/>
	<path class="st0" d="M214.78,677.88c-5.35,4.72-12.22,8.91-20.74,11.62c-24.94,7.95-96.99,3.84-129.63-4.37l0,0
		c-26.8-6.76-56.52-9.08-47.5-16.64c8.89-7.68,52.27-2.04,52.27-2.04s-42.72-6.7-31.57-14.78c11.15-8.21,56.12,6.83,56.12,6.83
		s-35.02-13.85-21.62-21.4c13.4-7.68,48.82,15.18,48.82,15.18L214.78,677.88z"/>
	<path class="st1" d="M1249.31,660.71c-32.21-94.85-155.84-315.12-227.59-434.33c-46.03-76.48-174.36-24.56-124.27,58.2
		c66.76,110.31,186.52,321.48,215.79,407.67L1249.31,660.71z"/>
	<path class="st1" d="M104.04,660.71c34.68-94.85,164.02-315.12,238.86-434.33c48.01-76.48,174.99-24.56,122.76,58.2
		c-69.63,110.31-194.86,321.48-226.37,407.67L104.04,660.71z"/>
	<path class="st2" d="M1026.19,718.09c-24.32,6.62-52.78-20.13-63.57-59.76c-10.78-39.62,0.19-77.11,24.51-83.73
		c24.32-6.62,52.78,20.13,63.57,59.75C1061.49,673.98,1050.51,711.47,1026.19,718.09z"/>
	<path class="st2" d="M305.31,718.09c24.32,6.62,52.78-20.13,63.57-59.76c10.78-39.62-0.19-77.11-24.51-83.73
		c-24.32-6.62-52.78,20.13-63.57,59.75C270.01,673.98,280.98,711.47,305.31,718.09z"/>
	<path class="st2" d="M664.77,844.45c188.31,0,341.89-117.13,341.89-260.73S853.08,322.98,664.77,322.98
		c-188.31,0-341.89,117.13-341.89,260.73S476.47,844.45,664.77,844.45z"/>
	<ellipse class="st3" cx="563.52" cy="606.57" rx="26.09" ry="43.61"/>
	<path class="st3" d="M766.02,650.18c14.37,0,26.09-19.59,26.09-43.61c0-24.02-11.72-43.61-26.09-43.61s-26.09,19.59-26.09,43.61
		C739.93,630.59,751.65,650.18,766.02,650.18z"/>
	<path class="st4" d="M496.65,535.98c-26.27-8.38-43.31-28.52-38.06-45c5.25-16.47,30.81-23.03,57.08-14.66
		c26.27,8.38,43.31,28.52,38.06,45C548.48,537.8,522.92,544.36,496.65,535.98z"/>
	<path class="st4" d="M832.9,535.98c26.27-8.38,43.31-28.52,38.06-45c-5.25-16.47-30.81-23.03-57.08-14.66
		c-26.27,8.38-43.31,28.52-38.06,45C781.07,537.8,806.62,544.36,832.9,535.98z"/>
	<path class="st5" d="M656.78,863.01c-5.28-0.25-9.35-4.73-9.1-10c0.25-5.28,4.73-9.35,10-9.1c17.25,0.86,31.48-0.39,42.91-3.49
		c11.99-3.25,20.68-8.51,26.37-15.45c2.6-3.17,4.62-6.76,6.1-10.73c-9.13-3.08-18.28-8.1-27.29-15.26l-1.6-1.32
		c-15.66-12.93-18.92-28.51-15.55-41.25c2.14-8.06,7-14.94,13.16-19.36l0.02,0.03c6.66-4.78,14.84-6.82,22.99-4.74
		c10.52,2.69,20.52,12.13,25.76,31.47c3.4,12.56,4.99,24.33,4.6,35.1c3.29,0.06,6.54-0.21,9.73-0.78
		c15.29-2.76,29.73-12.51,41.86-27.2l0.02-0.02l-0.02-0.02c0.6-0.72,1.04-1.27,1.3-1.59c3.29-4.14,9.31-4.82,13.45-1.54
		c4.14,3.29,4.83,9.31,1.54,13.45c-0.67,0.84-1.17,1.47-1.52,1.89l-0.02-0.01c-14.97,18.13-33.32,30.25-53.23,33.85
		c-5.34,0.96-10.77,1.32-16.24,1.01c-2.22,7.08-5.63,13.49-10.29,19.17c-8.24,10.04-20.18,17.48-36.19,21.82
		C692.3,862.51,676.12,863.97,656.78,863.01L656.78,863.01z M736.07,794.91c-0.09-7.93-1.46-16.7-4.03-26.17
		c-3.11-11.48-7.61-16.72-11.97-17.83c-2.38-0.61-4.93,0.11-7.12,1.68l-0.02,0.01l0.02,0.02c-2.7,1.94-4.85,5.02-5.82,8.65
		c-1.67,6.29,0.36,14.34,9.18,21.61l1.38,1.1C723.83,788.87,729.98,792.47,736.07,794.91z"/>
	<path class="st6" d="M664.77,467.7c59.17,0,107.13,39.78,107.13,8.41c0-31.37-42.58-75.61-107.13-75.61
		c-64.55,0-107.13,44.25-107.13,75.61C557.64,507.47,605.6,467.7,664.77,467.7z"/>
	<path class="st7" d="M978.1,814.01c1.08,28.89,4.34,54.94,7.4,65.28c11.03,37.3,55.4,52.89,126.82,52.89
		c71.42,0,131.83-13.99,131.83-52.89c0-38.9-57.9-70.43-129.33-70.43L978.1,814.01z"/>
	<path class="st7" d="M237.59,808.86c-71.43,0-129.33,31.53-129.33,70.43c0,38.89,60.41,52.89,131.83,52.89
		c71.43,0,115.8-15.59,126.82-52.89c3.06-10.34,6.31-36.39,7.4-65.28L237.59,808.86z"/>
	<path class="st8" d="M1166.77,814.79c-14.62-114.4-49.02-270.86-83.91-398.59c0.06-0.04,0.13-0.06,0.19-0.1
		C1033.32,183.26,946.5,11.27,677.95,1.75C482.47,8.68,382.52,104.42,323.33,243.82c-2.08,4.18-3.98,8.56-5.67,13.15
		c-0.92,2.51-1.87,5.17-2.81,7.79c-10.85,28.19-20.25,57.96-28.58,89c-40.12,136.32-83.81,328.1-100.79,461.02
		c65.47,6.43,123.43,7.19,206.97,12.35c6.96-32.93,81.42-254.66,130.15-398.39c42.92,8.22,94.3,13.01,155.12,14.37
		c57.75-1.29,108.73-5.42,152.5-12.7c48.74,143.76,122.65,363.91,129.58,396.71C1043.34,821.98,1101.29,821.21,1166.77,814.79z"/>
	<circle class="st9" cx="766.02" cy="606.57" r="9.38"/>
	<circle class="st9" cx="563.52" cy="606.57" r="9.38"/>
</g>
</svg>
