<?xml version="1.0" encoding="utf-8"?>
<!-- Generator: Adobe Illustrator 25.1.0, SVG Export Plug-In . SVG Version: 6.00 Build 0)  -->
<svg version="1.1" id="Layer_1" xmlns="http://www.w3.org/2000/svg" xmlns:xlink="http://www.w3.org/1999/xlink" x="0px" y="0px"
	 viewBox="0 0 354.35 220.91" style="enable-background:new 0 0 354.35 220.91;" xml:space="preserve">
<style type="text/css">
	.st0{fill-rule:evenodd;clip-rule:evenodd;fill:#0098D7;}
	.st1{fill-rule:evenodd;clip-rule:evenodd;fill:#055D85;}
	.st2{fill-rule:evenodd;clip-rule:evenodd;fill:#1D2630;}
	.st3{fill-rule:evenodd;clip-rule:evenodd;fill:#086979;}
	.st4{fill-rule:evenodd;clip-rule:evenodd;fill:#231F20;}
	.st5{fill-rule:evenodd;clip-rule:evenodd;fill:#CC4E28;}
	.st6{fill-rule:evenodd;clip-rule:evenodd;fill:#FAC219;}
	.st7{fill-rule:evenodd;clip-rule:evenodd;fill:#AB3E1E;}
	.st8{fill-rule:evenodd;clip-rule:evenodd;fill:#F0BEB4;}
	.st9{fill-rule:evenodd;clip-rule:evenodd;fill:#CB8C84;}
	.st10{fill-rule:evenodd;clip-rule:evenodd;fill:#00222C;}
	.st11{fill-rule:evenodd;clip-rule:evenodd;fill:#124151;}
	.st12{fill:none;}
	.st13{fill-rule:evenodd;clip-rule:evenodd;fill:#13191F;}
	.st14{fill-rule:evenodd;clip-rule:evenodd;fill:#A38370;}
	.st15{fill-rule:evenodd;clip-rule:evenodd;fill:#E5F5FB;}
	.st16{fill-rule:evenodd;clip-rule:evenodd;fill:#F6923C;}
	.st17{fill-rule:evenodd;clip-rule:evenodd;fill:#6D392C;}
	.st18{fill-rule:evenodd;clip-rule:evenodd;fill:#654C47;}
	.st19{fill-rule:evenodd;clip-rule:evenodd;fill:#1E1412;}
	.st20{fill-rule:evenodd;clip-rule:evenodd;fill:#DA6641;}
	.st21{fill:#A38370;}
	.st22{fill-rule:evenodd;clip-rule:evenodd;fill:#A6DCF1;}
	.st23{fill-rule:evenodd;clip-rule:evenodd;fill:#236C85;}
	.st24{fill-rule:evenodd;clip-rule:evenodd;fill:#B5917C;}
	.st25{fill-rule:evenodd;clip-rule:evenodd;fill:#9C7761;}
</style>
<g>
	<g>
		<path class="st0" d="M317.3,192.21c0,0,4.51,4.92,1.69,11.72c0,0-117.82,1.99-122.71-18.94c-3.24-13.88,6.31-23.44,16.09-23.44
			C227.63,161.55,300.2,187.81,317.3,192.21L317.3,192.21z"/>
		<path class="st1" d="M212.36,161.55c-1.05,0-2.17,0.12-3.32,0.36c52.8-11.41,99.72,7.81,99.72,7.81c11.01,8.7,7.4,22.1,7.4,22.1
			l-0.51-0.06C296,186.29,227.18,161.55,212.36,161.55z M208.96,161.93l-0.02,0l0,0L208.96,161.93z"/>
		<path class="st2" d="M319.14,203.55l4.79,0.43c0,0,21.98,8.33,25.12,6.76c2.2-1.1,4.15-2.48,5.13-3.21
			c0.17-0.13,0.29-0.33,0.31-0.55c0.02-0.22-0.04-0.44-0.18-0.61c-1.77-2.14-7.58-8.88-11.54-9.76c-3.88-0.86-8.11-1.01-9.48-1.04
			c-0.3,0-0.59-0.1-0.83-0.27c-1.22-0.84-5.05-3.5-6.14-4.25c-0.2-0.14-0.43-0.22-0.67-0.23c-1.42-0.05-6.4-0.14-8.34,1.38
			C315.03,193.99,319.14,203.55,319.14,203.55L319.14,203.55z"/>
		<path class="st0" d="M319.14,203.55c-0.05,0.13-0.1,0.25-0.15,0.38c0,0-84.55,1.43-113.37-10.86h0c0,0-7.36,3.46-7.36,10.76
			c-0.01,7.3,7.36,15.67,22.05,14.75c16.75-1.05,84.97-4,100.58-5.63c0,0,2.52-5.26,2.52-8.98c0-0.02,0-0.03,0-0.05L319.14,203.55
			L319.14,203.55L319.14,203.55z"/>
		<path class="st3" d="M319.63,203.6l-0.5-0.04c-0.05,0.13-0.1,0.25-0.15,0.38c0,0-84.55,1.43-113.37-10.86h0
			c0,0-0.4,0.19-1.01,0.56c27.63,12.84,114.54,11.37,114.54,11.37C319.34,204.53,319.5,204.06,319.63,203.6L319.63,203.6z"/>
		<path class="st4" d="M276.66,50.08c0,0-2.88-6.19-2.41-8.08c0.47-1.88,4.85-6.26,7.64-8.26c2.79-2,4.35-3.05,4.35-5.66
			c0-2.62-2.05-4.19-1.55-5.76c0.5-1.54,7.9-21.05,17.21-22.32c0.31-0.04,0.62,0,0.91,0.12c1,0.45,3.52,1.91,5.73,5.98
			c0,0,4.9-0.31,6.22,0.37c1.32,0.67,2.81,6.92,2.06,22.01c-0.75,15.09,8.21,11.22,6.09,26.87
			C320.78,71.01,276.66,50.08,276.66,50.08z"/>
		<path class="st2" d="M323.4,203.94c0,0.02,0,0.03,0,0.05c0,3.48-2.22,8.32-2.49,8.92l-0.03,0.06c0,0,15.6,5.63,31.83,5.11
			c0,0,2.62-4.19,1.05-6.28c-1.57-2.09-2.37-2.36-2.37-2.36l0,0c-0.72,0.44-1.51,0.9-2.34,1.31c-3.14,1.57-25.12-6.76-25.12-6.76
			L323.4,203.94z"/>
		<path class="st5" d="M301.36,51.96c0,0-13.71,56.02-18.81,76.85c-1.24,5.08-1.59,10.34-1.03,15.54
			c1.15,10.66,3.05,28.39,3.05,28.39s5.34,2.81,29.94,0c0,0-6.98-33.8-10.03-41.07c0,0,24.98-70.1,15.03-78.96
			c-0.48-0.43-1.11-0.68-1.75-0.68C314.68,52.01,301.36,51.96,301.36,51.96L301.36,51.96z"/>
		<path class="st6" d="M301.25,52.37c0,0-8.54,7.23-16.56-0.42l0,0c-1.05,6.36-11.27,67.37-24.43,108.11l23.51,5.26l-2.26-20.98
			c-0.56-5.2-0.21-10.46,1.03-15.54L301.25,52.37L301.25,52.37z"/>
		<path class="st5" d="M297.26,121.45c-0.01,1-0.28,1.98-0.79,2.84c-1.32,2.23-4.2,6.48-7.61,7.95c-3.66,1.57-10.47-3.14-9.94-7.85
			c0.52-4.71,11.26-51.04,12.7-53.52h6.04C297.65,70.87,297.32,113.04,297.26,121.45L297.26,121.45z"/>
		<path class="st5" d="M296.83,123.59c3.58-5.92,25.92-43.15,29.32-56.52c0.04-0.18,0.08-0.36,0.1-0.55
			c0.17-1.72,0.57-9.94-6.97-13.99c0,0-11.42,9.06-14.72,15.34c-2.31,4.38-5.4,15.51-7.05,21.83l-0.25,31.76
			C297.25,122.19,297.11,122.91,296.83,123.59z"/>
		<path class="st7" d="M299.01,84.15c-0.31,1.13-1.25,4.6-1.5,5.55l-0.17,21.51L299.01,84.15L299.01,84.15z"/>
		<path class="st5" d="M284.78,51.42c0,0-10.76,66.51-24.8,109.51l-21.89-1.48c0,0,8.7-22.77,16.91-33.37l10.83-76.54
			C265.83,49.55,277.98,49.55,284.78,51.42z"/>
		<path class="st5" d="M249.66,97.74c-0.74,0.67-1.31,1.5-1.67,2.43c-1.47,3.83-5.12,14.14-2.57,15.84
			c3.14,2.09,13.43,2.42,16.66-0.88c3.23-3.31,27.54-45.08,27.54-45.08l-4.84-4.28C284.78,65.77,255.74,92.21,249.66,97.74
			L249.66,97.74z"/>
		<path class="st5" d="M268.09,80.97l0.15-0.17c3.46-25.8-0.72-31.22-0.72-31.22l-4.94-0.21c-7.4,0.21-16.81,57.19-16.89,57.64
			c0.75-2.67,1.71-5.28,2.3-6.83c0.36-0.93,0.93-1.76,1.67-2.43L268.09,80.97L268.09,80.97z"/>
		<path class="st5" d="M276.67,60.94l5.47,5.71c1.7-9.37,2.65-15.23,2.65-15.23c-1.3-0.36-2.81-0.65-4.38-0.88L276.67,60.94
			L276.67,60.94z"/>
		<path class="st8" d="M290.8,69.44c0,0,1.03,2.27,3.29,2.62c2.26,0.35,4.19-0.52,5.23-2.09c0.78-1.16,6.54-14.25,9.46-20.94
			c0.15-0.34,0.04-0.74-0.27-0.95c-0.31-0.21-0.73-0.16-0.98,0.12C302.56,53.44,292.83,64.11,290.8,69.44L290.8,69.44z"/>
		<path class="st8" d="M301.25,52.37l0.1-0.42c-3.73-2.82,0.85-15.41,0.85-15.41s-13.87-7.93-11.78,4.1
			c2.09,12.04-5.65,10.77-5.65,10.77s-0.09,0.54-0.09,0.54l0,0C292.72,59.6,301.25,52.37,301.25,52.37L301.25,52.37z"/>
		<path class="st9" d="M300.13,49.85l-5.7,5.51c3.96-0.56,6.82-2.98,6.82-2.98l0.1-0.42C300.74,51.49,300.35,50.75,300.13,49.85
			L300.13,49.85z"/>
		<path class="st9" d="M301.09,40.16c0.56-2.09,1.11-3.61,1.11-3.61s-13.87-7.93-11.78,4.1c0.27,1.57,0.38,2.92,0.36,4.07l0,0
			C295.85,46.7,301.09,40.16,301.09,40.16L301.09,40.16z"/>
		<path class="st8" d="M289.38,22.34c0,0-1.8,9.2-1.65,15.78c0.08,1.71,0.91,3.29,2.26,4.33c2.33,1.79,6.65,2.46,13.58-5.65
			c0,0,0.73-4.34-1.5-8.88s-2.37-8.5-1.67-13.38C300.4,14.54,292,15.01,289.38,22.34z"/>
		<path class="st8" d="M304.59,51.35l1.14-4.02c0.11-0.39-0.05-0.81-0.4-1.02c-0.35-0.21-0.8-0.16-1.09,0.13
			c-5.24,5.06-17.32,16.75-19.21,18.57c-0.18,0.17-0.29,0.41-0.3,0.66c-0.02,0.65,0.12,1.91,1.35,2.88c3.07,2.3,3.52,1.41,4.72,0.89
			l0.02-0.06C292.55,64.96,299.45,56.95,304.59,51.35z"/>
		<path class="st9" d="M305.1,49.54c-5.22,5.61-13.24,14.69-15.06,19.46c0,0,0.12,0.26,0.37,0.62c0.12-0.07,0.25-0.13,0.39-0.19
			l0.02-0.06c1.72-4.42,8.62-12.43,13.76-18.03L305.1,49.54z"/>
	</g>
	<g>
		<path class="st10" d="M122.55,148.46l-24.6,13.08l0,0l-36.94-2.35l-0.88,6.47c-2.75,1.5-33.19,6.59-33.19,6.59l67.74,20.28
			l12.69-2.73l0,0l15.97-4.17l63.94-72.25c0,0-11,1.08-58.54,37.71L122.55,148.46z"/>
		<path class="st11" d="M127.46,193.71c6.04-2.75,25.83-11.8,32.42-15.37c7.53-4.08,34.72-15.08,49.99-30.53
			c1.16-1.2,1.96-2.7,2.32-4.33c1.57-7.93,4.06-31.67-23.57-30.43c-0.75,0.03-1.47,0.29-2.08,0.73
			c-2.83,2.13-11.76,9.17-18.84,17.89c-8.22,10.12-31.57,37.55-49.86,54.3C127.03,189.97,127.46,193.71,127.46,193.71z"/>
		<path class="st11" d="M26.94,172.25c0,0-10.63,0.29-10.63,7.61c0,7.33,3.14,13.85,3.14,13.85c0.75,3.06,28.38,13.21,93.08,13.21
			l2.6-7.88C108.21,196.97,43.8,169.99,26.94,172.25L26.94,172.25z"/>
		<path class="st2" d="M112.53,206.93c0,0,42.99,6.43,46.13,5.38c3.14-1.05,6.28-7.33,5.23-8.37c-0.89-0.89-12.06-6.35-15.33-7.94
			c-0.57-0.28-1.21-0.36-1.83-0.22c-1.58,0.35-4.78,1.06-6.76,1.5c-1.11,0.25-2.28,0.1-3.3-0.41c-1.86-0.93-4.7-2.35-4.7-2.35
			l-7.85,0.52l-8.98,4L112.53,206.93z"/>
		<path class="st12" d="M23.64,91.42c0,0-4.54-11.17-19.54-5.59c0,0-3.27,5.12,5.26,18.7c8.53,13.58,19,24.05,19,24.05l4.19-3.66
			C32.53,124.91,22.57,102.41,23.64,91.42z"/>
		<path class="st13" d="M124.07,195.06l-8.94,3.98l-2.6,7.88c0,0,10.41,1.56,21.36,3.01c-2.35-3.61-6.61-7.45-14.28-10.19l1.47-1.57
			l3.31-2.41C124.31,195.53,124.2,195.29,124.07,195.06L124.07,195.06z"/>
		<path class="st14" d="M123.35,195.77l-3.31,2.41l-10.57-5.23l4.07-3.15C113.54,189.79,122.05,191.8,123.35,195.77L123.35,195.77z"
			/>
		<path class="st2" d="M120.03,198.18c0,0-2.19-5.23-10.57-5.23c0,0-13.2,7.32-13.66,9.68c-0.47,2.36,3.72,7.07,6.34,8.12l6.03-0.47
			c0,0,2.79-0.17,11.04,6.43c8.25,6.6,16.43,3.46,16.43,3.46s1.98-13.61-17.07-20.41L120.03,198.18L120.03,198.18z"/>
		<path class="st15" d="M122.55,146.37c0,0-5.28-11.98-9.08-30.48l11.84-14.33c-1.3-41.64-4.33-48.86-4.33-48.87l0,0
			c0,0-1.65-5.63-14.43-4.7c-14.35,1.04-23.77,3.66-23.77,3.66s-19.23-2.36-29.76,1.18C45.1,55.47,24.35,67.54,12.35,77.3
			c-0.11,0-0.2-0.02-0.31-0.02c-0.9-0.03-1.78,0.3-2.45,0.91c-2.4,2.15-5.08,4.13-5.5,7.64c0,0,0,0,0,0c0,0,0,0,0,0l19.54,5.59
			c0,0,0.05-0.02,0.11-0.04l0.73-0.28c3.37-1.27,16.3-5.97,25.33-7.01c0,0,1.49,32.98,10.69,75.11c0,0,21.94,20.96,62.41-10.59
			C122.9,148.61,124.64,147.42,122.55,146.37z M113.31,115.12c-0.06-0.28-0.11-0.57-0.17-0.85
			C113.19,114.56,113.25,114.84,113.31,115.12z M112.74,112.21c-0.04-0.21-0.08-0.42-0.12-0.64
			C112.66,111.79,112.7,112,112.74,112.21z M112.14,108.82c-0.03-0.19-0.06-0.39-0.09-0.59
			C112.08,108.43,112.11,108.63,112.14,108.82z M111.69,105.98c-0.05-0.3-0.09-0.6-0.13-0.9
			C111.6,105.38,111.65,105.68,111.69,105.98z M111.26,102.94c-0.04-0.28-0.08-0.57-0.11-0.85
			C111.18,102.37,111.22,102.65,111.26,102.94z M110.45,96.01c-0.03-0.29-0.05-0.58-0.08-0.88
			C110.4,95.42,110.43,95.72,110.45,96.01z M110.18,92.82c-0.03-0.33-0.05-0.65-0.07-0.98C110.13,92.17,110.15,92.49,110.18,92.82z
			 M109.94,89.29c-0.01-0.23-0.03-0.45-0.04-0.68C109.91,88.84,109.92,89.06,109.94,89.29z M109.75,85.33
			c-0.01-0.22-0.01-0.44-0.02-0.66C109.74,84.89,109.74,85.11,109.75,85.33z M109.65,77.53c0,0.32,0,0.63-0.01,0.95
			C109.65,78.17,109.65,77.85,109.65,77.53z M109.67,82c-0.01-0.34-0.01-0.68-0.01-1.02C109.66,81.32,109.66,81.66,109.67,82z"/>
		<path class="st16" d="M79.8,139.46c2.49-4.43,7.09-7.27,12.17-7.51c3.12-0.11,6.21-0.74,8.66-1.97
			c11.95-6.03,12.65-20.96,5.42-35.28c-7.22-14.31-19.65-22.62-31.6-16.59c-2.45,1.24-4.78,3.39-6.74,5.85
			c-3.15,3.94-8.1,6-13.12,5.45c-11.29-1.17-27.88,0.58-35.47,4.41C1.13,102.88-5.3,126.4,4.74,146.3
			c10.04,19.9,32.79,28.7,50.76,19.63C63.09,162.1,74.15,149.43,79.8,139.46L79.8,139.46z"/>
		<path class="st17" d="M82.29,102.72l83.95-39.5l4.08,8.67l-83.95,39.5L82.29,102.72z"/>
		<polyline class="st17" points="45.55,141.64 48.23,140.38 35.53,113.4 32.85,114.66 34.72,118.63 30.38,125.94 35.53,136.92 
			43.54,137.39 		"/>
		
			<ellipse transform="matrix(0.9869 -0.1616 0.1616 0.9869 -17.1443 13.3909)" class="st18" cx="73.77" cy="112.11" rx="13.52" ry="13.52"/>
		
			<ellipse transform="matrix(0.9869 -0.1612 0.1612 0.9869 -17.1117 13.3609)" class="st19" cx="73.77" cy="112.11" rx="10.35" ry="10.35"/>
		<path class="st20" d="M194.81,54.65c-2.58-5.3-7.06-5.74-7.06-5.74c-9.63,9.95-19.31,9.41-19.31,9.41l-2.96,7.3l2.6,5.34
			l7.59,2.21c0,0,5.54-7.95,19.31-9.41C194.99,63.76,197.4,59.95,194.81,54.65z"/>
		<path class="st21" d="M41.35,127.96c-0.4-1.01-1.13-2.43-2.25-3.25c-0.43-0.3-0.95-0.43-1.47-0.36c-1.45,0.13-5.61-1.16-5.61-1.16
			l-0.15,0.15c-2.22-5.3-9.12-22.68-8.22-31.92c0,0-4.54-11.17-19.54-5.59c0,0-3.27,5.12,5.26,18.7
			c7.87,12.53,17.38,22.4,18.81,23.85c0.26,2.34,0.9,7.36,1.76,8.57c1.13,1.59,9.94,2.09,9.42,0c-0.52-2.09-3.66-3.66-3.66-3.66
			v-4.39c0-0.52,0.28-1,0.74-1.25c0.46-0.25,1.02-0.23,1.45,0.06c0.53,0.35,1.09,0.86,1.58,1.62c0.27,0.42,0.82,0.56,1.26,0.33
			c0,0.01,0,0.01,0,0.01C41.33,129.34,41.6,128.61,41.35,127.96z"/>
		<path class="st17" d="M185.88,50.66c-0.12-0.24-0.09-0.53,0.08-0.74c0.51-0.62,0.67-1.4,0.35-2.03c-0.47-0.93-1.82-1.2-3-0.59
			c-1.18,0.6-1.76,1.85-1.29,2.78c0.32,0.63,1.04,0.96,1.85,0.91c0.27-0.01,0.52,0.13,0.64,0.37c0.25,0.48,0.61,1.19,0.61,1.19
			l1.37-0.7C186.48,51.85,186.12,51.14,185.88,50.66L185.88,50.66z"/>
		<path class="st17" d="M177.16,71.59c0.12,0.24,0.09,0.53-0.08,0.74c-0.51,0.62-0.67,1.4-0.35,2.03c0.47,0.93,1.82,1.2,3,0.59
			c1.18-0.6,1.76-1.85,1.29-2.78c-0.32-0.63-1.04-0.96-1.85-0.91c-0.27,0.01-0.52-0.13-0.64-0.37c-0.25-0.48-0.61-1.19-0.61-1.19
			l-1.37,0.7C176.55,70.4,176.91,71.11,177.16,71.59L177.16,71.59z"/>
		<path class="st17" d="M179.14,54.09c-0.12-0.24-0.09-0.53,0.08-0.74c0.51-0.62,0.67-1.4,0.35-2.03c-0.47-0.93-1.82-1.2-3-0.59
			c-1.18,0.6-1.76,1.85-1.29,2.78c0.32,0.63,1.04,0.96,1.85,0.91c0.27-0.01,0.52,0.13,0.64,0.37c0.25,0.48,0.61,1.19,0.61,1.19
			l1.37-0.7C179.75,55.29,179.38,54.57,179.14,54.09L179.14,54.09z"/>
		<path class="st17" d="M183.9,68.16c0.12,0.24,0.09,0.53-0.08,0.74c-0.51,0.62-0.67,1.4-0.35,2.03c0.47,0.93,1.82,1.2,3,0.59
			c1.18-0.6,1.76-1.85,1.29-2.78c-0.32-0.63-1.04-0.96-1.85-0.91c-0.27,0.01-0.52-0.13-0.64-0.37c-0.25-0.48-0.61-1.19-0.61-1.19
			l-1.37,0.7C183.29,66.97,183.65,67.68,183.9,68.16L183.9,68.16z"/>
		<path class="st17" d="M172.4,57.53c-0.12-0.24-0.09-0.53,0.08-0.74c0.51-0.62,0.67-1.4,0.35-2.03c-0.47-0.93-1.82-1.2-3-0.59
			c-1.18,0.6-1.76,1.85-1.29,2.78c0.32,0.63,1.04,0.96,1.85,0.91c0.27-0.01,0.52,0.13,0.64,0.37c0.25,0.48,0.61,1.19,0.61,1.19
			l1.37-0.7C173.01,58.72,172.64,58.01,172.4,57.53z"/>
		<path class="st17" d="M190.63,64.72c0.12,0.24,0.09,0.53-0.08,0.74c-0.51,0.62-0.67,1.4-0.35,2.03c0.47,0.93,1.82,1.2,3,0.59
			c1.18-0.6,1.76-1.85,1.29-2.78c-0.32-0.63-1.04-0.96-1.85-0.91c-0.27,0.01-0.52-0.13-0.64-0.37c-0.25-0.48-0.61-1.19-0.61-1.19
			l-1.37,0.7C190.03,63.53,190.39,64.24,190.63,64.72L190.63,64.72z"/>
		<path class="st22" d="M127.52,101.18c0,0-7.43-3.11-14.57,12.14c0,0-0.7,5.2,1.61,7.58c1.12,1.15,4.33,0.88,4.33,0.88
			S116.69,109.55,127.52,101.18z"/>
		<path class="st23" d="M117.84,185.83c-0.32-0.13-0.69-0.08-0.96,0.13c-1.17,0.91-4.27,3.32-4.27,3.32s11.81,6.36,12.45,8.15
			c0,0,2.08-2.43,2.41-3.72C127.46,193.71,127.77,189.94,117.84,185.83L117.84,185.83z"/>
		<path class="st14" d="M161.66,79.14c-0.84-3.2-2.28-8.66-3.03-11.51c-0.11-0.42-0.42-0.76-0.83-0.91
			c-0.41-0.15-0.87-0.09-1.22,0.16c-1.98,1.4-5.31,3.75-6.69,4.73c-0.39,0.28-0.61,0.74-0.56,1.22c0.17,1.72,0.59,5.88,0.82,8.15
			l-22.61,20.2v0c-0.83,0.64-1.62,1.33-2.36,2.08c-1.09,1.09-2.06,2.29-2.9,3.58c-0.84,1.29-1.53,2.67-2.08,4.11
			c-0.7,1.85-1.15,3.79-1.36,5.76c-0.1,1-0.15,2.01-0.12,3.02c0.02,0.67,0.06,1.34,0.17,2.01l0.01,0.04
			c7.44-0.42,14.34-4.06,18.89-9.97c8.09-11.04,18.44-26.29,20.88-29.89c0.37-0.03,0.74-0.05,1.08-0.08c0.64-0.05,1.23-0.37,1.6-0.9
			C161.7,80.42,161.82,79.76,161.66,79.14z"/>
		<path class="st24" d="M88.07,42.12l-0.48,6.74c0,0,5.08,3.19,4.06,4.82c-1.02,1.63-12.29,4.79-18.17-2.81c0,0,2.46-1.85,1.69-18.6
			L88.07,42.12L88.07,42.12z"/>
		<path class="st25" d="M87.68,47.52l0.39-5.41l-12.9-9.84c0.06,1.42,0.11,2.73,0.13,3.94l0,0C78.81,48.01,87.68,47.52,87.68,47.52
			L87.68,47.52z"/>
		<path class="st24" d="M95.33,24.43c0,0-2.06,19.15-3.91,20.56c-1.85,1.42-11.82,1.47-14.88-9.55c0,0-6.11,0.59-6.22-3.64
			c-0.11-4.23,2.51-7.37,5.13-1.09v-3.66c0,0,3.5-1.1,3.84-5.78l3.34,2.64l-1.43-4.19l9.42,4.71l-3.14-5.76
			C87.48,18.67,91.67,18.15,95.33,24.43L95.33,24.43z"/>
		<path class="st4" d="M95,27.32L95,27.32c0,0,4.09-2.68,5.09-5.4c0.95-2.59-11.58-15.2-19.66-15.22c-0.69,0.01-1.35,0.29-1.83,0.79
			c-1.1,1.26-3.46,4.32-5.76,9.44c0,0-3.85,0.71-5.94,2.5c-0.52,0.48-0.67,1.24-0.37,1.87c1.1,2.4,3.96,8.48,3.96,8.48v0
			c0.61-3.01,2.79-4.29,4.96,0.93v-3.66c0,0,3.5-1.1,3.84-5.78l3.34,2.64l-1.43-4.19l9.42,4.71l-3.14-5.76c0,0,4.19-0.52,7.85,5.76
			C95.33,24.43,95.21,25.57,95,27.32L95,27.32z"/>
		<path class="st24" d="M94.87,28.36c0,0,2.03,1.31,2.03,2.35c0,1.05-3,4.59-3,4.59L94.87,28.36L94.87,28.36z"/>
		<path class="st13" d="M135.63,220.16c0,0-3.47-5.54-5.76-7.33c-2.62-2.04-24.26-15.46-34.11-9.82c0,2.45,3.89,6.74,6.37,7.73
			l6.03-0.47c0,0,2.79-0.17,11.04,6.43C127.46,223.3,135.63,220.16,135.63,220.16L135.63,220.16z"/>
	</g>
</g>
</svg>
