<?xml version="1.0" encoding="utf-8"?>
<!-- Generator: Adobe Illustrator 25.1.0, SVG Export Plug-In . SVG Version: 6.00 Build 0)  -->
<svg version="1.1" id="Layer_1" xmlns="http://www.w3.org/2000/svg" xmlns:xlink="http://www.w3.org/1999/xlink" x="0px" y="0px"
	 viewBox="0 0 1920 1080" style="enable-background:new 0 0 1920 1080;" xml:space="preserve">
<style type="text/css">
	.st0{fill:url(#SVGID_1_);}
	.st1{fill:url(#SVGID_2_);}
	.st2{fill:url(#SVGID_3_);}
	.st3{fill:url(#SVGID_4_);}
	.st4{fill:url(#SVGID_5_);}
</style>
<g>
	<linearGradient id="SVGID_1_" gradientUnits="userSpaceOnUse" x1="959.8315" y1="1138.05" x2="959.8315" y2="-204.7464">
		<stop  offset="0.0335" style="stop-color:#E9DBC6"/>
		<stop  offset="0.0545" style="stop-color:#CDD5B3"/>
		<stop  offset="0.1084" style="stop-color:#8BC787"/>
		<stop  offset="0.1537" style="stop-color:#5BBD67"/>
		<stop  offset="0.1881" style="stop-color:#3DB653"/>
		<stop  offset="0.2076" style="stop-color:#32B44C"/>
		<stop  offset="0.412" style="stop-color:#3BB64B"/>
		<stop  offset="0.748" style="stop-color:#54BA49"/>
		<stop  offset="1" style="stop-color:#6BBE47"/>
	</linearGradient>
	<rect x="0.17" y="0" class="st0" width="1919.33" height="1080"/>
	
		<linearGradient id="SVGID_2_" gradientUnits="userSpaceOnUse" x1="242.2392" y1="1076.2356" x2="253.5202" y2="321.993" gradientTransform="matrix(-1 0 0 1 1205.5613 0)">
		<stop  offset="0.3943" style="stop-color:#1AB24E;stop-opacity:0.7"/>
		<stop  offset="1" style="stop-color:#12923F"/>
	</linearGradient>
	<path class="st1" d="M1909.6,627.86c-8.28-1.67-17.3,1.32-25.43-0.94c-4.53-1.27-7.96-4.36-12.57-5.72
		c-5.07-1.51-9.25-1.23-14.24-1.82c-4.77-0.58-9.6-1.39-14.41-2.32c-5.1-0.98-10.18-2.11-15.15-3.24
		c-6.52-1.49-14.02-4.44-20.77-5.45c-2.85-0.43-6.15,0.89-8.94,0.34c-4.27-0.85-7.99-3.46-12.06-5c-7.42-2.84-16.4-4.23-24.14-5.4
		c-6.39-0.99-11.28-33.75-17.51-35.92c-7.62-2.66-13.33-1.36-20.99-2.57c-2.8-0.43-6.43-1.77-9-2.77c-3.1-1.23-6-3.97-9-5.01
		c-5.13-1.75-12.46-0.39-17.92-0.45c-7.56-0.09-13.69,2.09-20.92,2.75c-4.2,0.38-8.85-0.92-12.97-0.27
		c-5.89,0.92-8.7,4.75-14.16,5.81c-0.01,0-0.01,0-0.03,0.01c-42.16,8.1-81.98-5.57-123.6-5.61
		c-48.36-0.04-105.96-19.72-152.21-32.33c-29.75-8.11-61.56-18.51-93.06-18.98c-17.72-0.24-34.13-7.91-50.11-14.15
		c-35.18-13.76-66.38-33.07-99.07-50.76c-10.93-5.92-22.2-9.1-33.09-15.47c-3.71-2.17-7.77-4.06-11.22-6.74
		c-20.64-16.06-54.07-10.06-78.59-10.06c-12.39,0-27.81-2.08-39.81,0.61c-14.24,3.2-27.31,10.15-41.97,12.28
		c-31.79,4.63-47.02,13.47-77.89,23.7c-69.66,23.09-103.45-15.38-130.46-4.26c-16.33,6.74-32.75,12.88-49.52,18.91
		c-26.6,9.56-49.51,23.36-78.02,29.09c-27.93,5.61-55.06,3.37-83.31,3.37c-44.48,0-61.85,8.73-104.7,17.55
		c-9.76,2.01-44.05,13.76-53.59,16.39c-38.76,10.68-78.98,17.99-118.83,24.41c-11.15,1.8-22.33,3.46-33.52,5.03
		c-23.46,3.28-46.99,6.1-70.57,8.54c-38.51,3.99-77.12,7.07-115.77,9.61v505.73h1919.33l-0.34-445.2
		C1916.24,630.06,1913.03,628.55,1909.6,627.86z"/>
	<linearGradient id="SVGID_3_" gradientUnits="userSpaceOnUse" x1="960.1685" y1="824.3806" x2="960.1685" y2="608.0395">
		<stop  offset="0" style="stop-color:#02B36E;stop-opacity:0.8"/>
		<stop  offset="1" style="stop-color:#199E44"/>
	</linearGradient>
	<path class="st2" d="M1919.83,658.78v417.94H0.51V653.61c1.65,0.34,3.27,0.17,4.87-0.51c2-1.48,4-2.95,6-4.43
		c5.04-1.72,12.46-0.4,17.83-0.4c8.32,0,16.64,0.06,24.97,0.06c65.49,0,131.81-17.63,196.99-24.02c10.02-0.98,20.05-5.65,30.04-7.47
		c13.84-2.52,28.06-6.2,41.85-0.86c9.46,3.67,17.92,10.65,27.87,13c0.01,0,0.02,0,0.02,0.01c49,11.42,111.63,31.25,161.98,19.82
		c35.38-8.03,71.56-13.97,106.5-23.48c33.1-9.01,79.3-45.26,115.15-41.4c51.03,5.5,92.22,33.3,140.34,45.08
		c48.96,11.98,99.57,47.57,152.93,27.07c7.12-2.74,13.84-1.45,21.11-3.62c6.62-1.98,10.32-6.45,17.29-7.17c0.01,0,0.02,0,0.03,0
		c26.17-2.68,46.35,10.65,72.34,0.93c0.01,0,0.02-0.01,0.03-0.01c24.6-9.18,50.15-9.12,75.21-13.87c6.26-1.19,12.26-3.36,18.51-4.82
		c16.26-3.79,32.22-6.05,47.53,1.5c5.53,2.73,11.25,5.64,17.85,5.9c0.02,0,0.03,0,0.05,0c104.18,4.09,206.79,27.62,311.59,25.46
		c74.41-1.53,148.48-2.55,222.94-1.64c21.69,0.27,43.34-0.06,65.01-0.06C1904.83,658.67,1912.33,658.76,1919.83,658.78z"/>
	<linearGradient id="SVGID_4_" gradientUnits="userSpaceOnUse" x1="959.9346" y1="860.7803" x2="956.9571" y2="653.3527">
		<stop  offset="0.0905" style="stop-color:#1AB24E"/>
		<stop  offset="1" style="stop-color:#0E8C3C"/>
	</linearGradient>
	<path class="st3" d="M1855.53,669.65c-60.66,21.39-114.35-5.72-168.65-22.72c-34.79-10.9-69.98-17.58-103.43-30.39
		c-24.11-9.23-36.58-25.21-66-25.83c-32.19-0.68-45.37,13.84-73.92,21.89c-9.67,2.73-28.76,4.74-38.56,7.55
		c-30.58,8.77-76.33,52.69-109.64,58.19c-27.31,4.51-83.95-5.41-120.59-14.97c-17.6-4.59-90.27,37.83-107.94,42.28
		c-40.35,10.17-93.66-23.37-106.62-23.58c-12.18-0.19-42.84,17.75-69.02,18.51c-9.63,0.28-53.58-20.08-62.93-18.16
		c-84.96,17.37-51.48,14.6-122.15,13.06c-29.31-0.64-60.17,10.73-89.27,5.21c-11.92-2.25-30.57-0.67-42.4-3.38
		c-31.41-7.18-62.8-20.45-94.45-25.7c-30.92-5.14-72.52-22.75-96.78-22.91c-16.79-0.11-117.1,33.75-138.25,33.72
		c-16.51-0.03-99.2-32.68-154.42-22.47c-21.98,4.06-44.14,7.5-66.45,9.76c-7.83,0.79-15.68,1.51-23.54,2.04v404.96h1919.33v-399.3
		c-14.03-2.24-28.07-4.43-42.08-6.76C1870.34,670.4,1862.52,667.19,1855.53,669.65z"/>
	<linearGradient id="SVGID_5_" gradientUnits="userSpaceOnUse" x1="961.0876" y1="1026.3186" x2="956.4673" y2="635.8979">
		<stop  offset="0.1382" style="stop-color:#1AB24E;stop-opacity:0.8"/>
		<stop  offset="1" style="stop-color:#00541C"/>
	</linearGradient>
	<path class="st4" d="M1909.95,819.08c-5.97-0.91-11.76-2.44-17.87-2.67c-4.5-0.17-9.13-0.04-13.63-0.04
		c-78.98,0-152.99-9.99-231.98-9.99l-62.07-3.82c-7.75,0-12.93,1.61-20.66,1.27c-0.01,0-12.71,3.82-12.73,3.82
		c-82.97-3.65-157.47,11.45-240.55,11.45c-45.11,0-96.46-14.98-140.6-23c-0.01,0-0.02,0-0.02,0c-26.57-4.82-52.4-12.03-78.97-16.84
		c-22.3-4.04-46.03-2.37-68.5-6.66c-19.21-3.67-35.67-12.83-54.26-17.02c-19.16-4.32-64.26,26.62-84.03,26.62
		c-53.57,0-154.36-41.07-187.54-40.43c-29.15,0.56-90.49-25.94-102.93-25.1c-18.6,1.26-62.64,17.76-109.72,28.34
		c-50.65,11.39-112.22-28.32-172.35-18.96c-112.91,17.58-198.26,40.1-311.04,40.19v310.48h1919.33V820.59
		C1916.56,820.25,1913.35,819.59,1909.95,819.08z"/>
</g>
</svg>
