<?xml version="1.0" encoding="utf-8"?>
<!-- Generator: Adobe Illustrator 25.1.0, SVG Export Plug-In . SVG Version: 6.00 Build 0)  -->
<svg version="1.1" id="Layer_1" xmlns="http://www.w3.org/2000/svg" xmlns:xlink="http://www.w3.org/1999/xlink" x="0px" y="0px"
	 viewBox="0 0 1920 1080" style="enable-background:new 0 0 1920 1080;" xml:space="preserve">
<style type="text/css">
	.st0{fill:#0D85BB;}
	.st1{fill:#0098D7;}
</style>
<g>
	<path class="st0" d="M0.27,1080l0-942.59c96.9-32.83,194.98-96.45,282.59-98.27c117.73-2.46,216.55,16.4,268.17,38.54
		c94.35,40.48,120.05,90.64,226.71,107.31c13.83,2.16,27.19,3.47,40.08,4.13c70.17,3.56,86.56-12.41,131.65-17.23
		c33.59-3.59,60.91-1,82.95,20.48c32.98,32.14,37.52,90.31,26.93,129.36c-20.92,77.19-65.99,98.19-96.56,185.55
		c-4,11.43-12.76,37.35-9.37,70.89c2.34,23.18,9.62,41.45,15.39,53.17c0,0,0.88,1.52,1.86,2.95
		c29.09,42.76,108.74,65.82,108.74,65.82c72.98,21.13,142.8,41.34,164.82,90.2c6.27,13.91,23.35,55.3,2.49,129.57
		c-37.21,132.54,673.25,160.13,673.25,160.13H0.27z"/>
	<path class="st1" d="M0.27,1080l0-942.59C60.52,110.4,174.92,39.32,296.8,38.95c79.78-0.24,147.07,10.9,234.71,58.54
		c74.98,40.76,110.64,94.04,205.01,108.92c43.61,6.88,81.3,4.03,81.3,4.03c72.92-3.45,88.96-23.37,131.65-16.82
		c15.65,2.4,29.5,8.36,41.73,19.99c32.98,31.37,37.52,88.15,26.93,126.26c-20.92,75.34-65.99,95.84-96.56,181.11
		c-4,11.16-12.76,36.45-9.37,69.2c2.34,22.63,9.62,40.46,15.39,51.9c0,0,0.88,1.49,1.86,2.88c29.09,41.74,108.74,64.25,108.74,64.25
		c72.98,20.62,142.8,40.35,164.82,88.04c6.27,13.58,23.35,53.97,2.49,126.47c-37.21,129.36,549.67,156.29,549.67,156.29H0.27z"/>
</g>
</svg>
