<svg id="Layer_1" data-name="Layer 1" xmlns="http://www.w3.org/2000/svg" viewBox="0 0 876.93 441.65"><defs><style>.cls-1{fill:#eaf3fa;}</style></defs><path class="cls-1" d="M856.4,277.9h0v0A99.88,99.88,0,0,0,849.91,267c-.11-.16-.22-.33-.34-.49a100.67,100.67,0,0,0-7.7-9.76l-.42-.45c-1.28-1.42-2.6-2.79-4-4.13l-.39-.39a101.57,101.57,0,0,0-9.25-8l-.85-.64c-1.55-1.16-3.13-2.28-4.75-3.34l-.15-.11c-1.7-1.11-3.43-2.16-5.19-3.17l-1-.53c-1.46-.81-2.93-1.59-4.44-2.33-.38-.18-.75-.38-1.14-.56-1.8-.86-3.63-1.68-5.5-2.44l-.27-.1c-1.74-.7-3.5-1.34-5.28-1.94-.5-.17-1-.33-1.49-.48-1.57-.51-3.16-1-4.76-1.4l-1.09-.3c-1.93-.48-3.87-.91-5.84-1.29l-1.38-.23q-2.35-.42-4.74-.72l-1.7-.2c-2-.23-4.06-.41-6.11-.51q-1-2.16-2.15-4.29c-.26-.51-.55-1-.82-1.51-.48-.9-1-1.81-1.46-2.69-.41-.72-.83-1.42-1.25-2.13s-.77-1.33-1.17-2c-.5-.82-1-1.61-1.53-2.41-.34-.54-.68-1.09-1-1.62-.54-.82-1.11-1.63-1.67-2.44-.34-.49-.67-1-1-1.48-.61-.87-1.24-1.71-1.87-2.56-.32-.42-.62-.85-.94-1.27-.68-.9-1.39-1.78-2.09-2.66-.29-.35-.56-.71-.85-1.06-.76-.94-1.55-1.86-2.34-2.77l-.71-.85c-.84-1-1.7-1.9-2.56-2.83-.21-.23-.41-.46-.62-.68-.9-1-1.82-1.9-2.74-2.83-.19-.19-.37-.39-.56-.57-1-1-2-2-3-2.91-.13-.13-.25-.26-.39-.38-1-1-2.11-1.93-3.18-2.87l-.33-.3c-1.13-1-2.27-2-3.43-2.89l-.19-.16c-1.19-1-2.39-1.92-3.62-2.85l-.1-.08q-1.86-1.41-3.76-2.76l-.06,0a139.06,139.06,0,0,0-77.4-25.57h0l-.82,0a208.93,208.93,0,0,0-110.75-119h0l0,0q-4.61-2.05-9.34-3.89l-.87-.34a202.08,202.08,0,0,0-19.72-6.48l-1.09-.29c-2.9-.78-5.81-1.49-8.75-2.14l-1.86-.41c-6.57-1.39-13.26-2.48-20-3.23-.83-.1-1.67-.17-2.51-.25-2.57-.26-5.16-.46-7.76-.63-.95,0-1.89-.12-2.84-.16-3.38-.17-6.77-.28-10.18-.28A208.29,208.29,0,0,0,259.13,138.46,142.95,142.95,0,0,0,106.81,242.63c-1.7-.09-3.41-.15-5.13-.15-1.92,0-3.81.08-5.69.2l-1.62.12c-1.43.11-2.86.26-4.28.44l-1.45.19c-1.84.26-3.66.57-5.45.95l-.75.17q-2.35.51-4.65,1.14-.74.19-1.47.42c-1.44.42-2.88.87-4.29,1.36-.32.12-.65.22-1,.33-1.73.62-3.43,1.3-5.11,2-.29.12-.57.26-.86.39q-2.12.93-4.17,2l-1.14.58c-1.55.81-3.09,1.66-4.59,2.56l-.13.08c-1.61,1-3.17,2-4.71,3l-.72.51c-1.3.92-2.59,1.87-3.84,2.86l-.73.57a92,92,0,0,0-8.26,7.52l-.52.55q-1.78,1.86-3.46,3.83l-.31.35a91.85,91.85,0,0,0-6.77,9.14l-.38.6c-1,1.56-2,3.15-2.86,4.78h0A90.46,90.46,0,0,0,164,398.53a142.75,142.75,0,0,0,173.76-9.75A208.35,208.35,0,0,0,560,393.69,139.66,139.66,0,0,0,712.2,406.82,100,100,0,0,0,856.4,277.9Z"/></svg>