<?xml version="1.0" encoding="utf-8"?>
<!-- Generator: Adobe Illustrator 25.1.0, SVG Export Plug-In . SVG Version: 6.00 Build 0)  -->
<svg version="1.1" id="Layer_1" xmlns="http://www.w3.org/2000/svg" xmlns:xlink="http://www.w3.org/1999/xlink" x="0px" y="0px"
	 viewBox="0 0 1920 1080" style="enable-background:new 0 0 1920 1080;" xml:space="preserve">
<style type="text/css">
	.st0{fill:#EAF3FA;}
</style>
<path class="st0" d="M1452.05,603.19C1452.05,603.19,1452.05,603.19,1452.05,603.19c0,0,0-0.01-0.01-0.01
	c-1.93-3.77-4.1-7.4-6.48-10.87c-0.11-0.17-0.23-0.33-0.34-0.5c-2.37-3.41-4.94-6.67-7.7-9.75c-0.14-0.15-0.28-0.3-0.42-0.46
	c-1.28-1.41-2.6-2.79-3.96-4.13c-0.13-0.13-0.26-0.26-0.38-0.38c-2.92-2.84-6.01-5.5-9.25-7.97c-0.28-0.22-0.57-0.43-0.85-0.64
	c-1.55-1.15-3.13-2.27-4.74-3.34c-0.05-0.03-0.1-0.07-0.16-0.11c-1.69-1.11-3.43-2.16-5.19-3.17c-0.32-0.18-0.64-0.35-0.95-0.53
	c-1.46-0.81-2.94-1.59-4.44-2.33c-0.38-0.19-0.76-0.38-1.14-0.56c-1.81-0.86-3.64-1.68-5.5-2.44c-0.09-0.04-0.18-0.07-0.27-0.1
	c-1.74-0.7-3.5-1.34-5.28-1.94c-0.49-0.17-0.99-0.33-1.49-0.49c-1.57-0.5-3.15-0.97-4.75-1.39c-0.37-0.1-0.73-0.21-1.09-0.3
	c-1.93-0.49-3.87-0.92-5.84-1.29c-0.46-0.09-0.92-0.16-1.37-0.24c-1.57-0.28-3.15-0.51-4.75-0.72c-0.57-0.07-1.13-0.14-1.7-0.21
	c-2.02-0.22-4.06-0.4-6.12-0.5c-0.69-1.44-1.41-2.88-2.14-4.29c-0.27-0.51-0.55-1.01-0.82-1.52c-0.48-0.9-0.96-1.8-1.46-2.69
	c-0.4-0.71-0.83-1.41-1.25-2.12c-0.39-0.66-0.77-1.33-1.17-1.99c-0.5-0.81-1.02-1.61-1.53-2.41c-0.34-0.54-0.68-1.08-1.03-1.61
	c-0.54-0.82-1.11-1.63-1.67-2.44c-0.34-0.49-0.67-1-1.02-1.49c-0.61-0.86-1.25-1.71-1.88-2.56c-0.31-0.42-0.62-0.85-0.93-1.27
	c-0.68-0.9-1.39-1.78-2.09-2.66c-0.28-0.35-0.56-0.72-0.84-1.07c-0.76-0.94-1.55-1.85-2.34-2.77c-0.24-0.28-0.47-0.57-0.72-0.85
	c-0.84-0.96-1.7-1.9-2.56-2.83c-0.21-0.23-0.41-0.46-0.62-0.68c-0.9-0.96-1.82-1.9-2.74-2.83c-0.19-0.19-0.37-0.38-0.56-0.57
	c-0.99-0.99-2-1.95-3.01-2.91c-0.13-0.12-0.26-0.25-0.39-0.37c-1.05-0.98-2.11-1.93-3.19-2.88c-0.11-0.1-0.22-0.2-0.33-0.3
	c-1.13-0.98-2.27-1.95-3.43-2.89c-0.06-0.05-0.12-0.1-0.18-0.16c-1.19-0.97-2.4-1.92-3.62-2.85c-0.03-0.03-0.07-0.05-0.1-0.08
	c-1.24-0.94-2.49-1.86-3.76-2.76c-0.02-0.01-0.04-0.03-0.06-0.05c-21.96-15.55-48.6-24.9-77.4-25.56c-0.01,0-0.02,0-0.03,0
	c0,0,0,0,0,0c-0.28-0.01-0.55-0.02-0.83-0.03c-19.28-53.07-59.54-96.06-110.75-118.99c0,0,0,0,0,0c-0.02-0.01-0.03-0.01-0.05-0.02
	c-3.07-1.38-6.19-2.67-9.34-3.9c-0.29-0.11-0.58-0.23-0.87-0.34c-6.43-2.47-13-4.65-19.72-6.48c-0.36-0.1-0.73-0.19-1.1-0.29
	c-2.89-0.77-5.81-1.48-8.75-2.13c-0.62-0.14-1.23-0.28-1.85-0.41c-6.58-1.39-13.26-2.48-20.05-3.24c-0.84-0.09-1.68-0.17-2.52-0.25
	c-2.57-0.25-5.16-0.46-7.76-0.62c-0.95-0.06-1.89-0.12-2.84-0.17c-3.37-0.16-6.76-0.27-10.18-0.27
	c-87.9,0-163.07,54.47-193.62,131.49c-4.8-0.49-9.67-0.74-14.6-0.74c-65.75,0-121.09,44.44-137.72,104.91
	c-1.7-0.09-3.41-0.15-5.13-0.15c-1.91,0-3.81,0.08-5.69,0.2c-0.54,0.03-1.08,0.08-1.61,0.12c-1.44,0.12-2.86,0.26-4.28,0.44
	c-0.48,0.06-0.97,0.11-1.45,0.18c-1.84,0.27-3.66,0.58-5.45,0.95c-0.25,0.05-0.5,0.12-0.75,0.17c-1.57,0.34-3.12,0.72-4.65,1.14
	c-0.49,0.13-0.98,0.27-1.47,0.42c-1.45,0.42-2.88,0.88-4.29,1.37c-0.32,0.11-0.65,0.21-0.96,0.33c-1.73,0.62-3.44,1.3-5.12,2.02
	c-0.29,0.12-0.57,0.26-0.86,0.39c-1.41,0.62-2.8,1.28-4.17,1.98c-0.38,0.19-0.76,0.39-1.14,0.58c-1.55,0.81-3.09,1.66-4.59,2.56
	c-0.04,0.03-0.09,0.05-0.13,0.08c-1.61,0.97-3.18,1.99-4.72,3.06c-0.24,0.17-0.47,0.34-0.71,0.51c-1.31,0.92-2.59,1.88-3.84,2.87
	c-0.24,0.19-0.49,0.38-0.73,0.57c-2.91,2.34-5.67,4.85-8.26,7.52c-0.17,0.18-0.35,0.36-0.52,0.54c-1.19,1.24-2.34,2.52-3.46,3.83
	c-0.1,0.12-0.21,0.24-0.31,0.36c-2.44,2.9-4.7,5.95-6.77,9.14c-0.13,0.2-0.25,0.4-0.38,0.6c-1,1.56-1.96,3.15-2.86,4.78
	c0,0-0.01,0.01-0.01,0.01c0,0,0,0,0,0c-7.19,12.97-11.29,27.89-11.29,43.77c0,49.97,40.51,90.47,90.47,90.47
	c24.14,0,46.06-9.48,62.29-24.89c22.94,15.7,50.67,24.89,80.56,24.89c35.63,0,68.18-13.07,93.2-34.64
	c32.96,21.88,72.5,34.64,115.02,34.64c39.24,0,75.94-10.86,107.27-29.73c23.73,18.61,53.61,29.73,86.1,29.73
	c23.91,0,46.41-6.02,66.08-16.6c15.81,10.48,34.77,16.6,55.17,16.6c55.22,0,99.99-44.77,99.99-99.99
	C1463.01,632.31,1459.05,616.84,1452.05,603.19z"/>
</svg>
