<?xml version="1.0" encoding="utf-8"?>
<!-- Generator: Adobe Illustrator 25.1.0, SVG Export Plug-In . SVG Version: 6.00 Build 0)  -->
<svg version="1.1" id="Layer_1" xmlns="http://www.w3.org/2000/svg" xmlns:xlink="http://www.w3.org/1999/xlink" x="0px" y="0px"
	 viewBox="0 0 1249.11 614.74" style="enable-background:new 0 0 1249.11 614.74;" xml:space="preserve">
<style type="text/css">
	.st0{fill:#EAF3FA;}
</style>
<path class="st0" d="M1233.12,398.86C1233.12,398.86,1233.12,398.86,1233.12,398.86c0,0,0-0.01-0.01-0.01
	c-2.82-5.5-5.99-10.79-9.46-15.86c-0.16-0.24-0.33-0.48-0.5-0.72c-3.45-4.98-7.2-9.73-11.23-14.23c-0.2-0.22-0.41-0.44-0.61-0.67
	c-1.87-2.06-3.79-4.07-5.78-6.02c-0.19-0.19-0.37-0.38-0.56-0.56c-4.25-4.14-8.76-8.02-13.5-11.62c-0.41-0.31-0.83-0.63-1.24-0.94
	c-2.26-1.68-4.56-3.32-6.92-4.87c-0.08-0.05-0.15-0.11-0.23-0.16c-2.47-1.62-5-3.16-7.57-4.63c-0.46-0.26-0.93-0.51-1.39-0.77
	c-2.13-1.19-4.29-2.32-6.48-3.4c-0.55-0.27-1.11-0.55-1.66-0.82c-2.64-1.26-5.3-2.46-8.02-3.56c-0.13-0.05-0.27-0.1-0.4-0.15
	c-2.53-1.02-5.11-1.95-7.71-2.82c-0.72-0.24-1.45-0.48-2.18-0.71c-2.29-0.73-4.6-1.41-6.93-2.03c-0.53-0.14-1.06-0.3-1.6-0.44
	c-2.81-0.71-5.65-1.34-8.52-1.88c-0.66-0.13-1.34-0.23-2.01-0.34c-2.29-0.4-4.6-0.75-6.92-1.04c-0.82-0.1-1.65-0.21-2.48-0.3
	c-2.95-0.32-5.92-0.59-8.92-0.73c-1.01-2.11-2.05-4.2-3.13-6.26c-0.39-0.75-0.8-1.47-1.2-2.21c-0.7-1.31-1.4-2.63-2.13-3.92
	c-0.59-1.04-1.21-2.06-1.82-3.09c-0.57-0.97-1.12-1.94-1.71-2.9c-0.72-1.19-1.48-2.35-2.23-3.52c-0.5-0.78-0.99-1.58-1.5-2.36
	c-0.79-1.2-1.62-2.38-2.43-3.56c-0.5-0.72-0.98-1.46-1.49-2.17c-0.89-1.26-1.82-2.49-2.74-3.73c-0.46-0.62-0.9-1.24-1.36-1.85
	c-1-1.31-2.03-2.59-3.06-3.88c-0.41-0.52-0.81-1.05-1.23-1.56c-1.12-1.37-2.26-2.7-3.41-4.04c-0.35-0.41-0.69-0.83-1.05-1.24
	c-1.22-1.4-2.48-2.77-3.74-4.13c-0.3-0.33-0.6-0.67-0.9-0.99c-1.31-1.4-2.65-2.77-4-4.13c-0.27-0.28-0.54-0.56-0.81-0.83
	c-1.44-1.44-2.91-2.85-4.39-4.24c-0.19-0.18-0.37-0.37-0.57-0.54c-1.53-1.42-3.08-2.82-4.65-4.2c-0.16-0.14-0.32-0.29-0.48-0.43
	c-1.64-1.43-3.32-2.84-5.01-4.22c-0.09-0.07-0.18-0.15-0.27-0.23c-1.74-1.41-3.5-2.8-5.28-4.16c-0.05-0.04-0.1-0.08-0.15-0.12
	c-1.81-1.37-3.64-2.71-5.49-4.03c-0.03-0.02-0.06-0.04-0.09-0.07c-32.03-22.68-70.91-36.33-112.92-37.3c-0.02,0-0.03,0-0.05,0
	c0,0,0,0,0,0c-0.4-0.01-0.8-0.04-1.2-0.04c-28.14-77.43-86.87-140.15-161.57-173.61c0,0,0,0,0.01,0c-0.02-0.01-0.04-0.02-0.07-0.03
	c-4.48-2.01-9.03-3.89-13.63-5.69c-0.42-0.16-0.84-0.33-1.27-0.49c-9.38-3.61-18.97-6.78-28.77-9.46c-0.53-0.15-1.07-0.28-1.6-0.42
	c-4.22-1.13-8.47-2.16-12.76-3.11c-0.9-0.2-1.8-0.4-2.71-0.6c-9.59-2.03-19.35-3.62-29.25-4.72c-1.22-0.14-2.45-0.24-3.67-0.36
	c-3.75-0.37-7.53-0.68-11.32-0.91c-1.38-0.09-2.76-0.18-4.15-0.25c-4.92-0.24-9.87-0.4-14.85-0.4
	c-128.24,0-237.92,79.46-282.49,191.84c-7-0.71-14.11-1.08-21.3-1.08c-95.93,0-176.67,64.84-200.92,153.06
	c-2.48-0.14-4.97-0.22-7.49-0.22c-2.79,0-5.55,0.12-8.3,0.29c-0.79,0.05-1.57,0.12-2.35,0.18c-2.1,0.17-4.18,0.38-6.25,0.65
	c-0.71,0.09-1.41,0.17-2.12,0.27c-2.68,0.39-5.33,0.84-7.96,1.38c-0.37,0.08-0.73,0.17-1.09,0.25c-2.28,0.49-4.55,1.05-6.78,1.67
	c-0.72,0.2-1.43,0.4-2.14,0.61c-2.11,0.62-4.2,1.28-6.26,2c-0.47,0.16-0.94,0.31-1.41,0.48c-2.53,0.91-5.01,1.89-7.47,2.95
	c-0.42,0.18-0.83,0.38-1.25,0.57c-2.06,0.91-4.08,1.87-6.08,2.88c-0.56,0.28-1.11,0.56-1.66,0.85c-2.27,1.19-4.5,2.42-6.69,3.74
	c-0.06,0.04-0.13,0.07-0.19,0.11c-2.35,1.41-4.63,2.91-6.88,4.46c-0.35,0.24-0.69,0.49-1.04,0.74c-1.91,1.34-3.78,2.74-5.61,4.18
	c-0.35,0.28-0.71,0.55-1.06,0.83c-4.24,3.41-8.27,7.07-12.05,10.97c-0.26,0.26-0.5,0.53-0.76,0.79c-1.73,1.81-3.42,3.67-5.05,5.59
	c-0.15,0.17-0.3,0.34-0.45,0.52c-3.56,4.23-6.86,8.68-9.88,13.33c-0.19,0.29-0.37,0.58-0.56,0.87c-1.46,2.28-2.85,4.6-4.17,6.98
	c0,0.01-0.01,0.01-0.01,0.02c0,0,0,0,0,0C5.99,434.24,0,456,0,479.17c0,72.9,59.1,132,132,132c35.23,0,67.2-13.83,90.87-36.31
	c33.46,22.9,73.93,36.31,117.54,36.31c51.98,0,99.47-19.07,135.98-50.54c48.08,31.93,105.77,50.54,167.82,50.54
	c57.25,0,110.79-15.84,156.5-43.37c34.62,27.15,78.21,43.37,125.62,43.37c34.88,0,67.71-8.78,96.42-24.22
	c23.07,15.3,50.73,24.22,80.49,24.22c80.57,0,145.89-65.32,145.89-145.89C1249.11,441.35,1243.33,418.78,1233.12,398.86z"/>
</svg>
