<?xml version="1.0" encoding="utf-8"?>
<!-- Generator: Adobe Illustrator 25.1.0, SVG Export Plug-In . SVG Version: 6.00 Build 0)  -->
<svg version="1.1" id="Layer_1" xmlns="http://www.w3.org/2000/svg" xmlns:xlink="http://www.w3.org/1999/xlink" x="0px" y="0px"
	 viewBox="0 0 969.11 580.38" style="enable-background:new 0 0 969.11 580.38;" xml:space="preserve">
<style type="text/css">
	.st0{fill:#EAF3FA;}
</style>
<path class="st0" d="M858.62,326.64c-2.84,0-5.64,0.14-8.42,0.36c0.01-0.87,0.04-1.74,0.04-2.61c0-84.43-62.8-154.18-144.24-165.12
	c0.02-0.5,0.08-0.99,0.08-1.5c0-19.09-15.48-34.57-34.57-34.57c-4.76,0-9.29,0.96-13.42,2.7C619.63,51.14,541.73,0,451.88,0
	c-106.2,0-195.71,71.44-223.1,168.89c-8.43-2.62-17.4-4.03-26.69-4.03c-49.66,0-89.92,40.26-89.92,89.92
	c0,15.16,3.77,29.43,10.39,41.96C55.99,298.3,2.5,352.7,2.5,419.63c0,23.03,6.35,44.58,17.37,63.01c0.02,0.03,0.04,0.07,0.06,0.1
	c18.95,31.63,51.72,54.01,89.97,58.85c65.9,23.87,159.68,38.79,263.78,38.79c102.61,0,195.23-14.5,260.96-37.78
	c114.49,0,207.27,0,223.99,0c59.64,0,107.98-48.34,107.98-107.98S918.26,326.64,858.62,326.64z"/>
</svg>
