<?xml version="1.0" encoding="utf-8"?>
<!-- Generator: Adobe Illustrator 25.1.0, SVG Export Plug-In . SVG Version: 6.00 Build 0)  -->
<svg version="1.1" id="Layer_1" xmlns="http://www.w3.org/2000/svg" xmlns:xlink="http://www.w3.org/1999/xlink" x="0px" y="0px"
	 viewBox="0 0 1369.76 614.74" style="enable-background:new 0 0 1369.76 614.74;" xml:space="preserve">
<style type="text/css">
	.st0{fill:#FFC253;}
	.st1{fill:#E09736;}
	.st2{fill:#FFC854;}
	.st3{fill:#40C7A7;}
	.st4{fill:none;stroke:#0098D7;stroke-miterlimit:10;}
	.st5{fill:#2F8DCC;}
	.st6{fill:#0098D7;}
	.st7{fill:#22A482;}
	.st8{fill:#91DBAC;}
	.st9{fill:#3DC19A;}
</style>
<g>
	<g>
		<g id="XMLID_1771_">
			<rect id="XMLID_1769_" x="713.2" y="228.02" class="st0" width="564.43" height="381.76"/>
			<path id="XMLID_1073_" class="st1" d="M713.2,228.02l264.92,241.71c9.8,8.94,24.79,8.94,34.58,0l264.92-241.71H713.2z"/>
			<polygon id="XMLID_1800_" class="st1" points="1277.63,609.78 995.41,315.24 1277.63,584.7 			"/>
			<polygon id="XMLID_1806_" class="st1" points="713.2,609.78 995.41,315.24 713.2,584.7 			"/>
			<path id="XMLID_1773_" class="st2" d="M713.2,228.02l260.86,220.39c12.33,10.42,30.38,10.42,42.71,0l260.86-220.39H713.2z"/>
		</g>
		<g id="XMLID_1766_">
			<path id="XMLID_1762_" class="st3" d="M1232.52,609.78c0,0-17.86-8.07-16.55-27.24c1.31-19.17,14.38-23.09,25.7-30.06
				c11.33-6.97,12.2-18.73,12.63-33.11c0.44-14.38,10.02-28.75,29.19-27.88s26.25,4.79,40.13-11.76s32.62-16.12,40.46-6.97
				c7.84,9.15,8.35,24.88-3.55,35.74c-14.47,13.2-18.21,16.53-22.39,31.05c-5.67,19.71,2.51,38.91-4.78,48.07
				c-9.74,12.24-20.25,9.23-30.27,13.21c-10.02,3.98-10.38,8.94-10.38,8.94H1232.52z"/>
			<path id="XMLID_1767_" class="st4" d="M1346.8,485.52c-29.31,17.1-80.32,69.08-88.98,124.27"/>
		</g>
		<g>
			<path id="XMLID_13_" class="st5" d="M392.16,549.81"/>
			<path id="XMLID_11_" class="st6" d="M652.39,168.39l21,16.83l13.69,10.97c19.11,15.31,24.26,42.24,12.16,63.52L588.1,434.36
				c-14.16,19.98-40.73,26.71-62.69,15.88l-31.29-15.42l-5.27-2.6l-3.33-1.64l-81.27,145.95c25.03,13.26,69.56,31.7,118.19,27.74
				c74.42-6.06,122.87-75.26,204.82-204.03c81.96-128.78,124.13-201.97,98.11-271.95c-12.6-33.89-35.4-60.54-55.56-79
				c-9.5-8.7-18.02-17.92-25.01-22.9"/>
			<path id="XMLID_3344_" class="st6" d="M646.7,166.13l-29.21-23.41c-6.59-5.28-8.14-14.67-3.61-21.79l38.11-59.88l34.43-53.96
				c5.23-7.49,15.57-9.4,23.09-4.05c7.4,5.27,19.67,11.15,29.8,20.59L646.7,166.13z"/>
			<path id="XMLID_3349_" class="st6" d="M400.19,571.97c-12.84-5.18-33.22-13.33-41.13-17.8c-8-4.53-10.65-14.64-6.16-22.54
				l74.07-116.09c4.87-5.48,12.89-7.21,19.65-3.87l33.91,16.71L400.19,571.97z"/>
		</g>
		<g id="XMLID_2114_">
			<path id="XMLID_2113_" class="st3" d="M386.39,609.78c0,0,8.7-11.72,3.46-28.57c-6.77-21.78-26.98-31.84-19.69-46.1
				c6.06-11.86,24.18-5.86,33.79,10.13c9.23,15.35,9.94,47.72-4.64,64.54H386.39z"/>
			<path id="XMLID_2115_" class="st4" d="M384.4,541.33c0,0,27.83,30.1,9.61,68.45"/>
		</g>
		<g id="XMLID_2116_">
			<path id="XMLID_2110_" class="st7" d="M407,609.78c0,0,21.02-12.83,32.53-39.36c11.51-26.52,12.01-57.55,0-68.56
				c-11.22-10.28-24.52-4-28.02,14.01c-3.5,18.02,4.5,63.7-19.02,93.9H407z"/>
			<path id="XMLID_2112_" class="st4" d="M429.02,506.87c0,0,3.5,27.16-4.5,56.12c-8.01,28.95-23.02,46.79-23.02,46.79"/>
		</g>
		<g id="XMLID_1587_">
			<path id="XMLID_1526_" class="st8" d="M702.91,609.78c0,0,0.47-37.08-28.95-71.63c-29.42-34.55-63.06-46.92-92.13-36.44
				c-21.64,7.8-16.08,32.86,1.61,43.53c20.94,12.63,99.38,17.75,102.18,64.54H702.91z"/>
			<path id="XMLID_1552_" class="st4" d="M584.95,518.46c39.97-2.27,101.15,34.55,109.55,91.32"/>
		</g>
		<g id="XMLID_1535_">
			<path id="XMLID_1566_" class="st9" d="M712.04,609.78c0,0,19.35-20.63,15.62-60.38c-3.74-39.75-38.69-49.61-44.97-30.39
				c-4.94,15.12,29.1,50.32,16.96,90.77H712.04z"/>
			<path id="XMLID_1568_" class="st4" d="M699.64,521.81c7.5,9.71,21.92,49.43,7.21,87.97"/>
		</g>
		<path id="XMLID_2128_" class="st6" d="M1318.61,614.74H5.02c-2.77,0-5.02-2.22-5.02-4.96l0,0c0-2.74,2.25-4.96,5.02-4.96h1313.6
			c2.77,0,5.02,2.22,5.02,4.96l0,0C1323.63,612.52,1321.38,614.74,1318.61,614.74z"/>
	</g>
</g>
</svg>
