<?xml version="1.0" encoding="utf-8"?>
<!-- Generator: Adobe Illustrator 25.1.0, SVG Export Plug-In . SVG Version: 6.00 Build 0)  -->
<svg version="1.1" id="Layer_1" xmlns="http://www.w3.org/2000/svg" xmlns:xlink="http://www.w3.org/1999/xlink" x="0px" y="0px"
	 viewBox="0 0 1401.83 777.37" style="enable-background:new 0 0 1401.83 777.37;" xml:space="preserve">
<style type="text/css">
	.st0{fill:#ACD1E5;}
	.st1{fill:#939599;}
	.st2{fill:#7B7F84;}
	.st3{fill:#B2B4B7;}
	.st4{fill:#8A8E93;}
	.st5{fill:#7D8389;}
	.st6{fill:#CCCDCE;}
	.st7{fill:#D8D8D8;}
	.st8{fill:#F4F4F4;}
	.st9{fill:#B1B1B2;}
	.st10{fill:#919396;}
	.st11{fill:#FFC253;}
	.st12{fill:#E09736;}
	.st13{fill:#FFC854;}
	.st14{fill:#2F8DCC;}
	.st15{fill:#0098D7;}
	.st16{fill:#74C779;}
	.st17{fill:none;stroke:#0098D7;stroke-miterlimit:10;}
	.st18{fill:#63C069;}
	.st19{fill:#97D59B;}
</style>
<g>
	<path class="st0" d="M1088.12,426.37c-0.19,0.35-0.38,0.69-0.57,1.04v-1.63h124.74C1170.91,425.97,1129.52,426.17,1088.12,426.37z"
		/>
	<polygon class="st1" points="1110.96,421.03 1106.99,416.03 1176.13,353.47 1180.09,358.47 	"/>
	<path class="st2" d="M1110.96,421.03c-0.53-0.5-1.06-1-1.59-1.5c23.16-20.68,46.32-41.35,69.48-62.03
		c0.42,0.32,0.83,0.65,1.25,0.97L1110.96,421.03z"/>
	<path class="st3" d="M1107.97,417.26c-0.33-0.41-0.65-0.82-0.98-1.23l69.13-62.56c0.47,0.59,0.93,1.18,1.4,1.77
		C1154.34,375.91,1131.16,396.59,1107.97,417.26z"/>
	<polygon class="st1" points="1180.17,360.3 1123.57,313.37 1127.33,308.19 1183.93,355.12 	"/>
	<path class="st3" d="M1182.58,356.61c-18.77-15.65-37.55-31.3-56.32-46.94c0.36-0.49,0.72-0.99,1.07-1.48l56.6,46.93
		C1183.48,355.62,1183.03,356.12,1182.58,356.61z"/>
	<path class="st2" d="M1180.17,360.3l-56.6-46.93c0.16-0.59,0.32-1.17,0.47-1.76c19.09,15.69,38.18,31.37,57.28,47.06
		C1180.94,359.21,1180.55,359.76,1180.17,360.3z"/>
	<rect x="1078.64" y="553.2" class="st4" width="140.06" height="38.73"/>
	<path class="st5" d="M1218.7,591.93h-140.06c44.76-1.67,89.52-3.33,134.28-5c1.93-11.24,3.85-22.48,5.78-33.73V591.93z"/>
	<polygon class="st1" points="1190.73,477.6 1108.66,419.54 1112.05,414.08 1194.11,472.14 	"/>
	<path class="st2" d="M1190.73,477.6l-82.06-58.06c0.39-0.33,0.78-0.65,1.18-0.98c27.37,19.25,54.73,38.5,82.1,57.75
		C1191.54,476.74,1191.13,477.17,1190.73,477.6z"/>
	<path class="st3" d="M1192.93,473.39c-27.32-19.35-54.64-38.71-81.97-58.06c0.36-0.42,0.72-0.83,1.08-1.25l82.06,58.06
		C1193.72,472.55,1193.32,472.97,1192.93,473.39z"/>
	<polygon class="st1" points="1099.8,549.39 1096.38,543.95 1192.46,474.93 1195.88,480.37 	"/>
	<path class="st2" d="M1099.8,549.39c-0.43-0.58-0.86-1.15-1.28-1.73c32.02-22.91,64.03-45.82,96.05-68.73
		c0.44,0.48,0.88,0.96,1.32,1.44L1099.8,549.39z"/>
	<path class="st3" d="M1097.39,545.41c-0.34-0.49-0.67-0.98-1.01-1.47l96.08-69.02c0.29,0.42,0.57,0.85,0.86,1.27
		C1161.34,499.27,1129.37,522.34,1097.39,545.41z"/>
	<rect x="1115.32" y="352.7" class="st1" width="66.73" height="6.56"/>
	<rect x="1115.32" y="352.7" class="st3" width="66.73" height="1.64"/>
	<rect x="1115.32" y="357.5" class="st2" width="66.73" height="1.75"/>
	<rect x="1110.36" y="413.53" class="st1" width="78.56" height="6.56"/>
	<rect x="1110.36" y="418.14" class="st2" width="78.56" height="1.95"/>
	<rect x="1110.36" y="413.53" class="st3" width="78.56" height="1.8"/>
	<rect x="1102.86" y="474.37" class="st1" width="91.7" height="6.56"/>
	<rect x="1102.86" y="478.93" class="st2" width="91.7" height="2"/>
	<rect x="1102.47" y="474.37" class="st3" width="91.7" height="1.83"/>
	<path class="st1" d="M1178.18,305.06h-58.93c-9.62,82.72-19.23,165.44-28.85,248.15h116.63
		C1197.41,470.49,1187.79,387.78,1178.18,305.06z M1125.45,310.78c15.51,0.25,31.01,0.51,46.52,0.77
		c8.52,78.48,17.06,156.94,25.58,235.42h-97.69C1108.39,468.24,1116.93,389.51,1125.45,310.78z"/>
	<path class="st2" d="M1178.18,305.06l28.85,248.15H1090.4c37.75-1.09,75.51-2.17,113.26-3.26
		C1195.17,468.32,1186.67,386.69,1178.18,305.06z"/>
	<path class="st6" d="M1178.18,305.06h-58.93L1090.4,553.2c10.74-81.9,21.48-163.8,32.22-245.71
		C1141.14,306.68,1159.66,305.87,1178.18,305.06z"/>
	
		<rect x="1058.66" y="328.64" transform="matrix(0.4843 -0.8749 0.8749 0.4843 190.6803 1141.402)" class="st7" width="9.68" height="160.64"/>
	<path class="st8" d="M1134.27,445.97c-47.25-26.27-94.51-52.54-141.76-78.81c1.02-0.44,2.04-0.89,3.06-1.33l140.55,77.79
		C1135.51,444.4,1134.89,445.19,1134.27,445.97z"/>
	<path class="st9" d="M1131.43,452.09L990.89,374.3c0.48-0.67,0.95-1.33,1.43-2c46.83,25.77,93.66,51.55,140.48,77.32
		C1132.34,450.45,1131.89,451.27,1131.43,452.09z"/>
	
		<rect x="1141.4" y="405.72" transform="matrix(0.8577 -0.5142 0.5142 0.8577 -37.4507 685.8087)" class="st7" width="157.55" height="9.68"/>
	<path class="st8" d="M1151.29,449.47c-0.39-0.86-0.78-1.72-1.17-2.57l135.14-80.99c0.47,0.42,0.94,0.83,1.4,1.25
		C1241.54,394.6,1196.41,422.03,1151.29,449.47z"/>
	<path class="st9" d="M1155.1,455.2c-0.82-0.75-1.64-1.5-2.47-2.25c45.47-27.21,90.95-54.42,136.42-81.63
		c0.39,0.97,0.78,1.93,1.18,2.9L1155.1,455.2z"/>
	<rect x="988.39" y="200.03" class="st7" width="9.68" height="170.04"/>
	<path class="st8" d="M988.39,370.07V200.03c3.23,15.88,6.46,31.77,9.68,47.65c-2.49,0.5-4.99,1.01-7.48,1.51
		C989.86,289.48,989.12,329.77,988.39,370.07z"/>
	<path class="st9" d="M998.07,370.07c-3.23-16.8-6.46-33.6-9.68-50.4c2.55-0.7,5.1-1.39,7.65-2.09
		c0.68-39.18,1.35-78.37,2.03-117.55V370.07z"/>
	<rect x="1282.9" y="200.03" class="st7" width="9.68" height="170.04"/>
	<path class="st8" d="M1285.65,251.35c-0.92,39.57-1.83,79.14-2.75,118.71V200.03c3.06,16.13,6.12,32.26,9.17,48.39
		C1289.93,249.4,1287.79,250.37,1285.65,251.35z"/>
	<path class="st9" d="M1292.59,370.07c-3.23-15.21-6.46-30.42-9.68-45.63c2.05-0.93,4.34-2.42,5.84-4.9
		c1.92-3.18,1.68-6.54,1.63-7.46c-0.34-6.45,0.68-50.73,2.22-112.05C1292.59,256.71,1292.59,313.39,1292.59,370.07z"/>
	
		<rect x="1209.27" y="72.5" transform="matrix(0.5 -0.866 0.866 0.5 470.6404 1130.2129)" class="st7" width="9.68" height="170.04"/>
	<path class="st9" d="M1285.32,204.22l-147.26-85.02c0.49-0.88,0.97-1.76,1.46-2.64c49.11,28.41,98.22,56.82,147.33,85.23
		C1286.35,202.6,1285.83,203.41,1285.32,204.22z"/>
	<path class="st8" d="M1288.78,197.89c-48.94-28.73-97.87-57.45-146.81-86.18c0.31-0.3,0.63-0.6,0.94-0.9l147.26,85.02
		C1289.7,196.52,1289.24,197.21,1288.78,197.89z"/>
	
		<rect x="981.84" y="152.68" transform="matrix(0.866 -0.5 0.5 0.866 64.1832 554.5595)" class="st7" width="170.04" height="9.68"/>
	<path class="st8" d="M992.2,196.69c-0.46-0.29-0.93-0.57-1.39-0.86l147.26-85.02c0.28,0.49,0.56,0.99,0.84,1.48
		C1090.01,140.43,1041.1,168.56,992.2,196.69z"/>
	<path class="st9" d="M1034.78,181.7c-1.09-8.92-0.54-11.65,0.45-11.95c1.38-0.41,3.07,3.99,6.9,4.36c2.29,0.22,4.12-1.1,4.9-1.64
		c4.53-3.13,24.07-14.83,51.29-31.02c0.06-0.27,0.39-1.98-0.68-3.33c-1.11-1.4-3.28-1.86-5.22-0.95c2.47-1.45,4.95-2.89,7.42-4.34
		c14.36-4.54,28.71-9.08,43.07-13.63C1106.87,140.04,1070.82,160.87,1034.78,181.7z"/>
	
		<rect x="1069.57" y="155.01" transform="matrix(0.4345 -0.9007 0.9007 0.4345 392.9093 1102.4631)" class="st7" width="9.68" height="166.64"/>
	<path class="st9" d="M1147.36,278.9l-150.09-72.41c0.27-0.57,0.54-1.14,0.81-1.72c50.06,24,100.12,48,150.19,72
		C1147.96,277.48,1147.66,278.19,1147.36,278.9z"/>
	<path class="st8" d="M1150.08,271.58c-50.05-23.94-100.1-47.88-150.15-71.83c0.52-0.66,1.03-1.32,1.55-1.99l150.09,72.41
		C1151.07,270.64,1150.57,271.11,1150.08,271.58z"/>
	
		<rect x="1141.9" y="117" transform="matrix(0.9994 -0.0346 0.0346 0.9994 -6.0808 39.7428)" class="st7" width="9.68" height="157.59"/>
	<path class="st9" d="M1143.27,228.15c2.37-0.5,4.74-1.01,7.11-1.51c-0.51-36.59-1.02-73.17-1.52-109.76l5.45,157.49
		C1150.62,258.96,1146.95,243.56,1143.27,228.15z"/>
	<path class="st8" d="M1144.62,274.7c-1.31-37.76-2.62-75.52-3.93-113.28c3.08-0.61,6.15-1.21,9.23-1.82
		c-1.53,1.66-3.5,4.23-4.77,7.77c-1.29,3.61-1.29,6.67-1.28,7.97c0.05,6.53,0.98,39.47,2.57,84.58
		C1145.84,264.85,1145.23,269.78,1144.62,274.7z"/>
	
		<rect x="1139.88" y="232.44" transform="matrix(0.876 -0.4824 0.4824 0.876 36.5176 616.5747)" class="st7" width="154.48" height="9.68"/>
	<path class="st8" d="M1240.06,221.7c-30.98,16.2-61.95,32.4-92.93,48.6l135.32-74.51l4.67,8.48
		c-14.16,7.38-28.33,14.76-42.49,22.14C1243.11,224.84,1241.58,223.27,1240.06,221.7z"/>
	<path class="st9" d="M1151.8,278.78c11.33-10.08,22.66-20.17,33.99-30.25c1.53,0.26,3.98,0.93,6.25,2.82
		c0.64,0.53,1.17,1.09,1.61,1.61c31.16-16.23,62.31-32.47,93.47-48.7L1151.8,278.78z"/>
	
		<rect x="1213.76" y="238.27" transform="matrix(0.5684 -0.8228 0.8228 0.5684 260.7945 1141.7371)" class="st7" width="9.68" height="168.07"/>
	<path class="st9" d="M1284.99,374.05l-138.28-95.53c0.16-0.75,0.32-1.51,0.47-2.26c46.32,31.79,92.63,63.58,138.95,95.38
		C1285.75,372.44,1285.37,373.24,1284.99,374.05z"/>
	<path class="st8" d="M1288.73,368.18c-46.22-32.2-92.43-64.4-138.65-96.6c0.71-0.34,1.42-0.68,2.14-1.03l138.28,95.53
		C1289.91,366.78,1289.32,367.48,1288.73,368.18z"/>
	
		<rect x="1065.21" y="351" transform="matrix(8.304174e-03 -1 1 8.304174e-03 781.8932 1500.0885)" class="st7" width="164.08" height="9.68"/>
	<path class="st8" d="M1145.21,325.8c-1.17,37.35-2.33,74.69-3.5,112.04l1.38-164.07c3.01,16.14,6.02,32.29,9.02,48.43
		C1149.82,323.39,1147.51,324.59,1145.21,325.8z"/>
	<path class="st9" d="M1151.4,437.91l-9.68-0.08c0.14-16.21,0.27-32.41,0.41-48.62c2.25-0.09,4.5-0.18,6.74-0.27
		c1.3-38.37,2.61-76.74,3.91-115.1L1151.4,437.91z"/>
	
		<rect x="979.48" y="317.09" transform="matrix(0.8491 -0.5283 0.5283 0.8491 -8.4824 614.1778)" class="st7" width="182.21" height="9.68"/>
	<path class="st8" d="M991.74,368.05c-0.35-0.7-0.71-1.4-1.06-2.09l154.7-96.26c0.4,0.56,0.8,1.12,1.21,1.68
		C1094.97,303.6,1043.35,335.82,991.74,368.05z"/>
	<path class="st9" d="M995.79,374.18l-5.12-8.22c13.93-8.74,27.86-17.49,41.78-26.23c1.68,1.88,3.36,3.77,5.04,5.65
		c37.66-22.49,75.33-44.97,112.99-67.46L995.79,374.18z"/>
	<path class="st6" d="M1189.18,116c0,5.33-0.88,10.45-2.52,15.22c-2.92,8.5-8.19,15.91-15.06,21.41
		c-8.04,6.46-18.27,10.34-29.39,10.34c-16.28,0-30.63-8.28-39.05-20.87c-2.65-3.95-4.71-8.3-6.06-12.98
		c-0.08-0.29-0.17-0.59-0.24-0.9c-1.04-3.9-1.61-8-1.61-12.23c0-25.94,21.03-46.97,46.97-46.97c0.48,0,0.96,0.01,1.43,0.02
		c2.88,0.08,5.69,0.42,8.41,1.02c2.82,0.61,5.54,1.45,8.15,2.54c15.8,6.54,27.25,21.46,28.79,39.23c0.08,0.81,0.13,1.63,0.16,2.46
		C1189.16,114.86,1189.18,115.43,1189.18,116z"/>
	<path class="st6" d="M1331.18,194.73c0.83,5.26,0.75,10.46-0.13,15.42c-1.56,8.85-5.63,16.99-11.55,23.49
		c-6.94,7.63-16.44,13.05-27.43,14.78c-16.08,2.53-31.54-3.42-41.82-14.55c-3.23-3.49-5.94-7.47-8.01-11.88
		c-0.13-0.27-0.26-0.56-0.38-0.85c-1.63-3.69-2.83-7.65-3.49-11.83c-4.03-25.63,13.48-49.66,39.11-53.69
		c0.48-0.08,0.95-0.14,1.41-0.2c2.86-0.36,5.69-0.46,8.47-0.3c2.88,0.16,5.7,0.57,8.44,1.25c16.62,4,30.25,16.97,34.53,34.29
		c0.21,0.79,0.39,1.59,0.54,2.4C1330.99,193.6,1331.09,194.16,1331.18,194.73z"/>
	<path class="st10" d="M1330.76,191.88c-0.13-0.55-0.27-1.11-0.41-1.64c-0.21-0.8-0.44-1.59-0.7-2.36c-0.95-2.97-2.2-5.78-3.67-8.42
		c1.23,5.64,1.51,11.26,0.94,16.7c-1.06,9.99-4.98,19.39-11.09,27.11c-7.16,9.05-17.35,15.82-29.48,18.6
		c-10.06,2.3-20.11,1.54-29.17-1.67c10.61,7.79,24.42,11.1,38.26,7.94c10.85-2.48,19.95-8.53,26.35-16.62
		c5.46-6.9,8.96-15.3,9.91-24.23C1332.23,202.26,1331.95,197.07,1330.76,191.88z"/>
	<path class="st10" d="M1188.6,108.69c-0.09-0.56-0.19-1.12-0.3-1.67c-0.15-0.81-0.33-1.62-0.54-2.4c-0.75-3.03-1.8-5.91-3.08-8.65
		c0.84,5.71,0.74,11.34-0.21,16.73c-1.75,9.9-6.29,19-12.92,26.28c-7.76,8.54-18.39,14.6-30.69,16.53
		c-10.2,1.6-20.17,0.15-28.99-3.67c10.05,8.5,23.6,12.75,37.62,10.54c10.99-1.73,20.49-7.14,27.43-14.78
		c5.93-6.51,9.99-14.64,11.55-23.49C1189.35,119.14,1189.42,113.95,1188.6,108.69z"/>
	<path class="st6" d="M1324.71,346.62c2.81,4.53,4.75,9.35,5.87,14.26c2,8.76,1.41,17.84-1.52,26.13
		c-3.43,9.73-10.08,18.41-19.54,24.27c-13.84,8.58-30.39,9.09-44.19,2.83c-4.33-1.96-8.38-4.58-11.99-7.84
		c-0.22-0.2-0.46-0.41-0.68-0.63c-2.94-2.76-5.58-5.95-7.81-9.54c-13.66-22.05-6.87-51,15.18-64.66c0.41-0.26,0.82-0.49,1.23-0.73
		c2.49-1.45,5.06-2.64,7.69-3.57c2.72-0.97,5.48-1.69,8.26-2.13c16.87-2.76,34.47,3.89,45.13,18.19c0.5,0.64,0.97,1.32,1.43,2.01
		C1324.1,345.66,1324.41,346.14,1324.71,346.62z"/>
	<path class="st6" d="M1188.3,418.92c2.15,4.87,3.41,9.92,3.83,14.94c0.76,8.95-1.08,17.86-5.14,25.67
		c-4.75,9.16-12.54,16.83-22.72,21.32c-14.9,6.57-31.36,4.78-44.15-3.34c-4.02-2.54-7.66-5.7-10.78-9.43
		c-0.19-0.23-0.39-0.47-0.58-0.72c-2.53-3.15-4.7-6.67-6.41-10.54c-10.46-23.74,0.29-51.46,24.03-61.92
		c0.44-0.2,0.88-0.37,1.32-0.55c2.67-1.08,5.38-1.91,8.11-2.46c2.82-0.58,5.66-0.91,8.48-0.96c17.09-0.39,33.59,8.65,42.17,24.29
		c0.4,0.71,0.78,1.44,1.14,2.18C1187.83,417.89,1188.07,418.4,1188.3,418.92z"/>
	<path class="st6" d="M1038.83,355.12c1.28,5.17,1.65,10.35,1.2,15.38c-0.79,8.95-4.14,17.41-9.48,24.4
		c-6.25,8.2-15.25,14.42-26.05,17.08c-15.81,3.9-31.72-0.69-42.92-10.89c-3.52-3.2-6.56-6.93-9-11.14
		c-0.15-0.26-0.31-0.54-0.45-0.81c-1.95-3.53-3.48-7.38-4.5-11.48c-6.22-25.18,9.15-50.64,34.33-56.86
		c0.47-0.12,0.93-0.22,1.39-0.32c2.82-0.61,5.62-0.95,8.41-1.03c2.88-0.09,5.73,0.08,8.52,0.51c16.9,2.56,31.6,14.3,37.35,31.18
		c0.28,0.77,0.52,1.55,0.74,2.35C1038.54,354.02,1038.69,354.57,1038.83,355.12z"/>
	<path class="st6" d="M1048.01,195.9c0.56,5.3,0.21,10.48-0.91,15.4c-2.01,8.76-6.49,16.68-12.73,22.87
		c-7.32,7.27-17.08,12.19-28.15,13.36c-16.19,1.7-31.32-5.03-41.02-16.67c-3.05-3.65-5.55-7.77-7.39-12.27
		c-0.11-0.28-0.23-0.57-0.33-0.87c-1.44-3.77-2.44-7.79-2.88-11.99c-2.71-25.8,16-48.91,41.79-51.62c0.48-0.05,0.95-0.09,1.42-0.13
		c2.87-0.22,5.7-0.17,8.47,0.13c2.87,0.31,5.67,0.86,8.37,1.68c16.39,4.85,29.34,18.49,32.73,36c0.17,0.8,0.3,1.61,0.41,2.43
		C1047.88,194.77,1047.95,195.33,1048.01,195.9z"/>
	<path class="st6" d="M1194.32,268.12c0.83,5.26,0.75,10.46-0.13,15.42c-1.56,8.85-5.63,16.99-11.55,23.49
		c-6.94,7.63-16.44,13.05-27.43,14.78c-16.08,2.53-31.54-3.42-41.82-14.55c-3.23-3.49-5.94-7.47-8.01-11.88
		c-0.13-0.27-0.26-0.56-0.38-0.85c-1.63-3.69-2.83-7.65-3.49-11.83c-4.03-25.63,13.48-49.66,39.11-53.69
		c0.48-0.08,0.95-0.14,1.41-0.2c2.86-0.36,5.69-0.46,8.47-0.3c2.88,0.16,5.7,0.57,8.44,1.25c16.62,4,30.25,16.97,34.53,34.29
		c0.21,0.79,0.39,1.59,0.54,2.4C1194.13,267,1194.23,267.56,1194.32,268.12z"/>
	<path class="st10" d="M1331.35,364.21c-0.09-0.56-0.19-1.12-0.3-1.67c-0.15-0.81-0.33-1.62-0.54-2.4c-0.75-3.03-1.8-5.91-3.08-8.65
		c0.84,5.71,0.74,11.34-0.21,16.73c-1.75,9.9-6.29,19-12.92,26.28c-7.76,8.54-18.39,14.6-30.69,16.53
		c-10.2,1.6-20.17,0.15-28.99-3.67c10.05,8.5,23.6,12.75,37.62,10.54c10.99-1.73,20.49-7.14,27.43-14.78
		c5.93-6.51,9.99-14.64,11.55-23.49C1332.1,374.67,1332.18,369.48,1331.35,364.21z"/>
	<path class="st10" d="M1039.52,359c-0.09-0.56-0.19-1.12-0.3-1.67c-0.15-0.81-0.33-1.62-0.54-2.4c-0.75-3.03-1.8-5.91-3.08-8.65
		c0.84,5.71,0.74,11.34-0.21,16.73c-1.75,9.9-6.29,19-12.92,26.28c-7.76,8.54-18.39,14.6-30.69,16.53
		c-10.2,1.6-20.17,0.15-28.99-3.67c10.05,8.5,23.6,12.75,37.62,10.54c10.99-1.73,20.49-7.14,27.43-14.78
		c5.93-6.51,9.99-14.64,11.55-23.49C1040.27,369.45,1040.35,364.26,1039.52,359z"/>
	<path class="st10" d="M1194.98,269.78c-0.09-0.56-0.19-1.12-0.3-1.67c-0.15-0.81-0.33-1.62-0.54-2.4c-0.75-3.03-1.8-5.91-3.08-8.65
		c0.84,5.71,0.74,11.34-0.21,16.73c-1.75,9.9-6.29,19-12.92,26.28c-7.76,8.54-18.39,14.6-30.69,16.53
		c-10.2,1.6-20.17,0.15-28.99-3.67c10.05,8.5,23.6,12.75,37.62,10.54c10.99-1.73,20.49-7.14,27.43-14.78
		c5.93-6.51,9.99-14.64,11.55-23.49C1195.73,280.24,1195.81,275.04,1194.98,269.78z"/>
	<path class="st10" d="M1047.69,193.52c-0.09-0.56-0.19-1.12-0.3-1.67c-0.15-0.81-0.33-1.62-0.54-2.4c-0.75-3.03-1.8-5.91-3.08-8.65
		c0.84,5.71,0.74,11.34-0.21,16.73c-1.75,9.9-6.29,19-12.92,26.28c-7.76,8.54-18.39,14.6-30.69,16.53
		c-10.2,1.6-20.17,0.15-28.99-3.67c10.05,8.5,23.6,12.75,37.62,10.54c10.99-1.73,20.49-7.14,27.43-14.78
		c5.93-6.51,9.99-14.64,11.55-23.49C1048.44,203.98,1048.52,198.78,1047.69,193.52z"/>
	<path class="st10" d="M1191.83,430.67c-0.09-0.56-0.19-1.12-0.3-1.67c-0.15-0.81-0.33-1.62-0.54-2.4c-0.75-3.03-1.8-5.91-3.08-8.65
		c0.84,5.71,0.74,11.34-0.21,16.73c-1.75,9.9-6.29,19-12.92,26.28c-7.76,8.54-18.39,14.6-30.69,16.53
		c-10.2,1.6-20.17,0.15-28.99-3.67c10.05,8.5,23.6,12.75,37.62,10.54c10.99-1.73,20.49-7.14,27.43-14.78
		c5.93-6.51,9.99-14.64,11.55-23.49C1192.58,441.13,1192.65,435.94,1191.83,430.67z"/>
</g>
<g id="XMLID_1771_">
	<rect id="XMLID_1769_" x="848.66" y="438.57" class="st11" width="493.83" height="334.01"/>
	<path id="XMLID_1073_" class="st12" d="M848.66,438.57l231.79,211.48c8.57,7.82,21.69,7.82,30.26,0l231.79-211.48H848.66z"/>
	<polygon id="XMLID_1800_" class="st12" points="1342.49,772.58 1095.57,514.88 1342.49,750.63 	"/>
	<polygon id="XMLID_1806_" class="st12" points="848.66,772.58 1095.57,514.88 848.66,750.63 	"/>
	<path id="XMLID_1773_" class="st13" d="M848.66,438.57l228.23,192.82c10.79,9.11,26.58,9.11,37.36,0l228.23-192.82H848.66z"/>
</g>
<g>
	<path id="XMLID_13_" class="st14" d="M567.77,720.11"/>
	<path id="XMLID_11_" class="st15" d="M795.45,386.4l18.38,14.73l11.98,9.6c16.72,13.4,21.23,36.95,10.64,55.58L739.2,619.1
		c-12.39,17.48-35.64,23.37-54.85,13.9l-27.37-13.49l-4.61-2.27l-2.91-1.44l-71.11,127.69c21.9,11.6,60.86,27.73,103.41,24.27
		c65.11-5.3,107.5-65.85,179.21-178.51c71.71-112.67,108.6-176.71,85.84-237.94c-11.02-29.65-30.97-52.96-48.61-69.12
		c-8.31-7.61-15.76-15.68-21.88-20.03"/>
	<path id="XMLID_3344_" class="st15" d="M790.48,384.42l-25.55-20.48c-5.76-4.62-7.12-12.84-3.16-19.07l33.34-52.39l30.12-47.21
		c4.58-6.55,13.62-8.22,20.2-3.54c6.48,4.61,17.21,9.75,26.07,18.01L790.48,384.42z"/>
	<path id="XMLID_3349_" class="st15" d="M574.8,739.5c-11.23-4.53-29.07-11.66-35.98-15.57c-7-3.96-9.32-12.81-5.39-19.72
		l64.81-101.57c4.26-4.8,11.27-6.31,17.2-3.39l29.67,14.62L574.8,739.5z"/>
</g>
<g>
	<g id="XMLID_2114_">
		<path id="XMLID_2113_" class="st16" d="M489.84,772.58c0,0,8.39-11.31,3.34-27.56c-6.54-21.02-26.04-30.73-19-44.48
			c5.85-11.44,23.34-5.65,32.61,9.77c8.9,14.82,9.59,46.04-4.48,62.28H489.84z"/>
		<path id="XMLID_2115_" class="st17" d="M487.93,706.53c0,0,26.85,29.04,9.27,66.05"/>
	</g>
	<g id="XMLID_2116_">
		<path id="XMLID_2110_" class="st18" d="M509.74,772.58c0,0,20.28-12.38,31.39-37.97c11.11-25.59,11.59-55.53,0-66.15
			c-10.83-9.92-23.66-3.86-27.04,13.52c-3.38,17.38,4.35,61.46-18.35,90.61H509.74z"/>
		<path id="XMLID_2112_" class="st17" d="M530.98,673.28c0,0,3.38,26.21-4.35,54.15c-7.73,27.94-22.21,45.15-22.21,45.15"/>
	</g>
</g>
<g>
	<g id="XMLID_1587_">
		<path id="XMLID_1526_" class="st19" d="M795.26,772.58c0,0,0.45-35.78-27.93-69.12c-28.38-33.34-60.85-45.27-88.89-35.16
			c-20.88,7.53-15.52,31.7,1.56,42c20.21,12.19,95.9,17.12,98.6,62.28H795.26z"/>
		<path id="XMLID_1552_" class="st17" d="M681.44,684.46c38.56-2.19,97.6,33.34,105.71,88.12"/>
	</g>
	<g id="XMLID_1535_">
		<path id="XMLID_1566_" class="st16" d="M804.07,772.58c0,0,18.67-19.91,15.07-58.26c-3.6-38.35-37.33-47.87-43.39-29.33
			c-4.77,14.58,28.08,48.56,16.36,87.59H804.07z"/>
		<path id="XMLID_1568_" class="st17" d="M792.1,687.7c7.24,9.37,21.15,47.69,6.96,84.88"/>
	</g>
</g>
<path id="XMLID_2128_" class="st15" d="M1359.19,777.37H5.17c-2.86,0-5.17-2.14-5.17-4.79l0,0c0-2.64,2.31-4.79,5.17-4.79h1354.02
	c2.86,0,5.17,2.14,5.17,4.79l0,0C1364.37,775.22,1362.05,777.37,1359.19,777.37z"/>
</svg>
