<?xml version="1.0" encoding="utf-8"?>
<!-- Generator: Adobe Illustrator 25.1.0, SVG Export Plug-In . SVG Version: 6.00 Build 0)  -->
<svg version="1.1" id="Layer_1" xmlns="http://www.w3.org/2000/svg" xmlns:xlink="http://www.w3.org/1999/xlink" x="0px" y="0px"
	 viewBox="0 0 652.82 558.71" style="enable-background:new 0 0 652.82 558.71;" xml:space="preserve">
<style type="text/css">
	.st0{fill:#CC66CC;}
</style>
<g>
	<path class="st0" d="M650.73,169.75C650.73,76.16,574.58,0,481.01,0C412.33,0,353.1,41,326.39,99.78C299.72,41,240.47,0,171.82,0
		C78.21,0,2.09,76.16,2.09,169.75c0,19.74,3.39,38.68,9.63,56.33c7.1,20.09,17.86,38.44,31.5,54.26
		c5.82,6.77,12.13,13.06,18.95,18.83l258.88,257.15c1.59,1.6,3.67,2.39,5.76,2.39c2.11,0,4.2-0.79,5.81-2.39l268.5-266.76
		l-0.02-0.04c17.4-17.44,31.05-38.61,39.59-62.23C647.18,209.32,650.73,189.94,650.73,169.75z"/>
</g>
</svg>
