<?xml version="1.0" encoding="utf-8"?>
<!-- Generator: Adobe Illustrator 25.1.0, SVG Export Plug-In . SVG Version: 6.00 Build 0)  -->
<svg version="1.1" id="Layer_1" xmlns="http://www.w3.org/2000/svg" xmlns:xlink="http://www.w3.org/1999/xlink" x="0px" y="0px"
	 viewBox="0 0 1281.03 900.67" style="enable-background:new 0 0 1281.03 900.67;" xml:space="preserve">
<style type="text/css">
	.st0{fill-rule:evenodd;clip-rule:evenodd;fill:#FFCFA1;}
	.st1{fill:#FACB18;}
	.st2{fill-rule:evenodd;clip-rule:evenodd;fill:#FBCDA1;}
	.st3{fill-rule:evenodd;clip-rule:evenodd;fill:#4D4D4D;}
	.st4{fill-rule:evenodd;clip-rule:evenodd;fill:#FDBB92;}
	.st5{fill:#BD7B5A;}
	.st6{fill-rule:evenodd;clip-rule:evenodd;fill:#FD805D;}
	.st7{fill-rule:evenodd;clip-rule:evenodd;fill:#60A1C2;}
	.st8{fill-rule:evenodd;clip-rule:evenodd;fill:#0098D7;}
	.st9{fill-rule:evenodd;clip-rule:evenodd;fill:#FFFFFF;}
	.st10{opacity:0.3;fill:#CC66CC;}
	.st11{fill:#CC66CC;}
	.st12{opacity:0.3;fill:#231F20;}
</style>
<g>
	<path class="st11" d="M1158.8,275.18c0-149.57-121.68-271.26-271.22-271.26c-109.75,0-204.41,65.52-247.09,159.46
		C597.86,69.43,503.18,3.91,393.48,3.91c-149.6,0-271.25,121.7-271.25,271.26c0,31.55,5.42,61.81,15.39,90.01
		c11.34,32.1,28.54,61.42,50.33,86.71c9.29,10.82,19.39,20.87,30.29,30.1l413.71,410.94c2.55,2.55,5.86,3.82,9.21,3.82
		c3.38,0,6.72-1.27,9.28-3.82l429.07-426.3l-0.03-0.06c27.81-27.87,49.62-61.7,63.27-99.45
		C1153.13,338.42,1158.8,307.44,1158.8,275.18z"/>
</g>
</svg>
