<?xml version="1.0" encoding="utf-8"?>
<!-- Generator: Adobe Illustrator 25.1.0, SVG Export Plug-In . SVG Version: 6.00 Build 0)  -->
<svg version="1.1" id="Layer_1" xmlns="http://www.w3.org/2000/svg" xmlns:xlink="http://www.w3.org/1999/xlink" x="0px" y="0px"
	 viewBox="0 0 1281.03 900.67" style="enable-background:new 0 0 1281.03 900.67;" xml:space="preserve">
<style type="text/css">
	.st0{fill-rule:evenodd;clip-rule:evenodd;fill:#FFCFA1;}
	.st1{fill:#FACB18;}
	.st2{fill-rule:evenodd;clip-rule:evenodd;fill:#FBCDA1;}
	.st3{fill-rule:evenodd;clip-rule:evenodd;fill:#4D4D4D;}
	.st4{fill-rule:evenodd;clip-rule:evenodd;fill:#FDBB92;}
	.st5{fill:#BD7B5A;}
	.st6{fill-rule:evenodd;clip-rule:evenodd;fill:#FD805D;}
	.st7{fill-rule:evenodd;clip-rule:evenodd;fill:#60A1C2;}
	.st8{fill-rule:evenodd;clip-rule:evenodd;fill:#0098D7;}
	.st9{fill-rule:evenodd;clip-rule:evenodd;fill:#FFFFFF;}
	.st10{opacity:0.3;fill:#CC66CC;}
	.st11{fill:#CC66CC;}
	.st12{opacity:0.3;fill:#231F20;}
</style>
<g>
	<path class="st1" d="M1036.72,150.87c-2.33-22.76-9.37-45.11-20.86-65.05c-11.6-19.82-27.73-37.2-46.88-49.31
		c-9.52-6.1-19.64-11.02-29.98-14.76c-10.39-3.62-20.94-6.22-31.45-7.7c-2.53-0.37-5.06-0.64-7.58-0.88
		c0.03-2.21,0.11-4.39,0.11-6.61c0-0.9-0.02-1.8-0.03-2.7H380.98c-0.01,0.9-0.03,1.8-0.03,2.7c0,2.22,0.08,4.4,0.11,6.61
		c-2.52,0.24-5.05,0.51-7.58,0.88c-10.51,1.48-21.07,4.08-31.45,7.7c-10.35,3.74-20.46,8.65-29.98,14.76
		C292.9,48.62,276.77,66,265.17,85.82c-11.49,19.94-18.52,42.29-20.86,65.05c-2.26,22.76-0.3,46.05,6.8,68.13
		c3.5,11.07,8.16,21.73,14.23,31.99c5.92,9.83,12.83,18.85,20.26,27.16c14.89,16.63,32.18,29.99,50.17,40.87
		c17.96,10.98,36.82,19.25,55.69,25.85c37.85,12.97,76.09,18.6,112.32,18.53c26.65-0.14,52.33-3.45,75.9-10.13
		c0.97,21.88,13.46,40.76,31.57,50.71c-5.66,23.71-9.08,54.36-9.08,87.86c0,11.68,0.42,23.02,1.2,33.84
		c-41.97,4.2-72.84,15.32-76.45,28.67h-30.86v13.34h-35.72v42.75h-35.72v53.81h431.78v-53.81h-35.72v-42.75h-35.72v-13.34h-30.86
		c-3.61-13.34-34.47-24.46-76.45-28.67c0.78-10.82,1.2-22.16,1.2-33.84c0-33.5-3.42-64.15-9.08-87.86
		c18.11-9.94,30.6-28.82,31.57-50.71c23.58,6.68,49.25,9.99,75.9,10.13c36.22,0.07,74.46-5.56,112.32-18.53
		c18.87-6.6,37.73-14.88,55.69-25.85c17.98-10.88,35.27-24.24,50.17-40.87c7.43-8.31,14.34-17.33,20.26-27.16
		c6.07-10.26,10.73-20.91,14.23-31.99C1037.02,196.92,1038.98,173.63,1036.72,150.87z M505.05,328.22
		c-32.39-2.59-66.3-10.22-98.79-23.19c-16.23-6.5-32-14.54-46.77-23.99c-14.7-9.54-28.26-20.73-39.6-33.47
		c-5.62-6.41-10.7-13.19-14.93-20.38c-4.09-6.75-7.57-14.36-10.13-22.25c-5.14-15.82-7.28-33.09-6.1-50.13
		c2.21-34.15,17.99-67.09,44.81-87.32c13.31-10.2,29.15-17.34,46.02-21.45c1.02-0.24,2.06-0.43,3.08-0.65
		c10.86,129.52,75.32,237.35,163.15,283.29C532.6,329.48,518.95,329.33,505.05,328.22z M986.2,204.94
		c-2.56,7.88-6.04,15.5-10.13,22.25c-4.23,7.19-9.31,13.97-14.93,20.38c-11.34,12.74-24.89,23.93-39.6,33.47
		c-14.77,9.45-30.54,17.49-46.77,23.99c-32.49,12.97-66.4,20.61-98.79,23.19c-13.91,1.12-27.55,1.26-40.73,0.47
		C823.08,282.75,887.54,174.92,898.4,45.4c1.02,0.22,2.06,0.41,3.08,0.65c16.88,4.11,32.71,11.25,46.02,21.45
		c26.81,20.22,42.6,53.16,44.81,87.32C993.48,171.85,991.34,189.11,986.2,204.94z"/>
	<rect x="356.87" y="657.29" class="st5" width="567.3" height="239.52"/>
	<path class="st1" d="M801.25,842.19H479.78c-2.89,0-5.25-2.36-5.25-5.25V714.02c0-2.89,2.36-5.25,5.25-5.25h321.47
		c2.89,0,5.25,2.36,5.25,5.25v122.92C806.5,839.83,804.14,842.19,801.25,842.19z"/>
</g>
</svg>
