<?xml version="1.0" encoding="utf-8"?>
<!-- Generator: Adobe Illustrator 25.1.0, SVG Export Plug-In . SVG Version: 6.00 Build 0)  -->
<svg version="1.1" id="Layer_1" xmlns="http://www.w3.org/2000/svg" xmlns:xlink="http://www.w3.org/1999/xlink" x="0px" y="0px"
	 viewBox="0 0 1281.03 900.67" style="enable-background:new 0 0 1281.03 900.67;" xml:space="preserve">
<style type="text/css">
	.st0{fill-rule:evenodd;clip-rule:evenodd;fill:#FFCFA1;}
	.st1{fill:#FACB18;}
	.st2{fill-rule:evenodd;clip-rule:evenodd;fill:#FBCDA1;}
	.st3{fill-rule:evenodd;clip-rule:evenodd;fill:#4D4D4D;}
	.st4{fill-rule:evenodd;clip-rule:evenodd;fill:#FDBB92;}
	.st5{fill:#BD7B5A;}
	.st6{fill-rule:evenodd;clip-rule:evenodd;fill:#FD805D;}
	.st7{fill-rule:evenodd;clip-rule:evenodd;fill:#60A1C2;}
	.st8{fill-rule:evenodd;clip-rule:evenodd;fill:#0098D7;}
	.st9{fill-rule:evenodd;clip-rule:evenodd;fill:#FFFFFF;}
	.st10{opacity:0.3;fill:#CC66CC;}
	.st11{fill:#CC66CC;}
	.st12{opacity:0.3;fill:#231F20;}
</style>
<g>
	<path class="st0" d="M1087.9,654.51c5.18,4.57,11.83,8.62,20.07,11.25c24.15,7.69,93.89,3.72,125.48-4.23l0,0
		c25.94-6.54,54.71-8.79,45.98-16.1c-8.6-7.44-50.6-1.98-50.6-1.98s41.35-6.49,30.56-14.31c-10.79-7.95-54.33,6.61-54.33,6.61
		s33.9-13.41,20.93-20.72c-12.97-7.44-47.26,14.69-47.26,14.69L1087.9,654.51z"/>
	<path class="st0" d="M193.13,654.51c-5.18,4.57-11.83,8.62-20.07,11.25c-24.15,7.69-93.89,3.72-125.48-4.23l0,0
		c-25.94-6.54-54.71-8.79-45.98-16.1c8.6-7.44,50.6-1.98,50.6-1.98s-41.35-6.49-30.56-14.31c10.79-7.95,54.33,6.61,54.33,6.61
		s-33.9-13.41-20.93-20.72c12.97-7.44,47.26,14.69,47.26,14.69L193.13,654.51z"/>
	<path class="st1" d="M1194.57,637.89c-31.18-91.82-150.86-305.04-220.31-420.44c-44.55-74.04-168.78-23.77-120.29,56.34
		c64.63,106.78,180.55,311.2,208.89,394.64L1194.57,637.89z"/>
	<path class="st1" d="M85.92,637.89c33.57-91.82,158.77-305.04,231.22-420.44c46.47-74.04,169.4-23.77,118.83,56.34
		c-67.4,106.78-188.63,311.2-219.13,394.64L85.92,637.89z"/>
	<path class="st2" d="M978.58,693.43c-23.55,6.41-51.09-19.49-61.53-57.84c-10.44-38.35,0.18-74.64,23.73-81.05
		c23.55-6.41,51.09,19.49,61.53,57.84C1012.75,650.74,1002.13,687.02,978.58,693.43z"/>
	<path class="st2" d="M280.76,693.43c23.55,6.41,51.09-19.49,61.53-57.84c10.44-38.35-0.18-74.64-23.73-81.05
		c-23.55-6.41-51.09,19.49-61.53,57.84C246.59,650.74,257.21,687.02,280.76,693.43z"/>
	<path class="st2" d="M628.73,815.75c182.28,0,330.96-113.38,330.96-252.4s-148.67-252.4-330.96-252.4
		c-182.28,0-330.95,113.38-330.95,252.4S446.44,815.75,628.73,815.75z"/>
	<ellipse class="st3" cx="530.72" cy="585.48" rx="25.26" ry="42.21"/>
	<path class="st3" d="M726.74,627.69c13.91,0,25.26-18.96,25.26-42.21c0-23.25-11.35-42.21-25.26-42.21s-25.26,18.96-25.26,42.21
		C701.48,608.73,712.83,627.69,726.74,627.69z"/>
	<path class="st4" d="M465.98,517.15c-25.43-8.11-41.93-27.61-36.84-43.56c5.09-15.95,29.83-22.3,55.26-14.19
		c25.43,8.11,41.93,27.61,36.84,43.56C516.15,518.91,491.41,525.26,465.98,517.15z"/>
	<path class="st4" d="M791.47,517.15c25.43-8.11,41.93-27.61,36.84-43.56c-5.09-15.95-29.82-22.3-55.26-14.19
		c-25.43,8.11-41.93,27.61-36.84,43.56C741.3,518.91,766.04,525.26,791.47,517.15z"/>
	<path class="st5" d="M620.99,833.72c-5.11-0.24-9.05-4.58-8.81-9.68c0.24-5.11,4.58-9.05,9.68-8.81
		c16.7,0.83,30.47-0.38,41.54-3.38c11.61-3.14,20.02-8.24,25.53-14.96c2.52-3.07,4.48-6.54,5.9-10.38
		c-8.84-2.99-17.69-7.84-26.41-14.77l-1.55-1.28c-15.16-12.51-18.32-27.6-15.05-39.93c2.07-7.8,6.77-14.47,12.74-18.74l0.02,0.02
		c6.45-4.62,14.36-6.61,22.25-4.59c10.19,2.6,19.87,11.74,24.94,30.47c3.29,12.16,4.83,23.55,4.45,33.98
		c3.18,0.06,6.33-0.2,9.42-0.76c14.8-2.67,28.78-12.11,40.52-26.33l0.02-0.02l-0.02-0.02c0.58-0.7,1.01-1.22,1.26-1.54
		c3.18-4.01,9.01-4.67,13.02-1.49c4,3.18,4.67,9.02,1.49,13.02c-0.65,0.82-1.14,1.42-1.48,1.83l-0.02-0.01
		c-14.49,17.55-32.25,29.28-51.53,32.77c-5.17,0.93-10.42,1.27-15.72,0.98c-2.15,6.85-5.45,13.06-9.96,18.56
		c-7.97,9.72-19.53,16.92-35.03,21.12C655.37,833.23,639.71,834.65,620.99,833.72L620.99,833.72z M697.75,767.8
		c-0.08-7.68-1.42-16.16-3.9-25.33c-3.01-11.11-7.37-16.19-11.59-17.26c-2.3-0.59-4.77,0.1-6.89,1.63l-0.02,0.01l0.02,0.02
		c-2.62,1.88-4.7,4.86-5.63,8.37c-1.62,6.09,0.35,13.88,8.88,20.92l1.33,1.06C685.89,761.95,691.85,765.44,697.75,767.8z"/>
	<path class="st6" d="M628.73,451.05c57.27,0,103.7,38.5,103.7,8.14c0-30.37-41.22-73.2-103.7-73.2
		c-62.49,0-103.71,42.83-103.71,73.2C525.02,489.55,571.45,451.05,628.73,451.05z"/>
	<path class="st7" d="M932.04,786.29c1.05,27.97,4.2,53.18,7.16,63.19c10.67,36.11,53.62,51.19,122.77,51.19
		c69.14,0,127.61-13.54,127.61-51.19c0-37.65-56.05-68.17-125.19-68.17L932.04,786.29z"/>
	<path class="st7" d="M215.21,781.3c-69.14,0-125.19,30.52-125.19,68.17c0,37.65,58.48,51.19,127.61,51.19
		c69.14,0,112.09-15.09,122.77-51.19c2.96-10.01,6.11-35.22,7.16-63.19L215.21,781.3z"/>
	<path class="st8" d="M1114.67,787.04c-14.15-110.75-47.46-262.2-81.22-385.84c0.06-0.04,0.13-0.06,0.18-0.09
		C985.49,175.71,901.45,9.22,641.48,0C452.26,6.71,355.5,99.39,298.2,234.33c-2.01,4.05-3.86,8.29-5.49,12.73
		c-0.89,2.43-1.81,5-2.72,7.54c-10.51,27.28-19.6,56.11-27.67,86.15c-38.83,131.96-81.13,317.61-97.57,446.28
		c63.38,6.22,119.48,6.96,200.35,11.95c6.74-31.88,78.81-246.52,125.99-385.64c41.55,7.96,91.28,12.59,150.15,13.91
		c55.9-1.25,105.26-5.24,147.62-12.29c47.18,139.17,118.73,352.27,125.44,384.03C995.19,794,1051.29,793.26,1114.67,787.04z"/>
	<circle class="st9" cx="726.74" cy="585.48" r="9.08"/>
	<circle class="st9" cx="530.72" cy="585.48" r="9.08"/>
</g>
</svg>
