<?xml version="1.0" encoding="utf-8"?>
<!-- Generator: Adobe Illustrator 25.1.0, SVG Export Plug-In . SVG Version: 6.00 Build 0)  -->
<svg version="1.1" id="Layer_1" xmlns="http://www.w3.org/2000/svg" xmlns:xlink="http://www.w3.org/1999/xlink" x="0px" y="0px"
	 viewBox="0 0 634 500" style="enable-background:new 0 0 634 500;" xml:space="preserve">
<style type="text/css">
	.st0{fill:none;stroke:#A6A6A6;stroke-width:0.75;stroke-miterlimit:10;}
	.st1{opacity:0.2;fill:#0B7BAC;}
	.st2{fill:#EAF3FA;}
	.st3{fill:#CC66CC;}
	.st4{fill:#AE65A2;}
	.st5{opacity:0.6;fill:#0098D7;}
	.st6{fill:#0098D7;}
	.st7{opacity:0.2;fill:#0098D7;}
	.st8{fill:#0B0754;}
	.st9{fill:#40C7A7;}
	.st10{fill:none;stroke:#0098D7;stroke-miterlimit:10;}
	.st11{fill:#22A482;}
</style>
<rect x="565.85" y="342.56" class="st0" width="13.02" height="13.02"/>
<rect x="565.85" y="372.17" class="st0" width="13.02" height="13.02"/>
<g>
	<path class="st1" d="M498.94,315.68v165.98c0,9.26-7.25,16.92-16.36,17.56c-0.41,0.03-0.82,0.05-1.24,0.05h-75.13
		c-9.9,0-17.99-8.1-17.99-18V316.75c0-9.31,4.81-17.92,12.66-22.93c6.55-4.18,10.89-11.52,10.89-19.86c0-2.47-0.38-4.85-1.09-7.09
		h65.8c-0.71,2.24-1.09,4.62-1.09,7.09c0,6.55,2.67,12.48,6.99,16.74c1.3,1.29,2.76,2.43,4.33,3.39
		C494.27,298.69,498.94,306.84,498.94,315.68z"/>
	<path class="st2" d="M144.97,498.64c0,0-198.28-98.29-130.31-224.91c37.21-69.32,141.56-106.05,214.13-83.05
		c78.53,24.89,27.28-35.52,79.32-111.49c125.1-182.62,338.96-20,281.82,201.47c-27.65,107.18,84.15,111.07,27.18,218.21
		L144.97,498.64z"/>
	<g>
		<g>
			<path class="st3" d="M423.77,241.43c-2.62-5.78-9.45-8.36-15.23-5.75c-4.24,1.92-6.76,6.11-6.77,10.49
				c-3.29-2.89-8.1-3.76-12.34-1.85c-5.78,2.62-8.36,9.45-5.74,15.23c0.55,1.22,1.29,2.3,2.17,3.21c1,1.04,2.18,1.88,3.46,2.47
				c0.55,0.26,1.11,0.47,1.7,0.63l23.19,8.65c0.14,0.05,0.29,0.05,0.42-0.01c0.13-0.06,0.24-0.17,0.29-0.31l9.14-23.99l0,0
				c0.59-1.56,0.84-3.25,0.71-4.95C424.66,243.98,424.34,242.68,423.77,241.43z"/>
		</g>
		<g>
			<path class="st4" d="M401.77,246.18c0.01-4.38,2.52-8.57,6.77-10.49c5.78-2.62,12.62-0.04,15.23,5.75
				c0.56,1.25,0.89,2.54,0.99,3.84c0.13,1.7-0.12,3.39-0.71,4.95l0,0l-9.14,23.99c-0.05,0.14-0.16,0.25-0.29,0.31L401.77,246.18z"/>
		</g>
	</g>
	<path class="st5" d="M488.17,293.27c-5.27-3.15-28.09-14.34-86.13-13.86c-66.48,0.54-93.11,13.98-93.93,14.4
		c6.54-4.18,10.87-11.51,10.87-19.85c0-2.47-0.38-4.85-1.09-7.09h161.29c-0.71,2.24-1.09,4.62-1.09,7.09
		C478.09,281.95,482.08,289.01,488.17,293.27z"/>
	<path class="st6" d="M616.37,499.69H145.79c-0.55,0-1-0.45-1-1v0c0-0.55,0.45-1,1-1h470.58c0.55,0,1,0.45,1,1l0,0
		C617.38,499.24,616.93,499.69,616.37,499.69z"/>
	<path class="st1" d="M500.05,314.67v165.98c0,9.26-7.25,16.92-16.36,17.56c-0.41,0.03-0.82,0.05-1.24,0.05h-75.13
		c-9.9,0-17.99-8.1-17.99-18V315.73c0-9.31,4.81-17.92,12.66-22.93c6.55-4.18,10.89-11.52,10.89-19.86c0-2.47-0.38-4.85-1.09-7.09
		h65.8c-0.71,2.24-1.09,4.62-1.09,7.09c0,6.55,2.67,12.48,6.99,16.74c1.3,1.29,2.76,2.43,4.33,3.39
		C495.38,297.67,500.05,305.82,500.05,314.67z"/>
	<path class="st7" d="M500.14,315.14v165.98c0,9.68-7.82,17.61-17.39,17.61H314.21c-1.46,0-2.89-0.18-4.25-0.52
		c-2.92-0.73-5.56-2.2-7.72-4.19c-1.54-1.42-2.84-3.12-3.81-5.01c-0.05-0.1-0.1-0.2-0.15-0.31c-1.01-2.05-1.64-4.33-1.8-6.72
		c-0.03-0.41-0.04-0.82-0.04-1.24V316.21c0-9.31,4.75-17.92,12.51-22.93c0,0,0.01,0,0.02-0.01c6.46-4.18,10.74-11.51,10.74-19.85
		c0-2.47-0.38-4.85-1.07-7.09h159.33c-0.7,2.24-1.07,4.62-1.07,7.09c0,7.99,3.93,15.06,9.95,19.32c0,0,0,0,0.01,0
		c0.4,0.28,0.81,0.56,1.23,0.81c0,0,0,0,0,0C495.53,298.15,500.14,306.3,500.14,315.14z"/>
	<g>
		<g>
			<path class="st3" d="M420.06,460.85c0-8.76-7.13-15.9-15.89-15.9c-6.43,0-11.98,3.84-14.48,9.34c-2.5-5.5-8.05-9.34-14.47-9.34
				c-8.77,0-15.89,7.13-15.89,15.9c0,1.85,0.32,3.62,0.9,5.27c0.66,1.88,1.67,3.6,2.95,5.08c0.54,0.63,1.14,1.22,1.77,1.76
				l24.24,24.08c0.15,0.15,0.34,0.22,0.54,0.22c0.2,0,0.39-0.07,0.54-0.22l25.14-24.98l0,0c1.63-1.63,2.91-3.62,3.71-5.83
				C419.73,464.56,420.06,462.75,420.06,460.85z"/>
		</g>
		<g>
			<path class="st4" d="M389.69,454.3c2.5-5.5,8.05-9.34,14.48-9.34c8.76,0,15.89,7.13,15.89,15.9c0,1.89-0.33,3.71-0.94,5.39
				c-0.8,2.21-2.08,4.19-3.71,5.83l0,0l-25.14,24.98c-0.15,0.15-0.35,0.22-0.54,0.22L389.69,454.3z"/>
		</g>
	</g>
	<g>
		<g>
			<path class="st3" d="M464.57,436.51c1.88-7.28-2.51-14.73-9.78-16.62c-5.34-1.38-10.77,0.61-14.03,4.65
				c-0.89-5.11-4.67-9.49-10.01-10.87c-7.28-1.88-14.73,2.51-16.62,9.79c-0.4,1.54-0.51,3.08-0.38,4.57
				c0.15,1.7,0.62,3.35,1.36,4.85c0.32,0.64,0.68,1.26,1.1,1.85l14.96,25.21c0.09,0.16,0.24,0.26,0.4,0.3
				c0.16,0.04,0.34,0.02,0.5-0.07l26.25-15.34l0,0c1.7-1.01,3.19-2.38,4.33-4.04C463.5,439.52,464.17,438.08,464.57,436.51z"/>
		</g>
		<g>
			<path class="st4" d="M440.76,424.54c3.26-4.03,8.69-6.03,14.03-4.65c7.28,1.88,11.67,9.34,9.78,16.62
				c-0.41,1.57-1.07,3.01-1.94,4.27c-1.14,1.67-2.63,3.04-4.33,4.04l0,0l-26.25,15.34c-0.16,0.09-0.34,0.11-0.5,0.07L440.76,424.54z
				"/>
		</g>
	</g>
	<g>
		<g>
			<path class="st3" d="M434.91,331.43c2.42-7.12-1.41-14.88-8.53-17.29c-5.22-1.77-10.79-0.18-14.34,3.6
				c-0.51-5.16-3.96-9.81-9.18-11.58c-7.12-2.42-14.88,1.41-17.29,8.53c-0.51,1.5-0.74,3.03-0.72,4.53c0.02,1.71,0.37,3.38,1,4.94
				c0.27,0.67,0.59,1.31,0.96,1.92l13.06,26.24c0.08,0.16,0.22,0.28,0.38,0.33c0.16,0.05,0.34,0.05,0.5-0.03l27.31-13.36l0,0
				c1.77-0.88,3.36-2.14,4.62-3.71C433.61,334.35,434.38,332.97,434.91,331.43z"/>
		</g>
		<g>
			<path class="st4" d="M412.04,317.74c3.55-3.78,9.11-5.37,14.34-3.6c7.12,2.41,10.95,10.17,8.53,17.29
				c-0.52,1.54-1.29,2.92-2.25,4.12c-1.26,1.58-2.84,2.83-4.62,3.71l0,0l-27.31,13.36c-0.16,0.08-0.34,0.09-0.5,0.03L412.04,317.74z
				"/>
		</g>
	</g>
	<g>
		<g>
			<path class="st3" d="M480.32,224.64c2.21-6.5-1.29-13.59-7.79-15.8c-4.77-1.62-9.86-0.17-13.1,3.29
				c-0.47-4.71-3.62-8.96-8.39-10.58c-6.51-2.21-13.59,1.29-15.8,7.8c-0.47,1.37-0.68,2.77-0.66,4.14c0.02,1.56,0.33,3.09,0.91,4.51
				c0.24,0.61,0.54,1.19,0.87,1.76l11.93,23.97c0.07,0.15,0.2,0.25,0.34,0.3c0.15,0.05,0.31,0.04,0.46-0.03l24.95-12.21l0,0
				c1.62-0.8,3.07-1.95,4.22-3.39C479.14,227.31,479.84,226.05,480.32,224.64z"/>
		</g>
		<g>
			<path class="st4" d="M459.43,212.13c3.24-3.46,8.32-4.91,13.1-3.29c6.5,2.21,10,9.29,7.79,15.8c-0.48,1.4-1.18,2.67-2.05,3.76
				c-1.15,1.44-2.6,2.59-4.22,3.39l0,0l-24.95,12.21c-0.15,0.07-0.31,0.08-0.46,0.03L459.43,212.13z"/>
		</g>
	</g>
	<g>
		<g>
			<path class="st3" d="M515.43,209.29c2.08-3.85,0.65-8.68-3.21-10.77c-2.83-1.53-6.18-1.16-8.59,0.66
				c0.21-3.01-1.31-6.02-4.14-7.55c-3.85-2.09-8.68-0.65-10.77,3.21c-0.44,0.81-0.72,1.67-0.86,2.53c-0.16,0.99-0.12,1.98,0.09,2.94
				c0.09,0.41,0.21,0.81,0.36,1.2l4.93,16.35c0.03,0.1,0.1,0.18,0.18,0.23c0.09,0.05,0.19,0.06,0.29,0.03l17-5v0
				c1.1-0.33,2.14-0.9,3.02-1.68C514.41,210.84,514.98,210.12,515.43,209.29z"/>
		</g>
		<g>
			<path class="st4" d="M503.64,199.19c2.41-1.83,5.76-2.19,8.59-0.66c3.85,2.08,5.29,6.92,3.21,10.77
				c-0.45,0.83-1.03,1.55-1.7,2.15c-0.88,0.78-1.91,1.35-3.02,1.68v0l-17,5c-0.1,0.03-0.21,0.02-0.29-0.03L503.64,199.19z"/>
		</g>
	</g>
	<g>
		<g>
			<path class="st3" d="M377.39,183.39c1.46-4.13-0.71-8.68-4.84-10.14c-3.03-1.07-6.28-0.19-8.38,1.99
				c-0.26-3.01-2.23-5.75-5.26-6.82c-4.13-1.46-8.68,0.71-10.14,4.84c-0.31,0.87-0.45,1.76-0.46,2.64c0,1,0.19,1.97,0.54,2.89
				c0.15,0.39,0.33,0.77,0.54,1.13l7.41,15.39c0.05,0.1,0.12,0.16,0.22,0.2c0.09,0.03,0.2,0.03,0.29-0.01l16.02-7.58l0,0
				c1.04-0.5,1.97-1.22,2.72-2.13C376.61,185.08,377.07,184.29,377.39,183.39z"/>
		</g>
		<g>
			<path class="st4" d="M364.17,175.24c2.1-2.18,5.35-3.06,8.38-1.99c4.13,1.46,6.3,6.01,4.84,10.14c-0.32,0.89-0.77,1.69-1.34,2.38
				c-0.75,0.91-1.68,1.63-2.72,2.13l0,0l-16.02,7.58c-0.1,0.05-0.2,0.05-0.29,0.01L364.17,175.24z"/>
		</g>
	</g>
	<g>
		<g>
			<path class="st3" d="M400.84,138.79c-0.08-4.38-3.71-7.88-8.09-7.8c-3.21,0.06-5.95,2.03-7.15,4.8c-1.3-2.73-4.11-4.6-7.32-4.54
				c-4.38,0.08-7.88,3.71-7.8,8.09c0.02,0.92,0.19,1.81,0.5,2.63c0.35,0.93,0.87,1.78,1.52,2.51c0.28,0.31,0.58,0.6,0.9,0.87
				l12.33,11.82c0.08,0.07,0.17,0.11,0.27,0.11c0.1,0,0.2-0.04,0.27-0.12l12.34-12.71l0,0c0.8-0.83,1.42-1.83,1.8-2.95
				C400.71,140.64,400.86,139.73,400.84,138.79z"/>
		</g>
		<g>
			<path class="st4" d="M385.6,135.79c1.2-2.77,3.94-4.74,7.15-4.8c4.38-0.08,8.01,3.42,8.09,7.8c0.02,0.94-0.13,1.86-0.42,2.7
				c-0.38,1.11-1,2.12-1.8,2.95l0,0l-12.34,12.71c-0.07,0.08-0.17,0.11-0.27,0.12L385.6,135.79z"/>
		</g>
	</g>
	<g>
		<g>
			<path class="st3" d="M447.24,159.43c-0.07-3.78-3.2-6.8-6.98-6.73c-2.77,0.05-5.14,1.75-6.17,4.14
				c-1.12-2.35-3.54-3.97-6.32-3.92c-3.78,0.07-6.8,3.2-6.73,6.98c0.01,0.8,0.17,1.56,0.43,2.27c0.3,0.81,0.75,1.54,1.31,2.17
				c0.24,0.27,0.5,0.52,0.78,0.75l10.64,10.2c0.07,0.06,0.15,0.09,0.23,0.09c0.09,0,0.17-0.04,0.23-0.1l10.65-10.97l0,0
				c0.69-0.72,1.23-1.58,1.55-2.54C447.12,161.03,447.25,160.25,447.24,159.43z"/>
		</g>
		<g>
			<path class="st4" d="M434.09,156.84c1.04-2.39,3.4-4.09,6.17-4.14c3.78-0.07,6.91,2.95,6.98,6.73c0.01,0.82-0.11,1.6-0.36,2.33
				c-0.33,0.96-0.86,1.83-1.55,2.54l0,0l-10.65,10.97c-0.06,0.07-0.15,0.1-0.23,0.1L434.09,156.84z"/>
		</g>
	</g>
	<g>
		<g>
			<path class="st3" d="M378.99,213.4c-3.38-3.74-9.17-4.03-12.9-0.66c-2.74,2.48-3.63,6.25-2.58,9.56
				c-3.19-1.39-7.03-0.89-9.77,1.59c-3.74,3.38-4.03,9.17-0.66,12.9c0.71,0.79,1.53,1.42,2.42,1.9c1.01,0.55,2.1,0.89,3.22,1.03
				c0.48,0.06,0.96,0.08,1.44,0.07l19.62,0.93c0.12,0.01,0.23-0.04,0.32-0.11c0.08-0.08,0.14-0.18,0.15-0.3l1.1-20.34l0,0
				c0.07-1.32-0.15-2.66-0.66-3.91C380.27,215.11,379.72,214.2,378.99,213.4z"/>
		</g>
		<g>
			<path class="st4" d="M363.51,222.3c-1.05-3.31-0.17-7.09,2.58-9.56c3.74-3.38,9.53-3.08,12.9,0.66c0.73,0.81,1.29,1.71,1.67,2.66
				c0.51,1.25,0.73,2.59,0.66,3.91l0,0l-1.1,20.34c-0.01,0.12-0.06,0.23-0.15,0.3L363.51,222.3z"/>
		</g>
	</g>
	<g>
		<g>
			<path class="st3" d="M426.06,185.29c-2.84-4.89-9.14-6.56-14.03-3.72c-3.59,2.09-5.44,6.03-5.05,9.91
				c-3.18-2.26-7.52-2.6-11.11-0.52c-4.89,2.84-6.56,9.14-3.71,14.03c0.6,1.03,1.35,1.92,2.21,2.65c0.98,0.83,2.1,1.47,3.29,1.88
				c0.51,0.18,1.03,0.31,1.56,0.41l21.34,5.58c0.13,0.04,0.26,0.01,0.37-0.05c0.11-0.06,0.2-0.17,0.23-0.3l5.93-22.1l0,0
				c0.38-1.44,0.45-2.96,0.18-4.46C427.08,187.47,426.67,186.35,426.06,185.29z"/>
		</g>
		<g>
			<path class="st4" d="M406.98,191.49c-0.39-3.88,1.46-7.83,5.05-9.91c4.89-2.84,11.18-1.18,14.03,3.72
				c0.61,1.06,1.02,2.18,1.22,3.31c0.27,1.49,0.2,3.02-0.18,4.46l0,0l-5.93,22.1c-0.04,0.13-0.12,0.24-0.23,0.3L406.98,191.49z"/>
		</g>
	</g>
	<g>
		<g>
			<path class="st3" d="M469.79,385.59c3.69-5.85,1.94-13.62-3.91-17.32c-4.3-2.71-9.62-2.48-13.61,0.14
				c0.65-4.73-1.44-9.63-5.73-12.34c-5.86-3.7-13.62-1.94-17.32,3.92c-0.78,1.23-1.31,2.55-1.62,3.9c-0.35,1.54-0.4,3.11-0.17,4.64
				c0.1,0.65,0.24,1.3,0.44,1.93l6.04,26.3c0.04,0.16,0.14,0.29,0.27,0.38c0.13,0.08,0.29,0.12,0.46,0.08l27.32-6.09l0,0
				c1.78-0.4,3.47-1.19,4.93-2.33C468.01,387.93,468.99,386.85,469.79,385.59z"/>
		</g>
		<g>
			<path class="st4" d="M452.27,368.41c3.99-2.62,9.31-2.85,13.61-0.14c5.85,3.69,7.61,11.46,3.91,17.32
				c-0.8,1.26-1.78,2.34-2.9,3.2c-1.47,1.14-3.16,1.93-4.93,2.33l0,0l-27.32,6.09c-0.16,0.04-0.33,0-0.46-0.08L452.27,368.41z"/>
		</g>
	</g>
	<g>
		<g>
			<path class="st3" d="M425.44,394c1.64-5.99-1.91-12.19-7.89-13.82c-4.39-1.2-8.9,0.39-11.63,3.68c-0.68-4.23-3.75-7.88-8.14-9.08
				c-5.99-1.64-12.19,1.91-13.82,7.89c-0.34,1.26-0.46,2.53-0.37,3.77c0.1,1.41,0.47,2.77,1.07,4.02c0.25,0.53,0.55,1.05,0.88,1.54
				l12.07,20.97c0.07,0.13,0.19,0.22,0.33,0.25c0.14,0.04,0.28,0.02,0.41-0.05l21.83-12.37l0,0c1.42-0.81,2.66-1.93,3.62-3.29
				C424.52,396.47,425.08,395.29,425.44,394z"/>
		</g>
		<g>
			<path class="st4" d="M405.91,383.86c2.74-3.29,7.24-4.88,11.63-3.68c5.99,1.63,9.53,7.84,7.89,13.82
				c-0.35,1.29-0.92,2.47-1.65,3.51c-0.96,1.36-2.2,2.48-3.62,3.29l0,0l-21.83,12.37c-0.13,0.07-0.28,0.09-0.41,0.05L405.91,383.86z
				"/>
		</g>
	</g>
	<g>
		<g>
			<path class="st3" d="M380.68,353.98c-2.37-7.72-10.57-12.07-18.29-9.7c-5.66,1.74-9.51,6.62-10.22,12.14
				c-3.69-4.17-9.61-6.05-15.27-4.31c-7.72,2.37-12.06,10.58-9.69,18.29c0.5,1.63,1.26,3.1,2.22,4.4c1.09,1.48,2.45,2.72,3.97,3.68
				c0.65,0.41,1.33,0.77,2.04,1.07l27.85,14.64c0.17,0.09,0.36,0.1,0.54,0.05c0.17-0.05,0.33-0.17,0.42-0.34l15.38-28.79l0,0
				c0.99-1.88,1.58-3.97,1.69-6.13C381.39,357.33,381.19,355.64,380.68,353.98z"/>
		</g>
		<g>
			<path class="st4" d="M352.18,356.42c0.71-5.52,4.56-10.4,10.22-12.14c7.71-2.37,15.92,1.98,18.29,9.7c0.51,1.66,0.71,3.35,0.63,5
				c-0.11,2.16-0.7,4.25-1.69,6.13l0,0l-15.38,28.79c-0.09,0.17-0.24,0.29-0.42,0.34L352.18,356.42z"/>
		</g>
	</g>
	<g>
		<g>
			<path class="st3" d="M370.49,289.31c-3.45-4.91-10.25-6.09-15.15-2.64c-3.6,2.53-5.19,6.86-4.43,10.93
				c-3.57-2.1-8.18-2.06-11.78,0.47c-4.91,3.45-6.09,10.25-2.64,15.15c0.73,1.03,1.6,1.9,2.58,2.6c1.11,0.79,2.35,1.36,3.65,1.68
				c0.55,0.14,1.12,0.24,1.69,0.29l23.05,3.94c0.14,0.02,0.28-0.01,0.39-0.09c0.11-0.08,0.19-0.2,0.22-0.34l4.24-23.88l0,0
				c0.27-1.56,0.2-3.17-0.22-4.72C371.77,291.51,371.24,290.37,370.49,289.31z"/>
		</g>
		<g>
			<path class="st4" d="M350.91,297.59c-0.77-4.07,0.83-8.4,4.43-10.93c4.91-3.45,11.7-2.26,15.15,2.64
				c0.74,1.06,1.27,2.21,1.59,3.39c0.42,1.55,0.49,3.17,0.22,4.72l0,0l-4.24,23.88c-0.03,0.14-0.11,0.26-0.22,0.34L350.91,297.59z"
				/>
		</g>
	</g>
	<g>
		<g>
			<path class="st3" d="M367.15,407.69c-2.65-6.4-10.02-9.45-16.42-6.79c-4.7,1.95-7.58,6.43-7.74,11.21
				c-3.49-3.26-8.7-4.39-13.4-2.44c-6.4,2.66-9.45,10.02-6.79,16.42c0.56,1.35,1.33,2.55,2.26,3.58c1.06,1.17,2.31,2.12,3.69,2.82
				c0.59,0.3,1.2,0.55,1.83,0.75l24.99,10.24c0.15,0.06,0.32,0.06,0.46,0c0.14-0.06,0.26-0.17,0.33-0.33l10.79-25.85l0,0
				c0.7-1.69,1.03-3.52,0.94-5.38C368.03,410.5,367.72,409.07,367.15,407.69z"/>
		</g>
		<g>
			<path class="st4" d="M342.99,412.1c0.16-4.78,3.05-9.26,7.74-11.21c6.4-2.65,13.76,0.39,16.42,6.79
				c0.57,1.38,0.88,2.81,0.95,4.22c0.09,1.86-0.25,3.69-0.94,5.38l0,0l-10.79,25.85c-0.06,0.15-0.18,0.27-0.33,0.33L342.99,412.1z"
				/>
		</g>
	</g>
	<g>
		<g>
			<path class="st3" d="M403.51,436.78c3.14-3.64,2.74-9.16-0.9-12.3c-2.67-2.31-6.35-2.7-9.36-1.32c0.94-3.18,0.01-6.77-2.66-9.07
				c-3.64-3.15-9.16-2.74-12.3,0.9c-0.66,0.77-1.17,1.62-1.52,2.51c-0.4,1.02-0.6,2.09-0.6,3.17c0,0.46,0.03,0.92,0.1,1.37
				l1.43,18.7c0.01,0.12,0.06,0.22,0.14,0.29c0.08,0.07,0.19,0.11,0.31,0.1l19.4-1.35l0,0c1.26-0.09,2.5-0.46,3.63-1.09
				C402.04,438.2,402.83,437.57,403.51,436.78z"/>
		</g>
		<g>
			<path class="st4" d="M393.25,423.17c3.01-1.39,6.69-0.99,9.36,1.32c3.64,3.14,4.04,8.66,0.9,12.3c-0.68,0.79-1.47,1.42-2.32,1.9
				c-1.13,0.63-2.37,1-3.63,1.09l0,0l-19.4,1.35c-0.12,0.01-0.22-0.03-0.31-0.1L393.25,423.17z"/>
		</g>
	</g>
	<g>
		<g>
			<path class="st3" d="M455.36,303.57c1.86-3.77,0.31-8.35-3.46-10.21c-2.77-1.37-5.97-0.89-8.21,0.95
				c0.09-2.9-1.48-5.73-4.24-7.09c-3.77-1.86-8.35-0.31-10.21,3.46c-0.39,0.8-0.63,1.63-0.73,2.46c-0.11,0.95-0.04,1.9,0.19,2.81
				c0.1,0.39,0.23,0.77,0.39,1.14l5.32,15.51c0.03,0.1,0.1,0.17,0.18,0.21c0.09,0.04,0.19,0.05,0.28,0.02l16.12-5.41l0,0
				c1.05-0.36,2.02-0.94,2.83-1.72C454.43,305.09,454.96,304.38,455.36,303.57z"/>
		</g>
		<g>
			<path class="st4" d="M443.69,294.3c2.24-1.84,5.45-2.31,8.21-0.95c3.77,1.86,5.32,6.44,3.46,10.21c-0.4,0.81-0.93,1.52-1.55,2.12
				c-0.81,0.78-1.78,1.36-2.83,1.72l0,0l-16.12,5.41c-0.1,0.03-0.2,0.02-0.28-0.02L443.69,294.3z"/>
		</g>
	</g>
	<path class="st8" d="M482.84,265.7v7.53c0,0.74-0.61,1.35-1.35,1.35h-165.9c-0.74,0-1.35-0.61-1.35-1.35v-7.53
		c0-0.74,0.61-1.35,1.35-1.35h165.9C482.23,264.35,482.84,264.96,482.84,265.7z"/>
	<g>
		<g id="XMLID_25_">
			<path id="XMLID_28_" class="st9" d="M270.17,497.68c0,0,3.69-4.97,1.47-12.11c-2.87-9.23-11.44-13.5-8.35-19.54
				c2.57-5.03,10.25-2.48,14.32,4.29c3.91,6.51,4.21,20.23-1.97,27.36H270.17z"/>
			<path id="XMLID_26_" class="st10" d="M269.32,468.67c0,0,11.8,12.76,4.07,29.02"/>
		</g>
		<g id="XMLID_2_">
			<path id="XMLID_17_" class="st11" d="M278.9,497.68c0,0,8.91-5.44,13.79-16.68c4.88-11.24,5.09-24.39,0-29.06
				c-4.76-4.36-10.39-1.7-11.88,5.94c-1.48,7.64,1.91,27-8.06,39.81H278.9z"/>
			<path id="XMLID_5_" class="st10" d="M288.24,454.06c0,0,1.48,11.51-1.91,23.79c-3.39,12.27-9.76,19.84-9.76,19.84"/>
		</g>
	</g>
	<g id="XMLID_32_">
		<path id="XMLID_36_" class="st9" d="M522.5,497.68c0,0-6.57-2.97-6.09-10.02c0.48-7.05,5.29-8.49,9.46-11.06
			c4.17-2.56,4.49-6.89,4.65-12.18c0.16-5.29,3.69-10.58,10.74-10.26c7.05,0.32,9.66,1.76,14.76-4.33c5.11-6.09,12-5.93,14.88-2.56
			c2.88,3.37,3.07,9.15-1.31,13.15c-5.32,4.86-6.7,6.08-8.24,11.42c-2.09,7.25,0.92,14.31-1.76,17.68c-3.58,4.5-7.45,3.4-11.13,4.86
			c-3.69,1.46-3.82,3.29-3.82,3.29H522.5z"/>
		<path id="XMLID_34_" class="st10" d="M564.54,451.97c-10.78,6.29-29.55,25.41-32.73,45.71"/>
	</g>
</g>
</svg>
