<?xml version="1.0" encoding="utf-8"?>
<!-- Generator: Adobe Illustrator 25.1.0, SVG Export Plug-In . SVG Version: 6.00 Build 0)  -->
<svg version="1.1" id="Layer_1" xmlns="http://www.w3.org/2000/svg" xmlns:xlink="http://www.w3.org/1999/xlink" x="0px" y="0px"
	 viewBox="0 0 564.97 580.38" style="enable-background:new 0 0 564.97 580.38;" xml:space="preserve">
<style type="text/css">
	.st0{fill:#DEEBF7;}
	.st1{fill:#EDF3F8;}
	.st2{opacity:0.3;}
	.st3{opacity:0.6;}
	.st4{fill:#FFFFFF;}
	.st5{fill:#42A1D6;}
	.st6{fill:#D2E3F4;}
	.st7{fill:#112129;}
	.st8{fill:#3581AB;}
	.st9{font-family:'Roboto-Medium';}
	.st10{font-size:52.3487px;}
	.st11{letter-spacing:2;}
	.st12{font-size:52.3486px;}
	.st13{font-size:52.3485px;}
</style>
<g>
	<g>
		<path class="st0" d="M329.75,469.58c-2.37-0.84-4.92-1.29-7.57-1.28c-10.4,0.06-19.15,7.04-21.89,16.59c0,0,0,0,0,0.01
			l-55.04-0.18l-30.54-0.09c-2.59-0.01-4.68,2.07-4.7,4.66l-0.03,7.83h0.01l-0.02,6.86c-0.01,2.17,1.75,3.95,3.93,3.94l0.7,0
			c2.18,0.01,3.95-1.75,3.96-3.92l0.02-6.86l4.96,0.02l-0.02,6.86c-0.01,2.17,1.75,3.94,3.93,3.94l0.9,0
			c2.18,0.01,3.95-1.75,3.96-3.92l0.02-6.86l5,0l-0.01,6.64c-0.01,2.06,1.46,3.95,3.51,4.15c2.36,0.25,4.35-1.59,4.36-3.9l0.02-6.86
			l55.04,0.18c0.81,2.91,2.18,5.6,4.01,7.92c4.18,5.35,10.68,8.79,17.99,8.81c13.02,0.04,23.53-10.76,22.98-23.93
			C344.82,480.68,338.38,472.59,329.75,469.58z M336.73,496.17c-0.93,0.61-2.06,0.97-3.25,0.96c-3.22-0.01-5.85-2.65-5.84-5.9
			c0.01-3.25,2.65-5.87,5.87-5.86c1.22,0,2.34,0.38,3.28,1.02h0.01c1.55,1.06,2.58,2.85,2.57,4.88
			C339.37,493.32,338.32,495.12,336.73,496.17z"/>
		<path class="st0" d="M345.23,490.21c0.55,13.16-9.96,23.97-22.98,23.93c-7.3-0.02-13.81-3.47-17.99-8.81
			c7.56,3.68,16.24,5.35,24.26,0.88c4.68-2.62,7.15-6.14,8.2-10.04c1.59-1.05,2.64-2.84,2.65-4.9c0.01-2.03-1.02-3.82-2.57-4.88
			h-0.01c-1.27-6.65-4.72-13.06-7.04-16.81C338.38,472.59,344.82,480.68,345.23,490.21z"/>
	</g>
	<g>
		<path class="st1" d="M564.4,86.47c-5.01-46.68-43.28-83.53-90.59-86.3C471.92,0.07,470,0,468.09,0c-1.94,0-3.85,0.07-5.75,0.17
			c-27.93,1.63-52.73,15.15-69.36,35.57c-11.56,14.15-19.18,31.61-21.23,50.73c-0.37,3.42-0.57,6.9-0.57,10.41v134.22
			c0,3.18,2.57,5.75,5.75,5.75h182.29c3.18,0,5.75-2.57,5.75-5.75V96.88C564.97,93.37,564.79,89.89,564.4,86.47z M473.81,11.69
			c24.32,1.61,45.89,13.45,60.44,31.26c1.52,1.87,2.98,3.81,4.35,5.81c1.37,2,2.66,4.05,3.85,6.18c1.2,2.11,2.31,4.29,3.33,6.51
			c1,2.22,1.94,4.51,2.76,6.81c1.24,3.48,2.26,7.08,3.05,10.75c0.52,2.44,0.96,4.92,1.26,7.45h-79.05V11.69z M473.81,97.97h79.68
			v55.62h-79.68V97.97z M393.15,55.97c13.63-24.91,39.32-42.3,69.19-44.28v74.78h-79.03C384.64,75.54,388.06,65.25,393.15,55.97z
			 M382.68,97.97h79.66v55.62h-79.66V97.97z M462.34,225.35h-79.66v-60.28h79.66V225.35z M553.49,225.35h-79.68v-60.28h79.68V225.35
			z"/>
		<rect x="473.81" y="165.06" class="st0" width="79.68" height="60.28"/>
		<rect x="473.81" y="97.97" class="st0" width="79.68" height="55.62"/>
		<path class="st0" d="M552.84,86.47h-79.03V11.69C514.79,14.41,547.94,46.15,552.84,86.47z"/>
		<rect x="382.68" y="165.06" class="st0" width="79.66" height="60.28"/>
		<rect x="382.68" y="97.97" class="st0" width="79.66" height="55.62"/>
		<path class="st0" d="M462.34,11.69v74.78h-79.03c0.02-0.09,0.02-0.2,0.04-0.28c0.89-7.14,2.68-14,5.23-20.49
			c1.33-3.35,2.85-6.6,4.57-9.73c7.12-13,17.5-23.95,30.07-31.72C434.74,17.11,448.06,12.63,462.34,11.69z"/>
	</g>
	<path class="st0" d="M394.98,86.47h-11.67c1.33-10.93,4.75-21.23,9.84-30.5C393.39,65.42,393.96,75.81,394.98,86.47z"/>
	<path class="st0" d="M410.22,153.59h-27.54V97.97h13.56C398.77,117.63,403.06,137.46,410.22,153.59z"/>
	<path class="st0" d="M423.55,174.88c8.99,9.82,22.84,16.5,38.8,20.92v29.54h-79.66v-60.28h33.53
		C418.45,168.68,420.89,171.97,423.55,174.88z"/>
	<path class="st0" d="M553.49,203.66v21.68h-79.68v-26.78C500.35,204.03,530.57,204.49,553.49,203.66z"/>
	<g class="st2">
		<g>
			<g class="st3">
				<polygon class="st0" points="526.96,86.47 473.81,23.47 473.81,79.94 479.74,86.47 				"/>
			</g>
			<g class="st3">
				<path class="st0" d="M462.34,67.31V11.69c-14.28,0.94-27.61,5.42-39.12,12.56L462.34,67.31z"/>
			</g>
			<g class="st3">
				<polygon class="st0" points="536.67,97.97 490.19,97.97 540.74,153.59 553.49,153.59 553.49,117.93 				"/>
			</g>
		</g>
	</g>
	<ellipse class="st1" cx="511.45" cy="573.66" rx="43.08" ry="6.72"/>
	<g>
		<path class="st0" d="M519.12,550.54c0-4.1-2.96-7.68-2.49-11.83c0.93-8.08,10.67-9.51,15.65-14.17
			c6.35-5.95-1.29-12.25-4.18-17.68c-5.58-10.5,5.03-18.39,9.98-26.35c2.45-3.93,3.24-8.6,0.29-12.46
			c-1.64-2.14-4.07-3.49-6.24-5.09c-5.43-4.02-6.32-10.62-1.09-15.31c8.23-7.39,19.78-13.07,18.75-26.11
			c-0.1-1.24-0.34-2.52-1.1-3.5c-0.92-1.18-2.47-1.73-3.96-1.77c-7.33-0.22-15.8,7.09-22.77,1.96
			c-9.04-6.66-26.89-26.42-38.79-10.47c-4.48,6-3.27,14.09,0.42,20.13c4.12,6.75,7.94,13.99,7.68,22.15
			c-0.25,7.95-1.68,11.58-8.1,16.27c-5.49,4.01-12.04,4.89-13.57,12.38c-2.62,12.85,22.85,8.33,21.42,20.47
			c-0.83,7.07-5.23,11.73-7.5,18.14c-0.39,1.1-0.64,2.32-0.33,3.45c0.44,1.62,1.91,2.71,3.28,3.68
			c7.89,5.55,21.34,12.12,20.03,23.76"/>
		<path class="st4" d="M535.43,428.93c-11.86-1.34-20.32,8.34-23.01,11.92c-0.83-6.79-2.75-13.04-6.49-18.16
			c-0.16-0.21-0.45-0.26-0.66-0.1c-0.21,0.16-0.26,0.45-0.1,0.67c3.82,5.22,5.68,11.71,6.42,18.76c-0.04,0.07-0.09,0.13-0.09,0.14
			c-0.14,0.22-0.07,0.52,0.15,0.66c0.01,0.01,0.02,0,0.03,0.01c0.94,10.1-0.34,21.31-1.54,31.73c-0.48,4.19-0.94,8.14-1.25,11.93
			c-0.03,0.43-0.06,0.86-0.09,1.3c-2.5-1.47-11.95-6.7-23.62-8.87c-0.26-0.05-0.51,0.12-0.55,0.38c-0.05,0.26,0.12,0.51,0.38,0.56
			c12.36,2.3,22.2,8.07,23.72,9c-0.56,9.19-0.18,19.71,0.4,28.44c-2.65-0.79-13.08-3.57-19.5-0.25c-0.23,0.12-0.33,0.41-0.2,0.64
			c0.12,0.23,0.41,0.33,0.64,0.2c6.35-3.28,17.37-0.11,19.13,0.43c0.68,9.83,1.58,17.16,1.6,17.3c0.03,0.24,0.24,0.42,0.47,0.42
			c0.02,0,0.04,0,0.06,0c0.26-0.03,0.45-0.27,0.41-0.53c-0.01-0.09-0.35-2.85-0.77-7.22c0.14-0.02,0.28-0.09,0.36-0.23
			c0.06-0.11,6.23-11.09,15.68-9.28c0.25,0.06,0.51-0.12,0.56-0.38c0.05-0.26-0.12-0.51-0.38-0.56c-8.78-1.71-14.85,6.82-16.33,9.17
			c-0.93-10.03-2.1-27.05-1.01-40.43c0.26-3.2,0.63-6.55,1.03-10.03c1.35-0.79,11.94-6.7,20.87-3.68c0.25,0.09,0.52-0.05,0.6-0.3
			c0.08-0.25-0.05-0.52-0.3-0.6c-8.59-2.91-18.27,1.87-21.04,3.4c0.03-0.24,0.05-0.46,0.08-0.7c1.23-10.63,2.53-22.08,1.5-32.39
			c1.55-2.24,10.22-13.79,22.75-12.39c0.27,0.05,0.5-0.16,0.53-0.42C535.88,429.19,535.69,428.96,535.43,428.93z"/>
	</g>
	<g>
		<path class="st5" d="M497.77,574.83h27.09c1.75,0,3.2-1.34,3.35-3.08l3.46-35.5h-40.7l3.46,35.5
			C494.57,573.49,496.03,574.83,497.77,574.83z"/>
		<path class="st5" d="M489.13,543.15h44.37c0.35,0,0.64-0.29,0.64-0.64v-5.62c0-0.35-0.29-0.64-0.64-0.64h-44.37
			c-0.35,0-0.64,0.29-0.64,0.64v5.62C488.49,542.87,488.78,543.15,489.13,543.15z"/>
	</g>
	<g>
		<path class="st6" d="M427.23,192.73v236.54c0,9.27-7.5,16.77-16.74,16.77H144.75c-9.24,0-16.74-7.5-16.74-16.77V192.73
			c0-9.24,7.5-16.74,16.74-16.74h265.74C419.73,175.99,427.23,183.49,427.23,192.73z"/>
		<path class="st5" d="M427.23,192.73v13.09H128.01v-13.09c0-9.24,7.5-16.74,16.74-16.74h265.74
			C419.73,175.99,427.23,183.49,427.23,192.73z"/>
		<circle class="st4" cx="277.62" cy="311.01" r="76.27"/>
		<g>
			<g>
				<g>
					<g>
						<path class="st7" d="M277.6,266.3c-13.62,0-24.74,11.11-24.74,24.77v25.98h49.51v-25.98
							C302.37,277.41,291.26,266.3,277.6,266.3z M294.13,308.8h-33.02v-17.73c0-9.13,7.4-16.53,16.49-16.53
							c9.09,0,16.53,7.4,16.53,16.53V308.8z"/>
					</g>
				</g>
				<rect x="266.81" y="316.32" class="st7" width="21.08" height="23.37"/>
				<path class="st5" d="M309.49,297.94h-63.77c-2.12,0-3.86,1.77-3.86,3.89v50c0,2.12,1.73,3.89,3.86,3.89h63.77
					c2.16,0,3.89-1.77,3.89-3.89v-50C313.38,299.71,311.65,297.94,309.49,297.94z M283.51,331.49c0,3.5-3.04,6.26-6.62,5.84
					c-2.55-0.32-4.67-2.3-5.1-4.81c-0.42-2.62,0.85-4.99,2.9-6.16v-4.28c0-1.59,1.31-2.9,2.9-2.9c1.63,0,2.94,1.31,2.94,2.9v4.28
					C282.31,327.38,283.51,329.3,283.51,331.49z"/>
			</g>
			<path class="st8" d="M313.37,301.83v50.02c0,2.13-1.74,3.87-3.87,3.87h-63.77c-2.15,0-3.87-1.74-3.87-3.87v-2.49
				c15.16,0.21,37.74-0.45,49.96-5.41c17.5-7.1,17.49-36.63,16.87-45.99h0.81C311.63,297.96,313.37,299.7,313.37,301.83z"/>
		</g>
	</g>
	<g>
		<path class="st4" d="M359.43,191.88c0,2.29-1.86,4.14-4.14,4.14c-2.29,0-4.14-1.86-4.14-4.14c0-2.29,1.86-4.14,4.14-4.14
			C357.57,187.73,359.43,189.59,359.43,191.88z"/>
		<path class="st4" d="M381.86,191.88c0,2.29-1.86,4.14-4.14,4.14c-2.29,0-4.14-1.86-4.14-4.14c0-2.29,1.86-4.14,4.14-4.14
			C380.01,187.73,381.86,189.59,381.86,191.88z"/>
		<path class="st4" d="M404.3,191.88c0,2.29-1.86,4.14-4.14,4.14c-2.29,0-4.14-1.86-4.14-4.14c0-2.29,1.86-4.14,4.14-4.14
			C402.44,187.73,404.3,189.59,404.3,191.88z"/>
	</g>
	<text transform="matrix(0.9015 0.4327 -0.4327 0.9015 465.1849 337.2035)" class="st9 st10 st11">?</text>
	<text transform="matrix(0.9015 0.4327 -0.4327 0.9015 36.6189 429.2935)" class="st9 st10 st11">?</text>
	<text transform="matrix(1 0 0 1 285.3541 112.4125)" class="st9 st12 st11">?</text>
	<text transform="matrix(0.8484 -0.5294 0.5294 0.8484 236.7073 162.4934)" class="st9 st13 st11">?</text>
	<text transform="matrix(0.8484 -0.5294 0.5294 0.8484 23.7064 288.0788)" class="st9 st13 st11">?</text>
	<g>
		<text transform="matrix(1 0 0 1 113.1295 109.6019)" class="st9 st12 st11">?</text>
	</g>
</g>
</svg>
