<?xml version="1.0" encoding="utf-8"?>
<!-- Generator: Adobe Illustrator 25.1.0, SVG Export Plug-In . SVG Version: 6.00 Build 0)  -->
<svg version="1.1" id="Layer_1" xmlns="http://www.w3.org/2000/svg" xmlns:xlink="http://www.w3.org/1999/xlink" x="0px" y="0px"
	 viewBox="0 0 220.75 220.91" style="enable-background:new 0 0 220.75 220.91;" xml:space="preserve">
<style type="text/css">
	.st0{fill-rule:evenodd;clip-rule:evenodd;fill:#C7894F;}
	.st1{fill-rule:evenodd;clip-rule:evenodd;fill:#EDC56E;}
	.st2{fill-rule:evenodd;clip-rule:evenodd;fill:#9B6C45;}
	.st3{fill-rule:evenodd;clip-rule:evenodd;fill:#EAA557;}
	.st4{fill-rule:evenodd;clip-rule:evenodd;fill:#EAB157;}
	.st5{fill-rule:evenodd;clip-rule:evenodd;fill:#C9955C;}
	.st6{fill-rule:evenodd;clip-rule:evenodd;fill:#9E5827;}
	.st7{fill-rule:evenodd;clip-rule:evenodd;fill:#EEC671;}
</style>
<g>
	<path class="st0" d="M146.05,0l25.47,103.22l-4.72,1.16L141.34,1.16L146.05,0z"/>
	<path class="st1" d="M141.34,1.17l25.47,103.22l-12.73,3.14L128.6,4.31L141.34,1.17L141.34,1.17z"/>
	<path class="st2" d="M129.25,151.19l85.96-30.54c0,0,0,51.37,0,66.69c0,2.55-1.61,4.83-4.01,5.69
		c-14.28,5.08-62.59,22.24-77.51,27.54c-1.02,0.36-2.14,0.21-3.03-0.42c-0.88-0.62-1.4-1.63-1.4-2.71
		C129.25,201.59,129.25,151.19,129.25,151.19L129.25,151.19z"/>
	<path class="st3" d="M133.03,149.84L5.22,91.45c0,0,0,48.11,0,65.09c0,3.56,2.08,6.8,5.32,8.28l120.9,55.73
		c-0.39-0.55-2.2-2.43-2.2-3.12c0-15.84,0-66.24,0-66.24L133.03,149.84z"/>
	<path class="st4" d="M218.78,121.32c1.18-1,1.92-2.48,1.96-4.09c0.07-2.29-1.27-4.38-3.37-5.29
		c-30.1-12.95-103.61-44.58-121.8-52.4c-2.66-1.15-5.64-1.3-8.41-0.45C73.09,63.45,27.84,77.47,4.18,84.8
		c-2.34,0.73-4,2.82-4.16,5.27c-0.12,1.77,0.56,3.46,1.78,4.65c0.66-0.64,1.47-1.13,2.38-1.42c23.67-7.33,68.91-21.34,82.98-25.7
		c2.77-0.86,5.75-0.7,8.41,0.45c18.19,7.83,91.7,39.45,121.8,52.4C217.89,120.67,218.37,120.97,218.78,121.32L218.78,121.32z"/>
	<path class="st5" d="M203.21,114.35L95.58,68.04c-2.66-1.15-5.65-1.3-8.41-0.45L17.24,89.26l106.78,49.45
		c3.36,1.55,7.19,1.72,10.66,0.46L203.21,114.35z"/>
	<path class="st6" d="M150.84,91.82l-2.67-1.15L72.84,115l3.24,1.5L150.84,91.82L150.84,91.82z"/>
	<path class="st7" d="M6.24,84.16L4.18,84.8c-2.34,0.73-4,2.82-4.16,5.27s1.2,4.75,3.43,5.78c30.3,14.03,100.8,46.68,120.57,55.84
		c3.36,1.55,7.19,1.72,10.66,0.46c15.44-5.59,59.96-21.71,82.39-29.83c2.15-0.78,3.61-2.79,3.68-5.08c0.07-2.29-1.27-4.38-3.37-5.29
		l-3.44-1.48l-79.26,28.7c-3.48,1.26-7.31,1.09-10.66-0.46L6.24,84.16L6.24,84.16z"/>
	<path class="st1" d="M42.85,25.47c0,0,18.72,77.28,24.01,99.14c0.76,3.15-1.17,6.32-4.32,7.08c0,0,0,0,0,0
		c-3.15,0.76-6.32-1.17-7.08-4.32c-5.3-21.86-24.01-99.14-24.01-99.14L42.85,25.47L42.85,25.47z"/>
	<path class="st0" d="M42.83,25.47L146.05,0l1.16,4.7L43.99,30.17L42.83,25.47z"/>
	<path class="st0" d="M62.89,131.59l4.14-1l0.03-0.01c3.15-0.76,5.08-3.93,4.32-7.08c-5.3-21.86-24.01-99.13-24.01-99.13l-11.4,2.76
		l6.89-1.67c0,0,18.72,77.28,24.01,99.14C67.6,127.64,65.83,130.69,62.89,131.59z"/>
	<path class="st6" d="M156.1,198.66l2.65-0.91v9.74l-2.65,0.91V198.66z"/>
	<path class="st6" d="M28.87,113.56l2.65,1.37v10.62l-2.65-1.37V113.56z"/>
	<path class="st6" d="M194.89,134.46l2.65-0.91v9.74l-2.65,0.91V134.46z"/>
	<path class="st6" d="M150.88,200.42l2.65-0.91v9.74l-2.65,0.91V200.42z"/>
	<path class="st6" d="M23.65,110.83l2.65,1.37v10.62l-2.65-1.37V110.83z"/>
	<path class="st6" d="M189.66,136.21l2.65-0.91v9.74l-2.65,0.91V136.21z"/>
	<path class="st6" d="M208.8,130.17v2.65l-8.99,3v-2.65L208.8,130.17z"/>
	<path class="st6" d="M146.84,203.9v2.65l-8.99,3v-2.65L146.84,203.9z"/>
	<path class="st6" d="M19.91,110.12v2.95l-8.99-4.73v-2.95L19.91,110.12z"/>
	<path class="st6" d="M208.95,135.74v2.65l-8.99,3v-2.65L208.95,135.74z"/>
	<path class="st6" d="M147,209.47v2.65l-8.99,3v-2.65L147,209.47z"/>
	<path class="st6" d="M20.06,116.46v2.95l-8.99-4.73v-2.95L20.06,116.46z"/>
</g>
</svg>
