<?xml version="1.0" encoding="utf-8"?>
<!-- Generator: Adobe Illustrator 25.1.0, SVG Export Plug-In . SVG Version: 6.00 Build 0)  -->
<svg version="1.1" id="Layer_1" xmlns="http://www.w3.org/2000/svg" xmlns:xlink="http://www.w3.org/1999/xlink" x="0px" y="0px"
	 viewBox="0 0 823.16 933.92" style="enable-background:new 0 0 823.16 933.92;" xml:space="preserve">
<style type="text/css">
	.st0{fill:#FACB18;}
	.st1{fill:#BD7B5A;}
</style>
<g>
	<path class="st0" d="M822.24,156.57c-2.42-23.59-9.72-46.76-21.62-67.43c-12.03-20.55-28.74-38.56-48.59-51.11
		c-9.87-6.33-20.35-11.42-31.08-15.29c-10.76-3.75-21.7-6.45-32.6-7.99c-2.63-0.38-5.24-0.67-7.86-0.91
		c0.03-2.29,0.11-4.56,0.11-6.85c0-0.94-0.02-1.87-0.03-2.8h-538c-0.01,0.94-0.03,1.87-0.03,2.8c0,2.3,0.08,4.57,0.11,6.85
		c-2.61,0.25-5.23,0.53-7.86,0.91c-10.89,1.54-21.83,4.23-32.6,7.99C91.48,26.62,81,31.71,71.13,38.03
		C51.28,50.58,34.57,68.6,22.54,89.14c-11.9,20.67-19.2,43.83-21.62,67.43c-2.34,23.59-0.31,47.73,7.05,70.62
		c3.63,11.48,8.46,22.52,14.75,33.16c6.14,10.19,13.3,19.54,21,28.15c15.43,17.24,33.36,31.09,52,42.36
		c18.62,11.38,38.17,19.96,57.72,26.79c39.23,13.44,78.87,19.27,116.42,19.21c27.62-0.14,54.24-3.58,78.67-10.5
		c1.01,22.68,13.95,42.25,32.72,52.56c-5.86,24.57-9.41,56.34-9.41,91.06c0,12.11,0.43,23.86,1.24,35.08
		c-43.5,4.35-75.49,15.88-79.24,29.71h-31.98v13.82h-37.02v44.31h-37.02v55.77h447.53v-55.77h-37.02v-44.31H561.3v-13.82h-31.98
		c-3.74-13.83-35.73-25.36-79.23-29.71c0.81-11.22,1.24-22.97,1.24-35.08c0-34.72-3.54-66.49-9.41-91.06
		c18.78-10.3,31.72-29.87,32.72-52.56c24.44,6.93,51.05,10.36,78.67,10.5c37.55,0.07,77.18-5.77,116.42-19.21
		c19.55-6.84,39.1-15.42,57.72-26.79c18.63-11.28,36.56-25.12,52-42.36c7.7-8.61,14.86-17.96,21-28.15
		c6.29-10.64,11.12-21.68,14.75-33.16C822.55,204.3,824.58,180.16,822.24,156.57z M271.17,340.39
		c-33.57-2.68-68.72-10.6-102.4-24.04c-16.82-6.74-33.17-15.07-48.48-24.87c-15.24-9.88-29.29-21.48-41.04-34.69
		c-5.82-6.64-11.09-13.67-15.47-21.13c-4.24-6.99-7.84-14.88-10.5-23.06c-5.33-16.4-7.54-34.3-6.33-51.96
		c2.29-35.4,18.65-69.54,46.44-90.5c13.8-10.57,30.21-17.97,47.7-22.23c1.05-0.25,2.13-0.44,3.19-0.67
		c11.26,134.25,78.07,246.01,169.1,293.63C299.73,341.69,285.58,341.54,271.17,340.39z M769.88,212.61
		c-2.65,8.17-6.26,16.06-10.5,23.06c-4.39,7.45-9.65,14.48-15.47,21.13c-11.75,13.21-25.8,24.81-41.04,34.69
		c-15.3,9.79-31.66,18.13-48.48,24.87c-33.68,13.44-68.82,21.36-102.4,24.04c-14.41,1.16-28.56,1.31-42.22,0.49
		c91.03-47.61,157.85-159.38,169.1-293.63c1.06,0.23,2.14,0.42,3.19,0.67c17.49,4.26,33.9,11.66,47.7,22.23
		c27.79,20.96,44.15,55.1,46.44,90.5C777.42,178.31,775.21,196.21,769.88,212.61z"/>
	<rect x="117.58" y="681.47" class="st1" width="587.99" height="248.26"/>
	<path class="st0" d="M578.37,873.11H244.79c-2.89,0-5.25-2.36-5.25-5.25V740.07c0-2.89,2.36-5.25,5.25-5.25h333.59
		c2.89,0,5.25,2.36,5.25,5.25v127.79C583.62,870.75,581.26,873.11,578.37,873.11z"/>
</g>
</svg>
