<?xml version="1.0" encoding="utf-8"?>
<!-- Generator: Adobe Illustrator 25.1.0, SVG Export Plug-In . SVG Version: 6.00 Build 0)  -->
<svg version="1.1" id="Layer_1" xmlns="http://www.w3.org/2000/svg" xmlns:xlink="http://www.w3.org/1999/xlink" x="0px" y="0px"
	 viewBox="0 0 775 942" style="enable-background:new 0 0 775 942;" xml:space="preserve">
<style type="text/css">
	.st0{fill:#FACB18;}
	.st1{fill:none;stroke:#FACB18;stroke-width:3;stroke-miterlimit:10;}
</style>
<g>
	<g>
		<path class="st0" d="M145.68,671.3c0-44.48,5.5-79.94,16.57-106.38c10.99-26.43,32.81-55.48,65.42-87.08
			c32.57-31.61,53.23-54.11,61.89-67.51c13.4-20.34,20.06-42.36,20.06-66.06c0-31.37-7.74-55.31-23.31-71.84
			c-15.52-16.53-38.35-24.79-68.43-24.79c-28.76,0-51.91,8.06-69.43,24.23c-17.57,16.17-26.31,38.07-26.31,65.7H0.27
			c0.68-59.21,20.82-106.06,60.41-140.51c39.63-34.46,92.02-51.7,157.2-51.7c67.19,0,119.57,17.05,157.2,51.18
			c37.59,34.14,56.4,81.83,56.4,143.04c0,54.55-25.39,108.22-76.21,161.09l-61.69,60.73c-22.06,25.11-33.41,61.73-34.1,109.91
			H145.68z M137.13,827.01c0-19.65,6.22-35.54,18.57-47.73c12.35-12.11,29.08-18.21,50.14-18.21c21.38,0,38.27,6.26,50.66,18.73
			c12.35,12.47,18.53,28.24,18.53,47.21c0,18.29-6.02,33.61-18.05,45.93c-12.03,12.31-29.08,18.49-51.14,18.49
			s-39.03-6.18-50.9-18.49C143.07,860.62,137.13,845.3,137.13,827.01z"/>
	</g>
	<path class="st1" d="M444.27,196.53c37.59,34.14,56.4,81.83,56.4,143.04c0,54.55-25.39,108.22-76.21,161.09l-61.69,60.73
		c-22.06,25.11-33.41,61.73-34.1,109.91 M295.7,779.8c12.35,12.47,18.53,28.24,18.53,47.21c0,18.29-6.02,33.61-18.05,45.93"/>
</g>
<g>
	<g>
		<path class="st0" d="M623.77,778.51c0-9.07,1.12-16.3,3.38-21.69c2.24-5.39,6.69-11.31,13.34-17.75
			c6.64-6.44,10.85-11.03,12.62-13.76c2.73-4.15,4.09-8.64,4.09-13.47c0-6.39-1.58-11.28-4.75-14.65
			c-3.16-3.37-7.82-5.05-13.95-5.05c-5.86,0-10.58,1.64-14.15,4.94c-3.58,3.3-5.36,7.76-5.36,13.39h-24.84
			c0.14-12.07,4.24-21.62,12.31-28.64c8.08-7.02,18.76-10.54,32.05-10.54c13.7,0,24.38,3.48,32.05,10.43
			c7.66,6.96,11.5,16.68,11.5,29.16c0,11.12-5.18,22.06-15.54,32.84l-12.58,12.38c-4.5,5.12-6.81,12.58-6.95,22.41H623.77z
			 M622.03,810.26c0-4.01,1.27-7.24,3.79-9.73c2.52-2.47,5.93-3.71,10.22-3.71c4.36,0,7.8,1.28,10.33,3.82
			c2.52,2.54,3.78,5.76,3.78,9.62c0,3.73-1.23,6.85-3.68,9.36c-2.45,2.51-5.93,3.77-10.43,3.77c-4.5,0-7.96-1.26-10.38-3.77
			C623.24,817.11,622.03,813.99,622.03,810.26z"/>
	</g>
	<path class="st1" d="M684.65,681.73c7.66,6.96,11.5,16.68,11.5,29.16c0,11.12-5.18,22.06-15.54,32.84l-12.58,12.38
		c-4.5,5.12-6.81,12.58-6.95,22.41 M654.36,800.63c2.52,2.54,3.78,5.76,3.78,9.62c0,3.73-1.23,6.85-3.68,9.36"/>
</g>
<g>
	<g>
		<path class="st0" d="M436.14,865.86c0-4.35,0.54-7.81,1.62-10.4c1.07-2.58,3.21-5.42,6.39-8.51c3.18-3.09,5.2-5.29,6.05-6.6
			c1.31-1.99,1.96-4.14,1.96-6.46c0-3.07-0.76-5.41-2.28-7.02c-1.52-1.61-3.75-2.42-6.69-2.42c-2.81,0-5.07,0.79-6.79,2.37
			c-1.72,1.58-2.57,3.72-2.57,6.42h-11.91c0.07-5.79,2.03-10.36,5.9-13.73c3.87-3.37,8.99-5.05,15.36-5.05
			c6.57,0,11.68,1.67,15.36,5c3.67,3.34,5.51,8,5.51,13.98c0,5.33-2.48,10.58-7.45,15.74l-6.03,5.93
			c-2.16,2.45-3.27,6.03-3.33,10.74H436.14z M435.3,881.08c0-1.92,0.61-3.47,1.81-4.66c1.21-1.18,2.84-1.78,4.9-1.78
			c2.09,0,3.74,0.61,4.95,1.83c1.21,1.22,1.81,2.76,1.81,4.61c0,1.79-0.59,3.28-1.76,4.49s-2.84,1.81-5,1.81
			c-2.16,0-3.81-0.6-4.97-1.81S435.3,882.87,435.3,881.08z"/>
	</g>
	<path class="st1" d="M465.31,819.47c3.67,3.34,5.51,8,5.51,13.98c0,5.33-2.48,10.58-7.45,15.74l-6.03,5.93
		c-2.16,2.45-3.27,6.03-3.33,10.74 M450.8,876.47c1.21,1.22,1.81,2.76,1.81,4.61c0,1.79-0.59,3.28-1.76,4.49"/>
</g>
<g>
	<g>
		<path class="st0" d="M655.84,182c0-6.81,0.84-12.24,2.54-16.29c1.68-4.05,5.02-8.5,10.02-13.34c4.99-4.84,8.15-8.29,9.48-10.34
			c2.05-3.11,3.07-6.49,3.07-10.12c0-4.8-1.19-8.47-3.57-11c-2.38-2.53-5.87-3.8-10.48-3.8c-4.4,0-7.95,1.23-10.63,3.71
			c-2.69,2.48-4.03,5.83-4.03,10.06h-18.66c0.1-9.07,3.19-16.24,9.25-21.52c6.07-5.28,14.09-7.92,24.07-7.92
			c10.29,0,18.31,2.61,24.07,7.84c5.76,5.23,8.64,12.53,8.64,21.9c0,8.35-3.89,16.57-11.67,24.67l-9.45,9.3
			c-3.38,3.85-5.12,9.45-5.22,16.83H655.84z M654.53,205.84c0-3.01,0.95-5.44,2.84-7.31c1.89-1.86,4.45-2.79,7.68-2.79
			c3.27,0,5.86,0.96,7.76,2.87c1.89,1.91,2.84,4.32,2.84,7.23c0,2.8-0.92,5.15-2.76,7.03s-4.45,2.83-7.83,2.83s-5.98-0.95-7.79-2.83
			C655.44,210.99,654.53,208.64,654.53,205.84z"/>
	</g>
	<path class="st1" d="M701.56,109.29c5.76,5.23,8.64,12.53,8.64,21.9c0,8.35-3.89,16.57-11.67,24.67l-9.45,9.3
		c-3.38,3.85-5.12,9.45-5.22,16.83 M678.81,198.61c1.89,1.91,2.84,4.32,2.84,7.23c0,2.8-0.92,5.15-2.76,7.03"/>
</g>
<g>
	<g>
		<path class="st0" d="M468.64,596.3c0-6.81,0.84-12.24,2.54-16.29c1.68-4.05,5.02-8.5,10.02-13.34c4.99-4.84,8.15-8.29,9.48-10.34
			c2.05-3.11,3.07-6.49,3.07-10.12c0-4.8-1.19-8.47-3.57-11c-2.38-2.53-5.87-3.8-10.48-3.8c-4.4,0-7.95,1.23-10.63,3.71
			c-2.69,2.48-4.03,5.83-4.03,10.06h-18.66c0.1-9.07,3.19-16.24,9.25-21.52c6.07-5.28,14.09-7.92,24.07-7.92
			c10.29,0,18.31,2.61,24.07,7.84c5.76,5.23,8.64,12.53,8.64,21.9c0,8.35-3.89,16.57-11.67,24.67l-9.45,9.3
			c-3.38,3.85-5.12,9.45-5.22,16.83H468.64z M467.33,620.15c0-3.01,0.95-5.44,2.84-7.31c1.89-1.86,4.45-2.79,7.68-2.79
			c3.27,0,5.86,0.96,7.76,2.87c1.89,1.91,2.84,4.32,2.84,7.23c0,2.8-0.92,5.15-2.76,7.03c-1.84,1.89-4.45,2.83-7.83,2.83
			s-5.98-0.95-7.79-2.83C468.24,625.3,467.33,622.95,467.33,620.15z"/>
	</g>
	<path class="st1" d="M514.37,523.6c5.76,5.23,8.64,12.53,8.64,21.9c0,8.35-3.89,16.57-11.67,24.67l-9.45,9.3
		c-3.38,3.85-5.12,9.45-5.22,16.83 M491.62,612.92c1.89,1.91,2.84,4.32,2.84,7.23c0,2.8-0.92,5.15-2.76,7.03"/>
</g>
<g>
	<g>
		<path class="st0" d="M556.35,330.39c0-4.73,0.58-8.51,1.76-11.32c1.17-2.81,3.49-5.9,6.96-9.27c3.47-3.36,5.66-5.76,6.59-7.18
			c1.43-2.16,2.13-4.51,2.13-7.03c0-3.34-0.82-5.89-2.48-7.65c-1.65-1.76-4.08-2.64-7.28-2.64c-3.06,0-5.52,0.86-7.39,2.58
			c-1.87,1.72-2.8,4.05-2.8,6.99h-12.97c0.07-6.3,2.22-11.29,6.43-14.95c4.22-3.67,9.79-5.5,16.73-5.5c7.15,0,12.73,1.81,16.73,5.45
			c4,3.63,6,8.71,6,15.22c0,5.81-2.7,11.52-8.11,17.14l-6.57,6.46c-2.35,2.67-3.56,6.57-3.63,11.7H556.35z M555.44,346.96
			c0-2.09,0.66-3.78,1.98-5.08c1.31-1.29,3.09-1.94,5.34-1.94c2.28,0,4.07,0.67,5.39,1.99c1.31,1.33,1.97,3.01,1.97,5.02
			c0,1.95-0.64,3.58-1.92,4.89c-1.28,1.31-3.09,1.97-5.44,1.97c-2.35,0-4.15-0.66-5.42-1.97S555.44,348.9,555.44,346.96z"/>
	</g>
	<path class="st1" d="M588.13,279.86c4,3.63,6,8.71,6,15.22c0,5.81-2.7,11.52-8.11,17.14l-6.57,6.46c-2.35,2.67-3.56,6.57-3.63,11.7
		 M572.32,341.93c1.31,1.33,1.97,3.01,1.97,5.02c0,1.95-0.64,3.58-1.92,4.89"/>
</g>
<g>
	<g>
		<path class="st0" d="M628.45,930.02c0-2.34,0.29-4.2,0.87-5.59c0.58-1.39,1.72-2.91,3.44-4.57c1.71-1.66,2.79-2.84,3.25-3.54
			c0.7-1.07,1.05-2.22,1.05-3.47c0-1.65-0.41-2.9-1.22-3.77c-0.82-0.87-2.01-1.3-3.59-1.3c-1.51,0-2.73,0.42-3.65,1.27
			c-0.92,0.85-1.38,2-1.38,3.45h-6.4c0.04-3.11,1.09-5.57,3.17-7.38c2.08-1.81,4.83-2.71,8.25-2.71c3.53,0,6.28,0.9,8.25,2.69
			c1.97,1.79,2.96,4.3,2.96,7.51c0,2.86-1.33,5.68-4,8.46l-3.24,3.19c-1.16,1.32-1.75,3.24-1.79,5.77H628.45z M628,938.19
			c0-1.03,0.33-1.87,0.98-2.51c0.65-0.64,1.53-0.96,2.63-0.96c1.12,0,2.01,0.33,2.66,0.98c0.65,0.66,0.97,1.48,0.97,2.48
			c0,0.96-0.32,1.76-0.95,2.41s-1.53,0.97-2.69,0.97s-2.05-0.32-2.67-0.97S628,939.15,628,938.19z"/>
	</g>
	<g>
		<path class="st0" d="M636.88,941.12l-1.06-1.03c0.5-0.51,0.74-1.13,0.74-1.89c0-0.8-0.25-1.44-0.76-1.96l1.05-1.04
			c0.79,0.8,1.19,1.8,1.19,3C638.04,939.35,637.65,940.33,636.88,941.12z M638.79,930.03l-1.48-0.02c0.04-2.7,0.7-4.8,1.97-6.25
			l0.04-0.04l3.24-3.19c2.5-2.61,3.78-5.28,3.78-7.93c0-3.02-0.89-5.3-2.72-6.96l1-1.1c2.13,1.93,3.2,4.64,3.2,8.06
			c0,3.05-1.42,6.07-4.21,8.97l-3.23,3.18C639.36,925.93,638.83,927.7,638.79,930.03z"/>
	</g>
</g>
<g>
	<g>
		<path class="st0" d="M485.66,60.38c0-5.07,0.63-9.1,1.89-12.11c1.25-3.01,3.74-6.32,7.45-9.92c3.71-3.6,6.06-6.16,7.05-7.69
			c1.53-2.32,2.28-4.82,2.28-7.52c0-3.57-0.88-6.3-2.65-8.18c-1.77-1.88-4.37-2.82-7.79-2.82c-3.28,0-5.91,0.92-7.91,2.76
			c-2,1.84-3,4.34-3,7.48H469.1c0.08-6.74,2.37-12.08,6.88-16c4.51-3.92,10.48-5.89,17.9-5.89c7.65,0,13.62,1.94,17.9,5.83
			c4.28,3.89,6.42,9.32,6.42,16.29c0,6.21-2.89,12.32-8.68,18.35l-7.03,6.92c-2.51,2.86-3.81,7.03-3.88,12.52H485.66z M484.69,78.11
			c0-2.24,0.71-4.05,2.12-5.44c1.41-1.38,3.31-2.07,5.71-2.07c2.43,0,4.36,0.71,5.77,2.13c1.41,1.42,2.11,3.22,2.11,5.38
			c0,2.08-0.69,3.83-2.06,5.23c-1.37,1.4-3.31,2.11-5.82,2.11s-4.44-0.7-5.8-2.11C485.37,81.94,484.69,80.19,484.69,78.11z"/>
	</g>
	<path class="st1" d="M519.67,6.31c4.28,3.89,6.42,9.32,6.42,16.29c0,6.21-2.89,12.32-8.68,18.35l-7.03,6.92
		c-2.51,2.86-3.81,7.03-3.88,12.52 M502.75,72.73c1.41,1.42,2.11,3.22,2.11,5.38c0,2.08-0.69,3.83-2.06,5.23"/>
</g>
<g>
	<g>
		<path class="st0" d="M673.09,501.82c0-11.81,1.46-21.23,4.4-28.25c2.92-7.02,8.71-14.73,17.37-23.13
			c8.65-8.39,14.14-14.37,16.44-17.93c3.56-5.4,5.33-11.25,5.33-17.54c0-8.33-2.06-14.69-6.19-19.08
			c-4.12-4.39-10.18-6.58-18.17-6.58c-7.64,0-13.78,2.14-18.44,6.43c-4.67,4.29-6.99,10.11-6.99,17.45h-32.36
			c0.18-15.72,5.53-28.17,16.04-37.32c10.52-9.15,24.44-13.73,41.75-13.73c17.84,0,31.76,4.53,41.75,13.59
			c9.98,9.07,14.98,21.73,14.98,37.99c0,14.49-6.74,28.74-20.24,42.78l-16.38,16.13c-5.86,6.67-8.87,16.39-9.05,29.19H673.09z
			 M670.82,543.17c0-5.22,1.65-9.44,4.93-12.68c3.28-3.22,7.72-4.84,13.32-4.84c5.68,0,10.16,1.66,13.45,4.97
			c3.28,3.31,4.92,7.5,4.92,12.54c0,4.86-1.6,8.93-4.79,12.2c-3.2,3.27-7.72,4.91-13.58,4.91s-10.36-1.64-13.52-4.91
			S670.82,548.03,670.82,543.17z"/>
	</g>
	<path class="st1" d="M752.39,375.74c9.98,9.07,14.98,21.73,14.98,37.99c0,14.49-6.74,28.74-20.24,42.78l-16.38,16.13
		c-5.86,6.67-8.87,16.39-9.05,29.19 M712.93,530.63c3.28,3.31,4.92,7.5,4.92,12.54c0,4.86-1.6,8.93-4.79,12.2"/>
</g>
</svg>
