<?xml version="1.0" encoding="utf-8"?>
<!-- Generator: Adobe Illustrator 25.1.0, SVG Export Plug-In . SVG Version: 6.00 Build 0)  -->
<svg version="1.1" id="Layer_1" xmlns="http://www.w3.org/2000/svg" xmlns:xlink="http://www.w3.org/1999/xlink" x="0px" y="0px"
	 viewBox="0 0 1920 1080" style="enable-background:new 0 0 1920 1080;" xml:space="preserve">
<style type="text/css">
	.st0{fill:#FACB18;}
	.st1{fill:none;stroke:#FACB18;stroke-width:3;stroke-linecap:round;stroke-miterlimit:10;}
</style>
<g>
	<path class="st0" d="M1372.26,692.42c0-44.48,5.5-79.94,16.57-106.38c10.99-26.43,32.81-55.48,65.42-87.08
		c32.57-31.61,53.23-54.11,61.89-67.51c13.4-20.34,20.06-42.36,20.06-66.06c0-31.37-7.74-55.31-23.31-71.84
		c-15.52-16.53-38.35-24.79-68.43-24.79c-28.76,0-51.91,8.06-69.43,24.23c-17.57,16.17-26.31,38.07-26.31,65.7h-121.86
		c0.68-59.21,20.82-106.06,60.41-140.51c39.63-34.46,92.02-51.7,157.2-51.7c67.19,0,119.57,17.05,157.2,51.18
		c37.59,34.14,56.4,81.83,56.4,143.04c0,54.55-25.39,108.22-76.21,161.09l-61.69,60.73c-22.06,25.11-33.41,61.73-34.1,109.91
		H1372.26z M1363.71,848.14c0-19.65,6.22-35.54,18.57-47.73c12.35-12.11,29.08-18.21,50.14-18.21c21.38,0,38.27,6.26,50.66,18.73
		c12.35,12.47,18.53,28.24,18.53,47.21c0,18.29-6.02,33.61-18.05,45.93c-12.03,12.31-29.08,18.49-51.14,18.49
		s-39.03-6.18-50.9-18.49C1369.65,881.75,1363.71,866.43,1363.71,848.14z"/>
</g>
<path class="st1" d="M1670.85,217.65c37.59,34.14,56.4,81.83,56.4,143.04c0,54.55-25.39,108.22-76.21,161.09l-61.69,60.73
	c-22.06,25.11-33.41,61.73-34.1,109.91 M1522.28,800.92c12.35,12.47,18.53,28.24,18.53,47.21c0,18.29-6.02,33.61-18.05,45.93"/>
</svg>
